{"glyphs":{"0":{"ha":833,"x_min":96,"x_max":739,"o":"m 739 376 l 739 611 q 716 780 739 707 q 652 902 694 852 q 551 976 611 951 q 416 1002 492 1002 q 283 976 342 1002 q 182 902 224 951 q 118 780 140 852 q 96 611 96 707 l 96 376 q 119 208 96 281 q 183 86 141 135 q 284 11 224 36 q 418 -14 344 -14 q 552 11 493 -14 q 653 86 612 37 q 716 208 694 135 q 739 376 739 281 m 273 446 q 273 478 273 466 q 273 519 273 490 l 273 641 q 282 741 273 699 q 312 810 292 784 q 356 847 330 835 q 416 859 382 859 q 473 849 448 859 q 515 819 498 840 q 548 756 536 795 q 562 663 559 717 l 273 446 m 562 348 q 552 247 562 290 q 522 176 543 203 q 478 139 505 151 q 418 127 452 127 q 356 141 382 127 q 311 180 329 154 q 285 239 294 204 q 273 320 276 274 l 562 536 q 562 502 562 517 q 562 468 562 488 l 562 348 z "},"1":{"ha":833,"x_min":122,"x_max":551,"o":"m 551 0 l 551 987 l 541 987 l 122 835 l 122 681 l 374 772 l 374 0 l 551 0 z "},"2":{"ha":833,"x_min":50,"x_max":738,"o":"m 738 0 l 738 141 l 291 141 l 494 357 q 577 449 539 404 q 644 536 616 493 q 686 623 671 579 q 701 715 701 667 q 681 831 701 779 q 622 922 661 884 q 525 980 583 959 q 393 1001 467 1001 q 252 976 315 1001 q 144 907 188 951 q 74 805 98 863 q 50 682 50 747 l 226 682 q 236 756 226 724 q 267 811 247 789 q 318 844 288 832 q 389 855 348 855 q 446 845 420 855 q 490 815 471 834 q 518 769 509 795 q 528 707 528 742 q 521 659 528 684 q 498 606 514 634 q 455 544 481 578 q 390 467 429 509 l 70 121 l 70 0 l 738 0 z "},"3":{"ha":833,"x_min":65,"x_max":732,"o":"m 281 572 l 281 435 l 381 435 q 454 426 421 435 q 510 397 486 416 q 545 348 532 378 q 557 277 557 319 q 547 215 557 242 q 516 169 536 187 q 465 138 495 149 q 397 127 435 127 q 333 138 362 127 q 284 167 304 148 q 252 211 263 185 q 240 267 240 236 l 65 267 q 92 144 65 197 q 165 57 119 92 q 271 4 212 22 q 393 -14 330 -14 q 528 6 465 -14 q 635 62 590 25 q 706 153 680 99 q 732 277 732 208 q 723 350 732 315 q 694 415 713 385 q 644 468 675 445 q 570 507 613 492 q 634 547 607 524 q 680 600 662 571 q 708 658 699 627 q 717 720 717 689 q 693 841 717 789 q 627 930 670 894 q 525 983 585 965 q 393 1001 465 1001 q 268 981 326 1001 q 167 926 210 961 q 100 840 124 889 q 76 730 76 790 l 251 730 q 262 784 251 760 q 294 825 273 808 q 339 850 313 841 q 397 859 366 859 q 460 849 433 859 q 505 821 488 840 q 533 777 524 803 q 542 719 542 751 q 532 661 542 688 q 505 616 523 634 q 454 583 485 595 q 381 572 423 572 l 281 572 z "},"4":{"ha":833,"x_min":42,"x_max":762,"o":"m 642 359 l 642 987 l 463 987 l 42 326 l 48 218 l 467 218 l 467 0 l 642 0 l 642 218 l 762 218 l 762 359 l 642 359 m 218 359 l 448 718 l 467 752 l 467 359 l 218 359 z "},"5":{"ha":833,"x_min":90,"x_max":743,"o":"m 117 488 l 257 453 q 282 475 269 465 q 311 493 296 486 q 349 505 328 500 q 398 510 370 510 q 472 496 441 510 q 526 458 504 482 q 557 398 547 433 q 568 323 568 363 q 559 245 568 281 q 533 182 551 209 q 486 142 515 157 q 418 127 458 127 q 311 164 353 127 q 261 270 269 201 l 90 270 q 121 149 92 201 q 195 60 149 96 q 298 5 239 24 q 419 -14 356 -14 q 563 13 502 -14 q 664 84 624 39 q 724 189 704 129 q 743 316 743 248 q 723 455 743 393 q 665 559 703 516 q 570 625 626 602 q 444 648 515 648 q 354 635 393 648 q 292 608 315 622 l 317 836 l 711 836 l 711 987 l 172 987 l 117 488 z "},"6":{"ha":833,"x_min":77,"x_max":739,"o":"m 593 994 l 571 994 q 360 956 452 994 q 207 847 269 917 q 108 668 139 772 q 77 445 77 564 l 77 375 q 100 221 77 293 q 168 98 123 150 q 274 16 211 46 q 415 -14 336 -14 q 551 13 490 -14 q 653 84 611 39 q 717 191 695 130 q 739 324 739 253 q 722 450 739 390 q 670 557 705 511 q 582 629 635 602 q 458 656 530 656 q 394 648 424 656 q 338 627 363 640 q 291 597 312 614 q 254 562 271 580 q 283 677 260 625 q 347 768 307 730 q 446 826 387 805 q 582 846 505 846 l 593 846 l 593 994 m 410 515 q 476 500 448 515 q 525 459 505 485 q 555 397 545 433 q 566 321 566 361 q 555 243 566 279 q 525 183 545 208 q 476 143 505 157 q 412 128 448 128 q 349 143 378 128 q 298 186 320 157 q 264 257 277 214 q 252 356 252 300 l 252 409 q 277 450 262 431 q 311 483 292 469 q 357 507 332 498 q 410 515 382 515 z "},"7":{"ha":833,"x_min":53,"x_max":741,"o":"m 741 890 l 741 987 l 53 987 l 53 843 l 557 843 l 167 0 l 351 0 l 741 890 z "},"8":{"ha":833,"x_min":83,"x_max":739,"o":"m 718 726 q 694 844 718 793 q 630 930 671 895 q 532 983 589 965 q 410 1001 476 1001 q 288 983 344 1001 q 192 930 232 965 q 129 844 151 895 q 106 726 106 793 q 116 656 106 689 q 144 595 125 623 q 186 546 161 568 q 242 509 211 524 q 177 468 205 492 q 127 414 148 444 q 95 347 106 383 q 83 269 83 310 q 109 147 83 200 q 178 59 134 94 q 282 5 222 23 q 412 -14 342 -14 q 541 5 481 -14 q 645 59 600 23 q 714 147 688 94 q 739 269 739 200 q 722 362 739 319 q 675 439 705 406 q 632 478 656 460 q 580 508 608 495 q 628 539 606 522 q 667 578 650 557 q 704 646 691 609 q 718 726 718 684 m 563 280 q 552 216 563 244 q 521 168 541 188 q 473 138 501 149 q 412 127 446 127 q 350 137 378 127 q 303 165 322 147 q 271 214 282 185 q 260 280 260 243 q 270 344 260 315 q 301 393 281 373 q 348 425 320 414 q 411 435 376 435 q 473 425 446 435 q 522 393 501 414 q 552 344 541 373 q 563 280 563 315 m 543 719 q 533 661 543 687 q 507 616 524 635 q 466 587 490 597 q 412 577 442 577 q 357 587 382 577 q 316 616 333 597 q 290 661 299 635 q 281 719 281 687 q 290 777 281 751 q 315 821 298 803 q 356 849 332 840 q 410 859 380 859 q 465 848 440 859 q 507 821 489 838 q 533 776 524 802 q 543 719 543 750 z "},"9":{"ha":833,"x_min":73,"x_max":726,"o":"m 231 142 l 218 142 l 218 -7 l 232 -7 q 453 32 361 -7 q 604 140 546 71 q 697 318 669 216 q 726 538 726 420 l 726 599 q 703 761 726 686 q 637 890 680 836 q 534 971 595 942 q 397 1001 474 1001 q 261 974 321 1001 q 159 899 201 946 q 95 788 117 852 q 73 654 73 725 q 91 526 73 586 q 146 420 109 465 q 235 349 181 375 q 359 322 288 322 q 422 328 393 322 q 474 345 451 334 q 515 369 496 355 q 548 397 533 382 l 548 394 q 522 292 542 338 q 464 210 503 245 q 368 159 425 177 q 231 142 311 142 m 399 459 q 332 475 361 459 q 285 519 304 492 q 257 582 266 546 q 248 657 248 618 q 258 734 248 698 q 287 799 268 770 q 333 842 305 826 q 396 859 361 859 q 457 844 429 859 q 506 800 485 829 q 539 728 527 771 q 551 629 551 686 l 551 567 q 527 524 542 544 q 494 490 513 505 q 450 467 473 475 q 399 459 426 459 z "}," ":{"ha":833,"x_min":0,"x_max":0,"o":""},"A":{"ha":833,"x_min":26,"x_max":824,"o":"m 578 216 l 640 0 l 824 0 l 508 987 l 349 987 l 26 0 l 212 0 l 274 216 l 578 216 m 318 368 l 428 745 l 535 368 l 318 368 z "},"B":{"ha":833,"x_min":94,"x_max":791,"o":"m 94 0 l 444 0 q 586 19 522 0 q 695 73 650 37 q 766 164 741 110 q 791 289 791 218 q 780 363 791 328 q 748 429 770 399 q 698 478 728 456 q 622 512 668 499 l 622 513 q 671 538 649 524 q 709 570 692 552 q 752 637 737 600 q 767 719 766 675 q 742 839 768 788 q 669 922 716 889 q 558 971 623 955 q 417 987 494 987 l 94 987 l 94 0 m 271 441 l 454 441 q 524 430 494 440 q 574 399 554 419 q 604 352 594 380 q 613 290 614 324 q 601 229 613 256 q 566 182 589 201 q 514 154 545 164 q 446 144 484 144 l 271 144 l 271 441 m 271 572 l 271 842 l 418 842 q 497 832 463 842 q 553 802 532 823 q 581 763 571 787 q 590 707 590 739 q 579 652 590 676 q 550 612 569 629 q 495 582 528 592 q 420 572 462 572 l 271 572 z "},"C":{"ha":833,"x_min":58,"x_max":772,"o":"m 771 307 l 594 307 q 578 229 591 262 q 543 174 565 195 q 490 141 522 151 q 419 130 459 130 q 362 138 387 130 q 317 162 338 146 q 285 199 299 177 q 262 247 271 220 q 243 327 249 282 q 237 426 237 372 l 237 562 q 241 642 237 604 q 254 711 245 680 q 284 782 265 751 q 330 831 303 813 q 371 850 348 844 q 420 857 393 857 q 495 845 464 857 q 548 809 527 833 q 580 751 569 785 q 595 673 591 717 l 772 673 q 739 810 764 749 q 669 913 713 871 q 562 979 625 956 q 420 1002 500 1002 q 315 987 363 1002 q 228 945 267 972 q 150 871 184 915 q 96 773 117 828 q 67 672 77 726 q 58 560 58 618 l 58 426 q 68 308 58 364 q 98 204 78 252 q 147 116 117 156 q 214 48 176 77 q 307 2 255 18 q 419 -14 358 -14 q 557 8 495 -14 q 665 73 620 31 q 738 174 711 115 q 771 307 765 233 z "},"D":{"ha":833,"x_min":89,"x_max":772,"o":"m 89 0 l 347 0 q 472 16 414 0 q 579 63 531 33 q 656 129 621 90 q 718 214 692 168 q 758 325 744 264 q 772 453 772 386 l 772 533 q 757 666 772 604 q 713 780 742 728 q 651 864 688 826 q 569 928 615 902 q 463 972 521 956 q 339 987 406 987 l 89 987 l 89 0 m 267 844 l 339 844 q 408 835 376 844 q 465 812 439 827 q 525 761 500 792 q 566 689 551 729 q 586 617 579 656 q 593 534 592 578 l 593 453 q 586 368 592 408 q 567 296 579 329 q 530 229 552 258 q 479 180 508 199 q 419 152 452 162 q 347 142 386 142 l 267 142 l 267 844 z "},"E":{"ha":833,"x_min":104,"x_max":758,"o":"m 689 437 l 689 579 l 282 579 l 282 842 l 755 842 l 755 987 l 104 987 l 104 0 l 758 0 l 758 144 l 282 144 l 282 437 l 689 437 z "},"F":{"ha":833,"x_min":107,"x_max":762,"o":"m 705 414 l 705 559 l 285 559 l 285 842 l 762 842 l 762 987 l 107 987 l 107 0 l 285 0 l 285 414 l 705 414 z "},"G":{"ha":833,"x_min":61,"x_max":766,"o":"m 766 118 l 764 502 l 418 502 l 418 367 l 589 367 l 589 179 q 563 158 579 168 q 526 143 547 149 q 482 133 505 136 q 436 130 459 130 q 368 143 398 131 q 315 177 338 155 q 287 213 299 193 q 266 257 275 233 q 246 335 253 292 q 239 428 239 378 l 239 559 q 244 638 239 601 q 259 707 249 675 q 289 775 271 745 q 331 824 307 805 q 373 848 350 840 q 423 857 397 857 q 495 845 465 857 q 546 812 526 834 q 575 762 564 791 q 592 695 587 732 l 764 695 q 733 823 758 766 q 665 920 708 880 q 561 980 623 959 q 420 1001 500 1001 q 314 985 363 1001 q 224 940 265 970 q 159 876 188 913 q 108 794 130 840 q 73 685 85 744 q 61 558 61 625 l 61 428 q 74 297 61 358 q 111 185 86 235 q 165 102 133 139 q 237 39 197 65 q 325 0 277 14 q 429 -14 374 -14 q 546 -2 491 -14 q 645 31 600 10 q 715 72 685 50 q 766 118 746 95 z "},"H":{"ha":833,"x_min":86,"x_max":740,"o":"m 740 0 l 740 987 l 566 987 l 566 578 l 260 578 l 260 987 l 86 987 l 86 0 l 260 0 l 260 434 l 566 434 l 566 0 l 740 0 z "},"I":{"ha":833,"x_min":128,"x_max":705,"o":"m 128 987 l 128 843 l 325 843 l 325 144 l 128 144 l 128 0 l 705 0 l 705 144 l 503 144 l 503 843 l 705 843 l 705 987 l 128 987 z "},"J":{"ha":833,"x_min":73,"x_max":739,"o":"m 560 987 l 560 302 q 549 235 560 267 q 517 180 538 203 q 469 143 498 157 q 405 130 439 130 q 334 142 363 130 q 285 176 304 153 q 260 224 269 196 q 252 290 252 253 l 73 290 q 100 158 75 214 q 168 64 124 101 q 271 6 211 25 q 405 -14 331 -14 q 535 9 475 -14 q 641 75 596 33 q 711 175 686 117 q 739 302 737 233 l 738 987 l 560 987 z "},"K":{"ha":833,"x_min":94,"x_max":844,"o":"m 377 416 l 633 0 l 844 0 l 494 551 l 829 987 l 613 987 l 362 649 l 272 529 l 272 987 l 94 987 l 94 0 l 272 0 l 272 300 l 377 416 z "},"L":{"ha":833,"x_min":109,"x_max":753,"o":"m 286 144 l 286 987 l 109 987 l 109 0 l 753 0 l 753 144 l 286 144 z "},"M":{"ha":833,"x_min":89,"x_max":757,"o":"m 309 987 l 89 987 l 89 0 l 253 0 l 253 313 l 244 747 l 371 315 l 460 315 l 602 765 l 593 313 l 593 0 l 757 0 l 757 987 l 537 987 l 416 591 l 309 987 z "},"N":{"ha":833,"x_min":86,"x_max":739,"o":"m 739 0 l 739 987 l 562 987 l 560 332 l 264 987 l 86 987 l 86 0 l 264 0 l 265 658 l 562 0 l 739 0 z "},"O":{"ha":833,"x_min":58,"x_max":774,"o":"m 774 425 l 774 562 q 762 684 774 626 q 728 793 751 743 q 677 877 707 838 q 608 942 648 915 q 519 985 569 970 q 412 1001 469 1001 q 306 986 354 1001 q 219 943 258 970 q 150 875 180 914 q 100 789 121 836 q 69 682 79 739 q 58 562 58 624 l 58 425 q 68 310 58 365 q 96 208 77 256 q 147 116 117 157 q 216 46 178 75 q 305 2 256 18 q 412 -14 354 -14 q 515 1 468 -14 q 602 41 563 15 q 677 110 644 69 q 731 201 709 151 q 763 306 752 250 q 774 425 774 363 m 595 563 l 595 425 q 592 353 595 388 q 580 288 588 318 q 554 221 570 251 q 515 171 538 191 q 470 143 496 153 q 412 134 444 134 q 354 144 379 134 q 309 172 328 154 q 273 223 288 192 q 250 290 258 254 q 240 354 243 320 q 237 425 237 389 l 237 563 q 240 635 237 600 q 251 702 243 671 q 276 770 260 740 q 315 820 292 800 q 357 844 334 836 q 412 852 381 852 q 468 843 443 852 q 512 819 492 834 q 552 768 536 798 q 579 702 569 739 q 592 635 588 671 q 595 563 595 600 z "},"P":{"ha":833,"x_min":107,"x_max":788,"o":"m 284 369 l 441 369 q 583 392 519 370 q 692 454 646 414 q 763 550 738 494 q 788 674 788 606 q 763 803 788 745 q 692 901 738 861 q 583 965 646 942 q 441 987 519 987 l 107 987 l 107 0 l 284 0 l 284 369 m 284 513 l 284 844 l 441 844 q 514 830 482 844 q 567 794 545 817 q 599 741 588 772 q 610 673 610 709 q 599 610 610 640 q 566 559 588 581 q 513 526 545 538 q 441 513 482 513 l 284 513 z "},"Q":{"ha":833,"x_min":59,"x_max":818,"o":"m 781 404 l 781 557 q 773 659 781 610 q 749 753 765 709 q 696 858 730 810 q 617 939 663 905 q 526 985 576 968 q 415 1001 475 1001 q 306 985 356 1001 q 217 939 256 968 q 143 862 174 907 q 93 764 112 818 q 67 665 76 718 q 59 557 59 612 l 59 404 q 68 305 59 353 q 94 214 77 257 q 143 123 113 165 q 214 50 174 81 q 305 3 255 20 q 416 -14 355 -14 q 466 -10 441 -14 q 513 -1 490 -7 l 703 -173 l 818 -69 l 653 77 q 704 138 682 104 q 742 208 726 171 q 770 302 761 252 q 781 404 780 352 m 602 558 l 602 404 q 598 345 602 374 q 587 287 595 315 q 561 222 578 252 q 521 170 545 191 q 474 143 500 153 q 416 134 448 134 q 358 143 383 134 q 314 170 333 153 q 274 223 290 192 q 250 291 258 254 q 241 347 243 318 q 238 404 238 376 l 238 558 q 240 621 238 590 q 248 680 243 651 q 271 757 256 722 q 313 815 287 792 q 357 843 332 833 q 415 852 382 852 q 476 842 449 852 q 524 814 503 832 q 560 766 544 794 q 585 705 576 738 q 598 635 594 672 q 602 558 602 597 z "},"R":{"ha":833,"x_min":96,"x_max":805,"o":"m 429 376 l 616 0 l 805 0 l 805 9 l 593 419 q 667 463 634 437 q 724 522 700 488 q 760 596 747 554 q 773 690 773 638 q 748 819 773 764 q 675 911 722 875 q 563 968 628 949 q 418 987 498 987 l 96 987 l 96 0 l 273 0 l 273 376 l 429 376 m 273 520 l 273 844 l 418 844 q 491 833 459 844 q 546 804 523 823 q 583 752 570 784 q 595 680 595 721 q 585 617 595 645 q 555 569 574 589 q 497 533 532 545 q 420 520 463 520 l 273 520 z "},"S":{"ha":833,"x_min":64,"x_max":785,"o":"m 608 256 q 596 203 608 227 q 562 163 584 179 q 509 138 540 146 q 441 129 479 129 q 361 139 397 129 q 298 170 325 149 q 257 224 272 192 q 239 302 241 257 l 64 302 q 94 172 65 228 q 172 75 123 116 q 296 9 225 32 q 441 -13 368 -13 q 575 5 513 -13 q 684 57 638 22 q 758 142 731 92 q 785 257 785 192 q 751 387 785 331 q 663 484 718 443 q 575 534 623 513 q 475 570 527 555 q 393 597 431 583 q 328 631 355 612 q 284 672 300 648 q 269 728 269 696 q 281 781 269 757 q 314 823 292 805 q 366 849 336 840 q 434 859 397 859 q 508 847 476 859 q 562 814 540 835 q 595 764 583 793 q 609 699 607 734 l 783 699 q 756 821 783 766 q 684 917 730 877 q 575 979 638 957 q 437 1001 511 1001 q 303 982 366 1001 q 195 927 241 963 q 121 841 148 892 q 94 728 94 790 q 116 625 94 671 q 178 541 138 578 q 279 474 218 504 q 415 422 339 444 q 501 393 465 409 q 562 357 537 376 q 597 311 585 336 q 608 256 608 286 z "},"T":{"ha":833,"x_min":25,"x_max":808,"o":"m 808 842 l 808 987 l 25 987 l 25 842 l 327 842 l 327 0 l 503 0 l 503 842 l 808 842 z "},"U":{"ha":833,"x_min":87,"x_max":745,"o":"m 745 987 l 570 987 l 569 330 q 558 245 568 283 q 528 182 548 208 q 479 143 509 157 q 413 130 450 130 q 351 143 378 130 q 305 180 323 155 q 276 243 286 205 q 265 330 266 281 l 264 987 l 88 987 l 87 330 q 111 186 87 250 q 177 78 134 122 q 279 10 220 34 q 413 -14 339 -14 q 552 10 491 -14 q 656 79 614 34 q 722 186 699 123 q 745 330 745 250 l 745 987 z "},"V":{"ha":833,"x_min":26,"x_max":806,"o":"m 328 0 l 504 0 l 806 987 l 612 987 l 433 324 l 415 260 l 399 323 l 221 987 l 26 987 l 328 0 z "},"W":{"ha":833,"x_min":24,"x_max":815,"o":"m 157 0 l 320 0 l 410 568 l 418 617 l 425 568 l 519 0 l 682 0 l 815 987 l 652 987 l 584 408 l 579 366 l 573 407 l 482 987 l 352 987 l 265 410 l 258 370 l 254 408 l 187 987 l 24 987 l 157 0 z "},"X":{"ha":833,"x_min":28,"x_max":821,"o":"m 423 627 l 243 987 l 36 987 l 315 498 l 28 0 l 237 0 l 426 367 l 615 0 l 821 0 l 535 498 l 814 987 l 607 987 l 423 627 z "},"Y":{"ha":833,"x_min":26,"x_max":819,"o":"m 422 524 l 222 987 l 26 987 l 332 354 l 334 0 l 508 0 l 509 347 l 819 987 l 623 987 l 422 524 z "},"Z":{"ha":833,"x_min":64,"x_max":771,"o":"m 277 144 l 758 878 l 758 987 l 67 987 l 67 842 l 545 842 l 64 113 l 64 0 l 771 0 l 771 144 l 277 144 z "},"a":{"ha":833,"x_min":84,"x_max":743,"o":"m 564 0 l 743 0 l 743 12 q 721 79 728 40 q 714 172 714 118 l 714 492 q 690 604 714 556 q 626 684 667 652 q 528 731 584 715 q 406 747 471 747 q 276 729 333 747 q 180 678 220 710 q 120 605 141 646 q 100 519 100 564 l 275 519 q 282 556 275 539 q 303 586 289 574 q 341 607 318 600 q 396 614 365 614 q 458 606 431 614 q 503 581 485 597 q 530 543 521 565 q 538 494 538 522 l 538 448 l 427 448 q 284 433 347 448 q 178 390 221 418 q 108 313 132 359 q 84 205 84 266 q 103 118 84 158 q 155 48 121 77 q 236 3 189 19 q 340 -14 283 -14 q 405 -7 374 -14 q 461 12 435 0 q 507 38 486 23 q 545 71 528 54 q 552 32 547 51 q 564 0 557 14 m 375 125 q 325 132 347 125 q 289 151 303 139 q 267 181 274 163 q 259 220 259 199 q 269 268 259 246 q 298 305 279 290 q 355 331 320 322 q 438 340 389 340 l 538 340 l 538 209 q 514 178 530 193 q 478 151 499 163 q 431 132 457 139 q 375 125 406 125 z "},"b":{"ha":833,"x_min":104,"x_max":753,"o":"m 753 359 l 753 374 q 742 495 753 438 q 707 598 730 552 q 670 655 691 629 q 624 700 650 681 q 552 735 592 723 q 465 747 513 747 q 400 740 430 747 q 344 719 370 733 q 309 695 326 709 q 279 665 293 681 l 279 1042 l 104 1042 l 104 0 l 262 0 l 270 79 q 295 51 281 64 q 323 28 308 39 q 387 -3 351 8 q 467 -14 422 -14 q 550 -2 512 -14 q 620 31 589 9 q 682 92 656 56 q 724 174 708 129 q 746 261 739 214 q 753 359 753 307 m 578 374 l 578 359 q 575 303 578 330 q 566 252 572 275 q 545 195 559 220 q 508 154 530 170 q 470 136 492 142 q 422 130 449 130 q 369 137 393 130 q 328 157 345 144 q 300 183 311 168 q 279 218 288 199 l 279 516 q 296 544 286 531 q 317 568 305 557 q 361 594 336 585 q 421 604 387 604 q 468 598 447 604 q 505 581 488 592 q 543 538 530 562 q 565 486 557 515 q 575 432 572 460 q 578 374 578 404 z "},"c":{"ha":833,"x_min":83,"x_max":734,"o":"m 422 127 q 343 146 374 127 q 293 197 311 165 q 266 270 273 229 q 258 355 258 311 l 258 377 q 266 461 258 420 q 293 534 274 503 q 343 586 312 566 q 422 605 374 605 q 481 594 454 605 q 528 564 509 583 q 558 520 547 546 q 568 467 568 495 l 733 467 q 711 582 734 530 q 647 670 688 633 q 549 727 606 707 q 425 747 492 747 q 276 718 340 747 q 170 639 212 689 q 104 521 126 588 q 83 377 83 454 l 83 355 q 105 212 83 279 q 170 94 127 144 q 276 15 212 44 q 425 -14 340 -14 q 544 6 488 -14 q 642 61 600 26 q 709 143 684 96 q 733 247 734 191 l 568 247 q 557 198 568 220 q 525 160 545 176 q 478 136 505 144 q 422 127 452 127 z "},"d":{"ha":833,"x_min":80,"x_max":728,"o":"m 80 372 l 80 358 q 100 211 80 279 q 157 92 120 142 q 248 15 194 43 q 368 -14 301 -14 q 478 10 431 -14 q 561 77 526 34 l 570 0 l 728 0 l 728 1042 l 553 1042 l 553 667 q 473 726 518 705 q 369 747 429 747 q 248 720 301 747 q 157 644 194 693 q 100 525 119 594 q 80 372 80 456 m 255 358 l 255 372 q 264 463 255 420 q 292 536 273 505 q 341 586 311 568 q 414 604 371 604 q 498 581 465 604 q 553 520 532 559 l 553 214 q 498 153 532 175 q 412 130 465 130 q 340 148 370 130 q 292 197 310 165 q 263 269 272 228 q 255 358 255 311 z "},"e":{"ha":833,"x_min":79,"x_max":760,"o":"m 450 -14 q 633 28 556 -14 q 746 122 710 70 l 656 215 q 570 150 623 172 q 460 127 518 127 q 384 141 418 127 q 321 179 349 155 q 280 233 296 203 q 256 309 265 262 l 256 311 l 760 311 l 760 386 q 739 533 760 466 q 675 647 717 600 q 571 721 632 694 q 430 747 509 747 q 292 720 356 747 q 180 643 228 692 q 106 523 133 593 q 79 368 79 454 l 79 341 q 106 202 79 267 q 181 90 132 137 q 298 14 230 41 q 450 -14 366 -14 m 429 605 q 496 592 467 605 q 545 559 525 580 q 576 509 565 538 q 587 449 587 479 l 587 435 l 260 435 q 282 506 267 475 q 318 559 296 537 q 367 593 339 582 q 429 605 395 605 z "},"f":{"ha":833,"x_min":89,"x_max":779,"o":"m 283 0 l 460 0 l 460 604 l 728 604 l 728 734 l 460 734 l 460 777 q 469 839 460 812 q 497 885 478 867 q 550 917 517 906 q 630 928 583 928 q 707 923 673 928 q 766 912 741 918 l 779 1050 q 737 1059 758 1055 q 696 1065 717 1062 q 651 1070 674 1068 q 604 1072 629 1072 q 472 1053 531 1072 q 370 996 412 1034 q 306 903 329 958 q 283 777 283 848 l 283 734 l 89 734 l 89 604 l 283 604 l 283 0 z "},"g":{"ha":833,"x_min":81,"x_max":736,"o":"m 81 372 l 81 358 q 101 211 81 279 q 160 92 121 142 q 253 15 199 43 q 376 -14 308 -14 q 443 -6 412 -14 q 500 16 474 2 q 532 38 517 25 q 561 66 547 50 l 561 19 q 550 -52 561 -20 q 517 -104 538 -83 q 462 -139 495 -127 q 387 -151 429 -151 q 337 -145 361 -151 q 290 -130 313 -140 q 245 -103 267 -119 q 203 -64 223 -86 l 123 -170 q 181 -224 147 -202 q 252 -261 214 -247 q 327 -282 289 -275 q 397 -289 364 -289 q 535 -268 472 -289 q 642 -208 597 -248 q 712 -110 687 -168 q 736 22 736 -52 l 736 734 l 577 734 l 570 662 q 541 692 557 679 q 507 716 525 706 q 448 740 480 732 q 377 747 416 747 q 253 720 308 747 q 160 644 199 693 q 101 525 121 594 q 81 372 81 456 m 256 358 l 256 372 q 266 463 256 420 q 296 536 276 505 q 348 586 317 568 q 421 604 378 604 q 465 599 445 604 q 502 585 486 594 q 535 561 521 576 q 561 525 550 545 l 561 209 q 537 176 551 191 q 506 151 524 161 q 467 135 488 140 q 420 130 446 130 q 346 148 377 130 q 296 197 315 165 q 266 269 275 228 q 256 358 256 311 z "},"h":{"ha":833,"x_min":100,"x_max":747,"o":"m 275 631 l 275 1042 l 100 1042 l 100 0 l 275 0 l 275 530 q 301 559 287 546 q 332 581 315 572 q 375 598 352 593 q 426 604 399 604 q 487 595 460 604 q 533 567 514 586 q 562 519 551 548 q 572 449 572 490 l 572 0 l 747 0 l 747 448 q 728 584 747 527 q 674 677 709 640 q 592 730 640 713 q 486 747 544 747 q 410 735 446 747 q 345 703 374 724 q 308 670 325 688 q 275 631 290 652 z "},"i":{"ha":833,"x_min":144,"x_max":746,"o":"m 144 734 l 144 589 l 361 589 l 361 144 l 144 144 l 144 0 l 746 0 l 746 144 l 538 144 l 538 734 l 144 734 m 347 922 q 357 880 347 899 q 387 851 368 861 q 426 839 406 840 q 465 844 446 837 q 527 872 505 847 q 547 934 549 897 q 518 994 545 971 q 449 1017 492 1017 q 407 1010 426 1017 q 376 991 389 1004 q 355 961 362 979 q 347 922 347 943 z "},"j":{"ha":833,"x_min":149,"x_max":594,"o":"m 207 734 l 207 589 l 405 589 l 405 -14 q 394 -79 405 -53 q 365 -121 383 -105 q 320 -144 346 -137 q 266 -151 295 -151 q 244 -150 259 -151 q 214 -149 230 -150 q 183 -146 198 -148 q 159 -142 168 -144 l 149 -285 q 176 -290 163 -288 q 203 -293 189 -292 q 239 -296 220 -295 q 275 -296 257 -296 q 405 -279 348 -296 q 501 -227 462 -262 q 561 -140 541 -193 q 582 -14 582 -87 l 582 734 l 207 734 m 391 923 q 418 855 391 882 q 492 828 445 828 q 567 855 539 828 q 594 923 594 882 q 567 990 594 964 q 492 1017 539 1017 q 417 990 444 1017 q 391 923 391 962 z "},"k":{"ha":833,"x_min":102,"x_max":802,"o":"m 365 311 l 585 0 l 802 0 l 481 428 l 762 734 l 551 734 l 340 507 l 277 437 l 277 1042 l 102 1042 l 102 0 l 277 0 l 277 230 l 365 311 z "},"l":{"ha":833,"x_min":136,"x_max":755,"o":"m 136 1042 l 136 897 l 361 897 l 361 144 l 136 144 l 136 0 l 755 0 l 755 144 l 538 144 l 538 1042 l 136 1042 z "},"m":{"ha":833,"x_min":54,"x_max":775,"o":"m 205 734 l 54 734 l 54 0 l 214 0 l 214 557 q 222 574 218 566 q 233 587 227 582 q 252 600 241 595 q 277 604 263 604 q 301 600 290 604 q 320 589 312 597 q 332 566 328 581 q 336 530 336 551 l 336 0 l 492 0 l 492 543 q 492 554 492 550 q 492 561 492 559 q 500 578 495 570 q 513 591 505 585 q 531 600 521 597 q 554 604 541 604 q 578 600 567 604 q 597 589 589 597 q 610 565 605 580 q 614 530 614 551 l 614 0 l 775 0 l 775 529 q 763 630 775 588 q 730 698 751 671 q 679 735 708 724 q 616 747 650 747 q 566 741 589 747 q 526 722 544 734 q 499 699 511 712 q 477 669 487 686 q 463 700 471 686 q 441 722 454 713 q 405 741 426 735 q 357 747 384 747 q 268 721 305 747 q 210 649 231 694 l 205 734 z "},"n":{"ha":833,"x_min":100,"x_max":745,"o":"m 100 0 l 276 0 l 276 522 q 299 553 286 539 q 328 577 312 567 q 371 597 347 590 q 424 604 395 604 q 485 597 458 604 q 530 572 511 590 q 559 526 549 555 q 570 452 570 496 l 570 0 l 745 0 l 745 454 q 726 589 745 533 q 675 680 708 644 q 594 731 641 715 q 492 747 548 747 q 410 735 449 747 q 339 700 372 723 q 302 669 319 686 q 270 631 285 652 l 259 734 l 100 734 l 100 0 z "},"o":{"ha":833,"x_min":73,"x_max":760,"o":"m 73 374 l 73 359 q 96 211 73 279 q 163 92 119 142 q 271 14 207 42 q 417 -14 335 -14 q 562 14 498 -14 q 670 92 626 42 q 736 211 713 142 q 760 359 760 279 l 760 374 q 736 522 760 454 q 670 640 713 590 q 562 719 625 690 q 416 747 498 747 q 271 719 334 747 q 163 640 207 690 q 96 522 119 590 q 73 374 73 454 m 248 359 l 248 374 q 257 462 248 420 q 288 536 267 504 q 340 587 308 568 q 416 605 372 605 q 492 587 460 605 q 545 536 524 568 q 574 462 564 504 q 584 374 584 420 l 584 359 q 574 269 584 311 q 545 196 564 227 q 492 145 524 163 q 417 127 460 127 q 340 145 372 127 q 288 196 308 163 q 257 269 267 227 q 248 359 248 311 z "},"p":{"ha":833,"x_min":102,"x_max":751,"o":"m 102 -282 l 277 -282 l 277 65 q 305 39 291 51 q 336 18 319 27 q 395 -5 363 3 q 465 -14 427 -14 q 587 15 534 -14 q 677 94 641 43 q 732 212 713 143 q 751 359 751 280 l 751 374 q 732 526 751 457 q 677 644 713 595 q 587 720 640 693 q 463 747 533 747 q 397 740 428 747 q 341 719 366 732 q 303 693 321 708 q 271 660 286 679 l 264 734 l 102 734 l 102 -282 m 576 374 l 576 360 q 567 271 576 313 q 539 197 558 229 q 490 146 520 165 q 417 127 459 127 q 369 133 391 127 q 330 149 347 139 q 300 175 313 160 q 277 208 287 190 l 277 524 q 302 559 288 545 q 334 585 316 574 q 371 599 351 594 q 416 604 391 604 q 489 586 458 604 q 538 537 519 568 q 567 464 557 506 q 576 374 576 422 z "},"q":{"ha":833,"x_min":81,"x_max":729,"o":"m 81 373 l 81 359 q 100 211 81 279 q 157 93 119 142 q 247 15 193 43 q 370 -14 301 -14 q 432 -7 404 -14 q 486 12 461 -1 q 521 34 504 21 q 553 63 538 47 l 553 -282 l 729 -282 l 729 734 l 574 734 l 564 660 q 533 691 549 677 q 498 716 517 705 q 440 739 472 731 q 372 747 409 747 q 248 720 302 747 q 156 644 193 693 q 100 525 119 594 q 81 373 81 456 m 256 359 l 256 373 q 265 463 256 421 q 294 537 274 505 q 343 587 313 568 q 416 605 374 605 q 462 600 441 605 q 500 585 483 595 q 530 561 517 575 q 553 529 543 547 l 553 206 q 529 173 543 188 q 499 148 516 158 q 461 133 482 138 q 414 127 440 127 q 342 146 372 127 q 293 197 312 165 q 264 270 273 228 q 256 359 256 311 z "},"r":{"ha":833,"x_min":201,"x_max":753,"o":"m 618 747 q 480 712 543 747 q 373 614 418 676 l 372 631 l 364 734 l 201 734 l 201 0 l 376 0 l 376 447 q 408 503 389 479 q 455 543 428 527 q 510 565 479 557 q 580 572 541 572 q 653 568 615 572 q 728 555 690 564 l 753 729 q 695 742 732 736 q 618 747 659 747 z "},"s":{"ha":833,"x_min":90,"x_max":747,"o":"m 576 200 q 568 169 576 183 q 545 142 560 154 q 497 122 526 130 q 427 115 467 115 q 367 121 397 115 q 314 141 338 127 q 276 177 291 155 q 258 231 261 199 l 90 231 q 112 142 90 186 q 176 64 134 98 q 281 7 218 28 q 425 -14 343 -14 q 557 2 497 -14 q 659 48 617 19 q 724 119 701 78 q 747 208 747 159 q 725 297 747 260 q 662 361 703 334 q 566 405 622 388 q 443 434 509 422 q 365 451 395 441 q 317 473 334 460 q 291 499 298 484 q 284 530 284 513 q 293 564 284 548 q 317 591 301 579 q 360 611 334 604 q 423 618 387 618 q 492 608 463 618 q 540 581 522 597 q 562 549 554 566 q 569 512 569 532 l 744 512 q 722 605 744 562 q 659 680 700 648 q 557 729 617 711 q 423 747 498 747 q 295 729 352 747 q 197 680 237 711 q 136 609 157 650 q 115 523 115 568 q 136 440 115 476 q 195 378 157 405 q 285 332 232 351 q 402 300 338 313 q 487 280 453 290 q 541 258 520 270 q 569 232 561 246 q 576 200 576 218 z "},"t":{"ha":833,"x_min":87,"x_max":742,"o":"m 436 913 l 260 913 l 260 734 l 87 734 l 87 604 l 260 604 l 260 256 q 279 134 260 184 q 332 50 298 83 q 414 1 366 17 q 519 -14 462 -14 q 582 -11 551 -14 q 643 -3 614 -8 q 697 11 672 3 q 742 30 723 19 l 724 151 q 693 144 711 148 q 655 138 675 141 q 611 133 634 135 q 568 130 589 130 q 514 137 538 130 q 472 161 490 144 q 446 203 455 176 q 436 271 436 230 l 436 604 l 711 604 l 711 734 l 436 734 l 436 913 z "},"u":{"ha":833,"x_min":106,"x_max":739,"o":"m 580 0 l 739 0 l 739 734 l 563 734 l 563 216 q 541 182 554 198 q 512 156 528 167 q 466 136 492 143 q 408 130 440 130 q 350 138 374 130 q 311 166 326 146 q 289 218 296 185 q 281 298 281 250 l 281 734 l 106 734 l 106 299 q 124 157 106 216 q 177 60 143 98 q 258 3 210 21 q 362 -14 305 -14 q 480 17 427 -14 q 570 102 533 48 l 580 0 z "},"v":{"ha":833,"x_min":52,"x_max":780,"o":"m 337 0 l 497 0 l 780 734 l 597 734 l 428 209 l 417 159 l 407 209 l 235 734 l 52 734 l 337 0 z "},"w":{"ha":833,"x_min":21,"x_max":803,"o":"m 158 0 l 309 0 l 395 404 l 410 487 l 427 404 l 515 0 l 666 0 l 803 734 l 643 734 l 583 294 l 572 213 l 557 293 l 470 734 l 353 734 l 267 291 l 252 214 l 242 291 l 181 734 l 21 734 l 158 0 z "},"x":{"ha":833,"x_min":63,"x_max":798,"o":"m 429 496 l 263 734 l 73 734 l 323 373 l 63 0 l 256 0 l 430 248 l 606 0 l 798 0 l 537 373 l 789 734 l 598 734 l 429 496 z "},"y":{"ha":833,"x_min":37,"x_max":823,"o":"m 204 -296 q 301 -277 260 -296 q 370 -231 342 -258 q 419 -171 399 -203 q 451 -111 439 -138 l 823 734 l 629 734 l 457 293 l 428 217 l 405 295 l 230 734 l 37 734 l 349 32 l 304 -52 q 290 -78 296 -67 q 269 -106 283 -89 q 238 -137 256 -123 q 197 -151 220 -151 q 169 -150 186 -151 q 138 -149 151 -149 l 116 -283 q 158 -293 138 -290 q 204 -296 179 -296 z "},"z":{"ha":833,"x_min":86,"x_max":763,"o":"m 323 141 l 744 626 l 744 734 l 95 734 l 95 591 l 503 591 l 86 111 l 86 0 l 763 0 l 763 141 l 323 141 z "},"¹":{"ha":833,"x_min":266,"x_max":528,"o":"m 528 448 l 528 981 l 515 981 l 266 901 l 266 798 l 399 829 l 399 448 l 528 448 z "},"²":{"ha":833,"x_min":205,"x_max":633,"o":"m 633 452 l 633 555 l 387 555 l 474 626 q 536 679 509 655 q 581 727 562 703 q 607 775 598 751 q 616 829 616 800 q 605 893 616 865 q 572 943 593 922 q 505 982 546 968 q 411 995 464 995 q 325 980 363 995 q 260 941 287 966 q 219 882 233 916 q 205 811 205 849 l 335 811 q 340 842 335 827 q 355 866 345 856 q 380 884 364 878 q 416 890 395 890 q 447 886 433 890 q 469 873 460 881 q 481 853 477 865 q 486 828 486 842 q 480 803 486 817 q 463 772 475 789 q 441 746 454 760 q 412 717 429 732 l 217 540 l 217 452 l 633 452 z "},"³":{"ha":833,"x_min":203,"x_max":633,"o":"m 351 768 l 351 680 l 410 680 q 451 675 433 680 q 480 662 469 671 q 496 642 491 654 q 502 612 502 630 q 497 588 502 600 q 484 568 493 577 q 458 554 474 559 q 420 548 442 548 q 382 553 399 548 q 354 568 366 559 q 339 586 345 576 q 334 608 334 597 l 203 608 q 221 533 203 564 q 271 482 240 502 q 337 453 300 462 q 412 444 374 444 q 499 455 459 444 q 570 486 539 465 q 616 534 599 505 q 633 602 633 564 q 625 650 633 629 q 603 686 617 671 q 572 710 590 700 q 531 726 553 720 q 564 742 549 732 q 590 762 579 751 q 614 798 606 778 q 623 841 623 818 q 607 907 623 878 q 564 956 591 936 q 498 984 536 975 q 412 994 459 994 q 335 984 372 994 q 272 956 299 975 q 228 907 244 936 q 212 842 212 879 l 342 842 q 347 862 342 853 q 362 876 353 870 q 386 886 372 883 q 416 890 400 890 q 451 885 437 890 q 475 872 466 880 q 489 854 484 864 q 493 832 493 844 q 487 804 493 817 q 468 783 481 791 q 443 772 458 775 q 410 768 429 768 l 351 768 z "},"ª":{"ha":833,"x_min":186,"x_max":640,"o":"m 521 478 l 640 478 q 626 538 630 508 q 622 601 622 568 l 622 814 q 608 896 622 861 q 568 954 593 930 q 505 989 541 977 q 425 1001 469 1001 q 338 989 376 1001 q 272 956 299 977 q 229 906 244 935 q 214 843 214 878 l 330 833 q 334 859 330 848 q 348 879 339 871 q 379 896 360 890 q 425 902 399 902 q 460 896 445 902 q 485 880 475 890 q 500 852 495 868 q 505 814 505 836 l 505 780 l 411 780 q 317 770 358 780 q 247 742 275 760 q 202 692 218 722 q 186 623 186 662 q 198 559 186 588 q 231 511 209 531 q 283 479 252 490 q 355 469 315 469 q 409 475 385 469 q 453 492 433 481 q 484 515 471 503 q 507 543 497 528 q 512 509 509 525 q 521 478 516 493 m 384 566 q 346 570 362 566 q 320 584 330 574 q 308 602 312 591 q 304 626 304 612 q 310 654 304 641 q 330 677 317 667 q 364 695 344 688 q 412 701 385 701 l 505 701 l 505 631 q 487 607 499 618 q 458 587 474 595 q 421 571 440 577 q 384 566 402 566 z "},"º":{"ha":833,"x_min":181,"x_max":650,"o":"m 181 774 l 181 694 q 198 604 181 646 q 245 532 214 562 q 319 485 275 502 q 416 468 362 468 q 514 485 471 468 q 588 532 557 502 q 634 604 618 562 q 650 694 650 646 l 650 774 q 634 865 650 823 q 587 937 618 907 q 513 984 557 967 q 416 1001 470 1001 q 318 984 361 1001 q 244 937 275 967 q 197 865 214 907 q 181 774 181 823 m 298 694 l 298 774 q 306 824 298 801 q 328 865 313 848 q 364 892 342 882 q 415 902 386 902 q 467 892 445 902 q 504 865 489 882 q 526 824 519 848 q 533 774 533 801 l 533 694 q 526 643 533 667 q 504 603 519 620 q 468 576 490 585 q 417 566 446 566 q 364 576 387 566 q 328 603 342 585 q 306 643 313 620 q 298 694 298 667 z "},"½":{"ha":833,"x_min":18,"x_max":814,"o":"m 254 509 l 254 989 l 242 989 l 18 916 l 18 825 l 138 853 l 138 509 l 254 509 m 814 0 l 814 93 l 591 93 l 671 157 q 726 204 702 182 q 766 248 749 226 q 790 291 782 269 q 798 339 798 313 q 787 400 798 373 q 754 446 776 427 q 694 477 730 467 q 614 488 659 488 q 536 475 570 488 q 477 440 502 462 q 440 387 453 417 q 428 323 428 357 l 545 323 q 549 349 545 336 q 561 371 553 361 q 585 388 570 382 q 618 394 599 394 q 647 390 635 394 q 667 376 659 385 q 677 359 673 369 q 681 338 681 349 q 676 317 681 329 q 662 290 672 304 q 642 265 654 278 q 614 238 630 252 l 439 79 l 439 0 l 814 0 m 239 157 l 587 795 l 500 841 l 153 203 l 239 157 z "},"¼":{"ha":833,"x_min":41,"x_max":793,"o":"m 277 509 l 277 989 l 266 989 l 41 916 l 41 825 l 161 853 l 161 509 l 277 509 m 735 194 l 735 481 l 617 481 l 397 175 l 403 99 l 617 99 l 617 0 l 735 0 l 735 99 l 793 99 l 793 194 l 735 194 m 509 194 l 610 322 l 617 334 l 617 194 l 509 194 m 285 157 l 632 795 l 545 841 l 199 203 l 285 157 z "},"¾":{"ha":833,"x_min":23,"x_max":823,"o":"m 766 194 l 766 481 l 648 481 l 427 175 l 433 99 l 648 99 l 648 0 l 766 0 l 766 99 l 823 99 l 823 194 l 766 194 m 540 194 l 640 322 l 648 334 l 648 194 l 540 194 m 156 789 l 156 710 l 210 710 q 250 705 233 710 q 278 690 267 700 q 288 672 284 682 q 292 649 292 663 q 288 628 292 638 q 276 610 284 617 q 253 596 267 602 q 218 591 239 591 q 184 596 199 591 q 159 609 169 602 q 146 626 151 616 q 141 646 141 635 l 23 646 q 40 578 23 606 q 84 532 57 550 q 144 506 111 514 q 212 498 178 498 q 290 507 254 498 q 353 535 326 517 q 395 579 380 553 q 410 640 410 606 q 402 686 410 666 q 378 721 394 707 q 352 739 367 731 q 318 751 337 746 q 347 765 334 757 q 370 782 359 772 q 393 814 385 796 q 401 855 401 833 q 387 915 401 888 q 348 958 373 941 q 289 984 323 975 q 212 993 254 993 q 142 984 175 993 q 85 958 110 975 q 46 915 60 941 q 31 857 31 889 l 148 857 q 152 873 148 865 q 165 886 157 880 q 187 895 174 892 q 215 899 200 899 q 247 894 234 899 q 269 883 260 890 q 280 866 277 875 q 284 847 284 857 q 279 823 284 833 q 265 804 275 812 q 242 793 256 798 q 210 789 228 789 l 156 789 m 340 157 l 686 795 l 600 841 l 253 203 l 340 157 z "},"Æ":{"ha":833,"x_min":31,"x_max":801,"o":"m 801 0 l 801 142 l 606 142 l 606 437 l 765 437 l 765 581 l 606 581 l 606 844 l 786 844 l 786 987 l 367 987 l 31 0 l 210 0 l 277 229 l 438 229 l 438 0 l 801 0 m 322 382 l 437 768 l 438 382 l 322 382 z "},"æ":{"ha":833,"x_min":31,"x_max":810,"o":"m 593 -14 q 659 -9 628 -14 q 715 4 689 -4 q 760 21 741 12 q 792 41 780 31 l 756 163 q 729 151 743 157 q 701 140 715 144 q 666 131 685 134 q 624 127 648 127 q 578 132 598 127 q 545 146 559 137 q 521 167 530 155 q 506 193 511 178 q 498 221 501 205 q 496 253 496 236 l 496 314 l 810 314 l 810 479 q 794 590 810 541 q 750 675 779 640 q 680 729 721 710 q 587 747 638 747 q 532 743 558 748 q 486 727 507 737 q 457 712 470 721 q 432 692 444 703 q 408 712 420 703 q 381 727 395 720 q 331 742 358 737 q 273 747 304 747 q 178 732 220 747 q 106 690 136 717 q 61 623 77 662 q 45 534 45 583 l 211 528 q 214 560 211 547 q 225 583 218 574 q 248 600 234 595 q 280 605 262 605 q 304 601 294 605 q 321 590 314 597 q 336 563 331 580 q 340 522 340 545 l 340 437 l 330 437 q 188 418 248 437 q 90 362 127 399 q 46 291 61 332 q 31 199 31 250 q 45 112 31 151 q 86 45 59 72 q 152 2 113 17 q 243 -14 191 -14 q 296 -7 271 -14 q 340 12 320 0 q 377 39 361 23 q 406 71 393 54 q 433 42 418 55 q 465 18 448 28 q 523 -6 491 2 q 593 -14 555 -14 m 286 117 q 249 123 264 117 q 224 140 234 130 q 210 165 214 151 q 205 197 205 180 q 213 243 205 221 q 238 283 222 266 q 278 309 254 299 q 332 319 301 319 l 340 319 q 341 273 340 291 q 341 231 341 255 q 341 189 341 206 q 341 143 341 172 q 332 135 337 139 q 320 127 326 130 q 303 120 312 123 q 286 117 294 117 m 648 435 l 496 435 l 496 478 q 497 508 496 494 q 501 536 498 523 q 512 568 505 554 q 530 591 519 582 q 550 602 538 598 q 576 605 562 605 q 608 598 595 605 q 630 581 621 592 q 643 551 639 568 q 648 514 648 534 l 648 435 z "},"Œ":{"ha":833,"x_min":50,"x_max":807,"o":"m 807 0 l 807 146 l 557 146 l 557 444 l 765 444 l 765 581 l 557 581 l 557 850 l 800 850 l 800 987 l 521 987 q 432 997 478 993 q 338 1002 386 1002 q 221 980 275 1002 q 130 915 168 959 q 71 805 92 871 q 50 650 50 739 l 50 337 q 71 182 50 248 q 131 73 92 116 q 222 7 169 28 q 340 -14 276 -14 q 433 -10 387 -14 q 521 0 478 -5 l 807 0 m 340 132 q 283 141 308 132 q 241 174 258 151 q 214 237 223 197 q 205 337 205 277 l 205 652 q 214 754 205 713 q 240 819 223 795 q 282 853 257 844 q 338 863 307 863 q 370 863 354 863 q 402 861 387 862 l 402 134 q 371 132 387 133 q 340 132 355 132 z "},"œ":{"ha":833,"x_min":27,"x_max":806,"o":"m 27 434 l 27 298 q 43 167 27 225 q 91 69 60 109 q 168 8 122 29 q 272 -14 213 -14 q 333 -7 304 -14 q 384 14 361 0 q 411 32 398 22 q 435 56 424 43 q 459 34 446 44 q 486 16 473 24 q 546 -6 513 1 q 614 -14 578 -14 q 670 -8 644 -14 q 716 5 695 -3 q 749 24 734 14 q 776 45 764 34 l 736 159 q 713 147 724 153 q 690 137 703 141 q 663 130 677 132 q 629 127 648 127 q 585 135 604 127 q 552 157 566 142 q 535 182 543 167 q 524 214 528 197 q 517 248 519 230 q 515 287 515 266 l 515 314 l 806 314 l 806 456 q 791 575 806 522 q 747 667 777 629 q 676 726 718 705 q 579 747 633 747 q 526 742 551 748 q 479 722 500 735 q 453 705 465 715 q 430 682 441 695 q 409 702 420 693 q 385 718 397 711 q 332 740 361 732 q 271 747 304 747 q 167 726 212 747 q 90 663 121 704 q 43 565 59 623 q 27 434 27 507 m 193 298 l 193 435 q 197 506 193 474 q 210 559 201 538 q 234 593 219 581 q 271 605 249 605 q 309 593 293 605 q 333 559 324 581 q 340 538 337 550 q 345 514 342 527 q 349 477 348 497 q 350 435 350 457 l 350 298 q 349 253 350 274 q 345 214 347 231 q 337 182 342 197 q 325 157 332 168 q 303 135 316 142 q 272 127 290 127 q 237 137 252 127 q 214 163 223 146 q 198 219 203 185 q 193 298 193 254 m 579 605 q 607 598 595 605 q 626 578 618 591 q 638 543 634 564 q 642 496 642 522 l 642 439 l 515 439 l 515 453 q 516 493 515 475 q 519 528 517 512 q 528 564 523 550 q 541 587 533 578 q 557 601 547 596 q 579 605 567 605 z "},"ð":{"ha":833,"x_min":31,"x_max":742,"o":"m 602 861 l 727 930 l 675 1005 l 535 927 q 442 988 492 963 q 336 1028 392 1014 l 280 889 q 330 868 305 880 q 379 840 355 856 l 232 758 l 284 684 l 452 777 q 509 696 484 742 q 548 593 533 650 q 464 640 511 623 q 364 657 416 657 q 226 633 288 657 q 122 564 165 608 q 54 456 78 519 q 31 317 31 393 q 56 188 31 248 q 127 83 81 127 q 237 12 173 37 q 379 -14 302 -14 q 474 -2 429 -14 q 558 33 519 9 q 643 102 606 60 q 705 201 681 145 q 732 290 722 241 q 742 391 742 338 l 742 437 q 705 675 742 569 q 602 861 668 782 m 382 127 q 307 142 340 127 q 253 185 275 158 q 218 245 230 211 q 206 317 206 279 q 217 395 206 357 q 250 460 229 432 q 302 505 272 488 q 372 522 332 522 q 495 501 446 522 q 566 452 544 479 q 566 434 566 439 q 566 422 566 428 l 566 378 q 561 313 566 344 q 547 256 556 283 q 518 199 536 224 q 476 156 500 174 q 433 135 456 142 q 382 127 409 127 z "},"Þ":{"ha":833,"x_min":97,"x_max":788,"o":"m 273 987 l 97 987 l 97 0 l 273 0 l 273 199 l 433 199 q 585 222 519 199 q 696 285 651 244 q 765 379 741 324 q 788 500 788 435 q 765 621 788 566 q 696 716 741 676 q 585 778 651 755 q 433 800 519 800 l 273 800 l 273 987 m 273 659 l 433 659 q 515 645 481 659 q 571 610 549 632 q 602 559 592 588 q 612 499 612 530 q 602 440 612 469 q 571 389 592 411 q 515 354 549 368 q 433 341 481 341 l 273 341 l 273 659 z "},"þ":{"ha":833,"x_min":102,"x_max":751,"o":"m 751 360 l 751 374 q 733 526 751 457 q 678 644 714 595 q 588 720 642 693 q 465 747 534 747 q 401 741 431 747 q 347 722 372 734 q 310 698 328 711 q 277 667 293 684 l 277 1048 l 102 1048 l 102 -282 l 277 -282 l 277 66 q 304 41 290 52 q 332 20 317 29 q 393 -5 360 3 q 466 -14 427 -14 q 588 15 535 -14 q 678 94 642 43 q 733 212 714 143 q 751 360 751 280 m 576 374 l 576 360 q 567 271 576 313 q 540 197 559 229 q 491 146 521 165 q 418 127 460 127 q 369 134 391 127 q 330 150 347 140 q 300 176 313 161 q 277 209 287 191 l 277 524 q 303 561 288 545 q 338 587 318 576 q 373 599 353 595 q 417 604 393 604 q 489 586 459 604 q 538 537 519 568 q 567 464 557 506 q 576 374 576 422 z "},"ĸ":{"ha":833,"x_min":112,"x_max":809,"o":"m 398 296 l 585 0 l 809 0 l 522 425 l 793 734 l 574 734 l 360 490 l 287 404 l 287 734 l 112 734 l 112 0 l 287 0 l 287 202 l 398 296 z "},"ß":{"ha":833,"x_min":111,"x_max":789,"o":"m 286 0 l 286 729 q 301 827 286 789 q 343 884 317 866 q 381 908 360 901 q 425 910 403 914 q 458 896 442 907 q 484 866 473 884 q 500 829 494 850 q 503 785 505 809 q 491 730 500 753 q 469 686 481 707 q 440 630 453 660 q 427 557 427 600 q 441 479 427 513 q 476 419 455 446 q 521 370 496 392 q 566 326 545 347 q 600 280 586 304 q 614 228 614 256 q 608 185 614 204 q 588 153 601 166 q 559 134 576 140 q 519 127 542 127 q 473 131 496 127 q 431 141 450 135 q 395 154 411 146 q 368 168 379 161 l 333 27 q 369 10 347 18 q 417 -3 391 2 q 471 -11 443 -8 q 526 -14 500 -14 q 637 2 588 -14 q 720 49 686 18 q 771 126 753 80 q 789 233 789 173 q 775 310 789 275 q 741 372 762 344 q 696 424 720 400 q 652 471 672 448 q 617 515 631 493 q 603 563 603 538 q 614 626 603 601 q 641 674 626 650 q 667 730 654 698 q 680 814 680 762 q 658 922 680 876 q 601 998 637 968 q 517 1044 565 1029 q 416 1059 469 1059 q 293 1037 349 1059 q 197 975 237 1016 q 133 872 156 933 q 111 731 111 810 l 111 0 l 286 0 z "},"ə":{"ha":833,"x_min":109,"x_max":770,"o":"m 412 748 q 318 741 361 748 q 238 721 274 733 q 174 693 202 709 q 127 661 146 678 l 179 547 q 221 570 199 559 q 269 589 243 581 q 327 602 296 597 q 398 606 359 606 q 477 592 443 606 q 536 552 511 577 q 573 495 559 528 q 592 425 587 463 q 592 421 592 422 q 592 419 592 420 l 109 419 l 109 317 q 129 182 109 243 q 191 78 150 121 q 291 11 231 35 q 431 -13 351 -13 q 568 14 506 -14 q 675 92 630 42 q 745 210 720 142 q 770 358 770 278 l 770 386 q 745 529 770 463 q 674 644 720 595 q 561 720 627 692 q 412 748 495 748 m 431 128 q 363 140 392 128 q 317 171 335 151 q 290 218 299 191 q 281 277 281 245 l 281 294 l 589 294 q 570 228 583 258 q 537 176 557 197 q 491 141 517 153 q 431 128 464 128 z "},"$":{"ha":833,"x_min":91,"x_max":766,"o":"m 591 258 q 582 207 591 231 q 555 167 572 184 q 505 139 535 149 q 435 129 475 129 q 374 137 404 129 q 321 165 344 146 q 282 219 296 186 q 267 304 267 253 l 91 304 q 116 166 91 223 q 181 71 140 109 q 275 14 222 33 q 385 -12 328 -6 l 385 -144 l 491 -144 l 491 -12 q 604 15 553 -5 q 692 71 655 36 q 747 152 728 104 q 766 260 766 200 q 746 371 766 323 q 686 454 725 418 q 593 517 648 490 q 471 569 538 544 q 392 602 424 585 q 340 637 360 618 q 312 677 321 656 q 304 728 304 699 q 312 779 304 755 q 337 821 320 803 q 381 848 354 838 q 444 857 408 857 q 502 847 476 857 q 547 816 528 836 q 578 760 567 793 q 589 682 589 726 l 764 682 q 745 808 764 752 q 691 904 726 863 q 610 966 657 942 q 505 998 563 990 l 505 1145 l 397 1145 l 397 999 q 287 971 337 993 q 203 914 237 949 q 148 832 168 880 q 129 727 129 785 q 150 615 129 663 q 211 532 172 568 q 305 469 250 496 q 427 418 360 442 q 503 387 471 404 q 555 352 534 371 q 583 310 574 333 q 591 258 591 287 z "},"¢":{"ha":833,"x_min":97,"x_max":748,"o":"m 437 127 q 357 146 389 127 q 307 197 325 165 q 280 270 288 229 q 273 355 273 311 l 273 377 q 280 461 273 420 q 307 534 288 503 q 357 586 326 566 q 436 605 389 605 q 495 594 468 605 q 542 564 523 583 q 572 520 562 546 q 581 467 583 495 l 747 467 q 730 569 748 522 q 680 652 712 615 q 601 710 646 687 q 500 743 555 734 l 500 894 l 366 894 l 366 741 q 249 696 300 729 q 165 614 199 663 q 114 506 132 566 q 97 377 97 445 l 97 355 q 114 227 97 288 q 165 118 132 166 q 249 37 199 70 q 366 -8 300 4 l 366 -166 l 500 -166 l 500 -9 q 597 23 551 0 q 676 79 642 45 q 728 155 709 113 q 747 247 747 198 l 581 247 q 571 198 583 220 q 539 160 559 176 q 492 136 519 144 q 437 127 466 127 z "},"£":{"ha":833,"x_min":78,"x_max":792,"o":"m 366 403 l 572 403 l 572 543 l 361 543 l 355 705 q 365 771 355 742 q 391 819 374 800 q 430 848 408 838 q 480 858 453 858 q 530 851 506 858 q 572 828 553 844 q 600 787 589 812 q 610 725 610 762 l 781 725 q 762 838 781 787 q 704 925 742 889 q 611 981 666 962 q 485 1001 555 1001 q 361 981 417 1001 q 264 924 304 961 q 201 830 223 885 q 178 705 178 775 l 184 543 l 78 543 l 78 403 l 188 403 l 192 281 q 190 238 192 260 q 182 195 188 215 q 165 161 176 176 q 138 142 155 146 l 80 142 l 80 0 l 792 0 l 792 142 l 328 142 q 344 167 337 155 q 356 194 351 180 q 367 238 363 215 q 370 288 370 262 l 366 403 z "},"¥":{"ha":833,"x_min":16,"x_max":826,"o":"m 330 0 l 507 0 l 507 200 l 740 200 l 740 306 l 507 306 l 507 396 l 740 396 l 740 503 l 561 503 l 826 987 l 630 987 l 442 602 l 422 559 l 420 559 l 401 602 l 212 987 l 16 987 l 281 503 l 92 503 l 92 396 l 330 396 l 330 306 l 92 306 l 92 200 l 330 200 l 330 0 z "},"ƒ":{"ha":833,"x_min":102,"x_max":762,"o":"m 634 604 l 634 734 l 493 734 l 493 790 q 502 848 493 823 q 529 890 511 873 q 579 918 549 909 q 652 928 610 928 q 704 922 681 928 q 745 907 727 917 l 762 1044 q 696 1064 728 1056 q 630 1072 664 1072 q 499 1054 557 1072 q 401 1000 441 1035 q 339 911 361 964 q 317 790 317 859 l 317 734 l 206 734 l 206 604 l 317 604 l 317 -14 q 309 -83 317 -54 q 281 -130 300 -113 q 251 -148 269 -142 q 210 -154 233 -154 q 160 -149 193 -154 q 112 -132 127 -143 l 102 -271 q 164 -291 134 -286 q 227 -296 195 -296 q 338 -278 289 -296 q 422 -224 388 -260 q 475 -135 456 -188 q 493 -14 493 -83 l 493 604 l 634 604 z "},"₣":{"ha":833,"x_min":3,"x_max":762,"o":"m 705 414 l 705 559 l 285 559 l 285 842 l 762 842 l 762 987 l 107 987 l 107 0 l 285 0 l 285 414 l 705 414 m 464 157 l 464 275 l 3 275 l 3 157 l 464 157 z "},"₤":{"ha":833,"x_min":75,"x_max":788,"o":"m 566 318 l 566 418 l 361 418 l 358 498 l 566 498 l 566 598 l 354 598 l 351 705 q 360 771 351 742 q 387 819 370 800 q 426 848 403 838 q 475 858 448 858 q 525 851 501 858 q 567 828 549 844 q 596 787 585 812 q 606 725 606 762 l 777 725 q 757 838 777 787 q 700 925 737 889 q 607 981 662 962 q 480 1001 551 1001 q 357 981 413 1001 q 260 924 300 961 q 197 830 219 885 q 174 705 174 775 l 178 598 l 75 598 l 75 498 l 180 498 l 183 418 l 75 418 l 75 318 l 186 318 l 188 281 q 186 238 188 260 q 178 195 184 215 q 161 161 172 176 q 134 142 151 146 l 76 142 l 76 0 l 788 0 l 788 142 l 323 142 q 341 170 334 155 q 354 199 349 184 q 364 241 361 219 q 366 288 367 264 l 365 318 l 566 318 z "},"₧":{"ha":833,"x_min":84,"x_max":817,"o":"m 803 633 l 803 734 l 684 734 l 684 910 l 551 910 l 551 734 l 493 734 q 470 836 488 789 q 422 917 452 883 q 351 969 392 950 q 257 987 309 987 l 84 987 l 84 0 l 218 0 l 218 382 l 257 382 q 350 400 309 382 q 421 452 391 418 q 469 531 451 485 q 493 633 487 577 l 551 633 l 551 203 q 563 103 551 144 q 598 36 576 62 q 650 -2 620 9 q 715 -14 680 -14 q 773 -6 744 -14 q 817 14 802 1 l 798 108 q 777 102 791 105 q 749 98 762 98 q 724 103 735 98 q 703 120 712 109 q 689 152 694 132 q 684 202 684 172 l 684 633 l 803 633 m 218 489 l 218 880 l 257 880 q 305 863 285 880 q 338 819 326 846 q 356 756 351 791 q 362 683 362 720 q 356 611 362 646 q 338 549 351 576 q 305 506 326 522 q 257 489 285 489 l 218 489 z "},"¤":{"ha":833,"x_min":59,"x_max":782,"o":"m 617 54 l 688 -18 l 782 79 l 706 156 q 742 245 729 197 q 755 345 755 292 q 741 451 755 401 q 701 543 726 501 l 782 627 l 688 724 l 608 643 q 520 688 568 672 q 419 703 472 703 q 319 688 367 703 q 231 644 272 673 l 153 724 l 59 627 l 138 546 q 97 453 112 503 q 83 345 83 402 q 96 244 83 292 q 133 154 109 195 l 59 79 l 153 -18 l 222 52 q 314 4 264 21 q 419 -14 363 -14 q 525 4 475 -14 q 617 54 575 21 m 207 345 q 223 437 207 395 q 269 511 239 479 q 336 560 297 542 q 419 578 374 578 q 502 560 463 578 q 570 511 541 542 q 614 437 598 479 q 631 345 631 395 q 614 254 631 296 q 570 180 598 211 q 502 130 541 149 q 419 111 463 111 q 336 130 374 111 q 269 180 297 149 q 223 254 239 211 q 207 345 207 296 z "},"!":{"ha":833,"x_min":311,"x_max":517,"o":"m 495 340 l 504 987 l 325 987 l 333 340 l 495 340 m 311 87 q 338 18 311 46 q 414 -9 366 -9 q 490 18 462 -9 q 517 87 517 46 q 490 157 517 129 q 414 185 462 185 q 338 157 366 185 q 311 87 311 129 z "},"¡":{"ha":833,"x_min":329,"x_max":536,"o":"m 350 390 l 340 -256 l 520 -256 l 511 390 l 350 390 m 536 648 q 508 720 536 691 q 432 748 479 748 q 356 719 383 748 q 329 648 329 690 q 356 580 329 608 q 432 552 383 552 q 508 579 479 552 q 536 648 536 607 z "},"?":{"ha":833,"x_min":113,"x_max":740,"o":"m 340 295 l 500 295 q 502 342 500 322 q 509 378 503 361 q 525 411 513 395 q 557 447 536 427 q 622 507 589 476 q 682 574 655 538 q 724 649 707 609 q 740 738 740 690 q 719 851 740 802 q 658 935 698 901 q 558 985 617 968 q 427 1002 500 1002 q 303 985 360 1002 q 205 935 247 968 q 138 851 163 901 q 113 735 114 802 l 289 735 q 301 790 290 767 q 332 828 313 813 q 376 849 351 842 q 427 856 400 856 q 486 848 460 856 q 529 825 511 841 q 555 786 546 810 q 564 730 564 762 q 552 676 564 703 q 522 624 540 649 q 479 575 503 599 q 433 530 456 551 q 382 481 400 503 q 355 433 364 458 q 343 375 345 407 q 340 295 340 342 m 315 88 q 342 20 315 47 q 418 -8 370 -8 q 494 20 466 -8 q 522 88 522 47 q 494 159 522 130 q 418 187 466 187 q 342 159 370 187 q 315 88 315 130 z "},"¿":{"ha":833,"x_min":137,"x_max":734,"o":"m 527 438 l 367 438 q 366 392 367 411 q 361 357 366 373 q 346 326 356 341 q 314 291 335 311 q 251 229 283 261 q 194 162 219 197 q 153 85 169 126 q 137 -3 137 45 q 157 -116 137 -66 q 216 -198 178 -165 q 309 -249 254 -232 q 434 -267 364 -267 q 551 -250 497 -267 q 646 -201 606 -234 q 709 -119 686 -168 q 734 -3 732 -69 l 557 -3 q 547 -57 557 -35 q 519 -94 536 -79 q 479 -115 502 -108 q 431 -121 456 -121 q 380 -114 403 -121 q 342 -90 357 -106 q 321 -53 328 -75 q 313 -1 313 -31 q 325 56 313 28 q 354 110 336 83 q 394 159 372 135 q 437 207 416 184 q 488 254 470 233 q 514 302 506 276 q 525 359 523 327 q 527 438 527 392 m 361 646 q 380 587 361 611 q 448 563 399 563 q 516 587 496 563 q 536 646 536 610 q 516 708 536 683 q 448 733 496 733 q 380 708 399 733 q 361 646 361 682 z "},",":{"ha":833,"x_min":243,"x_max":473,"o":"m 472 18 l 473 161 l 304 161 l 304 11 q 287 -114 304 -60 q 243 -216 271 -167 l 338 -265 q 435 -135 398 -212 q 472 18 472 -58 z "},".":{"ha":833,"x_min":297,"x_max":545,"o":"m 297 103 q 330 20 297 54 q 420 -14 363 -14 q 512 20 478 -14 q 545 103 545 53 q 512 188 545 154 q 420 222 479 222 q 329 188 361 222 q 297 103 297 153 z "},":":{"ha":833,"x_min":311,"x_max":559,"o":"m 312 103 q 345 20 312 54 q 435 -14 378 -14 q 527 20 493 -14 q 560 103 560 53 q 527 188 560 154 q 435 222 494 222 q 344 188 376 222 q 312 103 312 153 m 312 670 q 345 587 312 621 q 435 553 378 553 q 527 587 493 553 q 560 670 560 620 q 527 755 560 721 q 435 789 494 789 q 344 755 376 789 q 312 670 312 720 z "},";":{"ha":833,"x_min":302,"x_max":579,"o":"m 331 670 q 364 587 331 621 q 454 553 397 553 q 546 587 512 553 q 579 670 579 620 q 546 755 579 721 q 454 789 513 789 q 363 755 395 789 q 331 670 331 720 m 532 18 l 532 161 l 363 161 l 363 11 q 347 -114 363 -60 q 303 -216 330 -167 l 398 -265 q 495 -135 458 -212 q 532 18 532 -58 z "},"…":{"ha":833,"x_min":92,"x_max":874,"o":"m 92 102 q 125 19 92 53 q 216 -14 158 -14 q 307 19 273 -14 q 340 102 340 52 q 308 188 340 153 q 216 222 275 222 q 124 187 157 222 q 92 102 92 153 m 360 102 q 393 19 360 53 q 484 -14 426 -14 q 575 19 541 -14 q 608 102 608 52 q 575 188 608 153 q 484 222 543 222 q 392 187 425 222 q 360 102 360 153 m 626 102 q 659 19 626 53 q 749 -14 692 -14 q 841 19 807 -14 q 874 102 874 52 q 841 188 874 153 q 749 222 808 222 q 658 187 690 222 q 626 102 626 153 z "},"·":{"ha":833,"x_min":336,"x_max":538,"o":"m 336 479 q 363 411 336 439 q 437 384 390 384 q 511 411 484 384 q 538 479 538 438 q 511 548 538 521 q 437 576 484 576 q 363 548 390 576 q 336 479 336 520 z "},"•":{"ha":833,"x_min":275,"x_max":583,"o":"m 275 534 l 275 494 q 286 435 275 462 q 317 388 296 408 q 365 357 336 368 q 429 347 393 347 q 493 357 465 347 q 543 388 522 368 q 573 435 562 408 q 583 494 583 462 l 583 534 q 573 594 583 566 q 543 641 562 621 q 493 672 522 661 q 429 684 465 684 q 365 672 393 684 q 317 641 336 661 q 286 594 297 621 q 275 534 275 566 z "},"_":{"ha":833,"x_min":101,"x_max":721,"o":"m 721 -138 l 721 0 l 101 0 l 101 -138 l 721 -138 z "},"-":{"ha":833,"x_min":182,"x_max":737,"o":"m 737 364 l 737 506 l 182 506 l 182 364 l 737 364 z "},"–":{"ha":833,"x_min":43,"x_max":797,"o":"m 797 414 l 797 558 l 43 558 l 43 414 l 797 414 z "},"—":{"ha":833,"x_min":42,"x_max":795,"o":"m 795 414 l 795 558 l 42 558 l 42 414 l 795 414 z "},"'":{"ha":833,"x_min":315,"x_max":452,"o":"m 452 950 l 452 1042 l 315 1042 l 315 948 l 315 682 l 434 682 l 452 950 z "},"\"":{"ha":833,"x_min":201,"x_max":604,"o":"m 333 968 l 333 1042 l 201 1042 l 201 963 l 201 690 l 314 690 l 333 968 m 604 968 l 604 1042 l 473 1042 l 473 965 l 473 690 l 586 690 l 604 968 z "},"‘":{"ha":833,"x_min":333,"x_max":539,"o":"m 333 805 l 333 690 l 478 690 l 478 806 q 495 921 478 870 q 539 1017 512 971 l 456 1069 q 407 1014 429 1045 q 368 947 385 983 q 342 876 351 912 q 333 805 333 840 z "},"’":{"ha":833,"x_min":315,"x_max":521,"o":"m 521 944 l 521 1058 l 375 1058 l 375 943 q 359 829 375 880 q 315 733 342 778 l 397 680 q 447 736 425 705 q 486 802 469 767 q 512 873 503 837 q 521 944 521 910 z "},"‚":{"ha":833,"x_min":312,"x_max":521,"o":"m 521 45 l 521 176 l 370 176 l 370 45 q 354 -70 370 -20 q 312 -165 339 -119 l 398 -217 q 447 -162 425 -193 q 486 -96 469 -131 q 511 -25 502 -61 q 521 45 521 12 z "},"“":{"ha":833,"x_min":222,"x_max":656,"o":"m 221 805 l 221 690 l 366 690 l 366 806 q 383 921 366 870 q 427 1017 400 971 l 344 1069 q 295 1014 317 1045 q 256 947 273 983 q 230 876 239 912 q 221 805 221 840 m 450 805 l 450 690 l 595 690 l 595 806 q 612 921 595 870 q 656 1017 629 971 l 573 1069 q 524 1014 547 1045 q 486 947 502 983 q 459 876 469 912 q 450 805 450 840 z "},"”":{"ha":833,"x_min":203,"x_max":648,"o":"m 409 944 l 409 1058 l 263 1058 l 263 943 q 247 829 263 880 q 203 733 231 778 l 286 680 q 335 736 313 705 q 374 802 357 767 q 400 873 391 837 q 409 944 409 910 m 649 944 l 649 1058 l 503 1058 l 503 943 q 487 829 503 880 q 444 733 471 778 l 526 680 q 575 736 553 705 q 614 802 597 767 q 640 873 631 837 q 649 944 649 910 z "},"„":{"ha":833,"x_min":215,"x_max":641,"o":"m 424 45 l 424 157 l 273 157 l 273 43 q 258 -71 273 -21 q 215 -166 242 -121 l 304 -218 q 353 -164 332 -195 q 391 -97 375 -132 q 415 -26 406 -62 q 424 45 424 10 m 641 45 l 641 157 l 490 157 l 490 43 q 473 -71 490 -21 q 429 -166 456 -121 l 518 -218 q 568 -164 545 -195 q 606 -97 590 -132 q 632 -26 623 -62 q 641 45 641 10 z "},"′":{"ha":833,"x_min":315,"x_max":452,"o":"m 452 950 l 452 1042 l 315 1042 l 315 948 l 315 682 l 434 682 l 452 950 z "},"″":{"ha":833,"x_min":201,"x_max":604,"o":"m 333 968 l 333 1042 l 201 1042 l 201 963 l 201 690 l 314 690 l 333 968 m 604 968 l 604 1042 l 473 1042 l 473 965 l 473 690 l 586 690 l 604 968 z "},"(":{"ha":833,"x_min":236,"x_max":606,"o":"m 236 401 l 236 388 q 251 207 236 292 q 290 52 265 123 q 349 -80 315 -21 q 420 -184 382 -139 q 496 -262 457 -230 q 572 -312 536 -294 l 606 -215 q 553 -164 580 -195 q 500 -92 526 -133 q 457 -1 477 -53 q 420 111 436 50 q 399 230 408 157 q 390 387 390 302 l 390 403 q 400 563 390 489 q 425 699 410 637 q 468 817 444 762 q 520 911 492 871 q 563 963 541 940 q 606 1002 585 986 l 572 1101 q 496 1052 536 1084 q 420 975 457 1020 q 349 870 382 929 q 290 739 315 810 q 251 582 265 667 q 236 401 236 497 z "},")":{"ha":833,"x_min":215,"x_max":593,"o":"m 593 388 l 593 401 q 578 579 593 496 q 537 734 563 663 q 477 866 511 807 q 405 972 444 925 q 327 1051 367 1019 q 249 1101 286 1084 l 215 1006 q 257 966 235 989 q 298 914 278 943 q 354 814 328 872 q 399 683 380 755 q 422 555 413 626 q 431 403 431 485 l 431 387 q 423 235 431 305 q 400 105 414 164 q 361 -12 383 41 q 313 -105 339 -64 q 264 -169 290 -142 q 215 -215 239 -197 l 249 -312 q 327 -262 286 -294 q 405 -182 367 -229 q 477 -76 443 -136 q 537 55 511 -17 q 578 211 563 127 q 593 388 593 294 z "},"[":{"ha":833,"x_min":275,"x_max":571,"o":"m 571 1006 l 571 1143 l 275 1143 l 275 -224 l 571 -224 l 571 -87 l 448 -87 l 448 1006 l 571 1006 z "},"]":{"ha":833,"x_min":272,"x_max":568,"o":"m 272 1143 l 272 1006 l 395 1006 l 395 -87 l 272 -87 l 272 -224 l 568 -224 l 568 1143 l 272 1143 z "},"{":{"ha":833,"x_min":212,"x_max":664,"o":"m 643 -245 l 664 -144 q 606 -125 629 -144 q 570 -75 583 -106 q 552 -5 557 -44 q 547 71 547 33 l 547 182 q 508 325 547 263 q 386 418 469 387 q 508 513 469 451 q 547 656 547 575 l 547 768 q 549 844 547 805 q 563 913 551 882 q 597 964 574 945 q 664 983 621 983 l 643 1083 q 529 1057 576 1082 q 452 991 481 1031 q 402 885 418 946 q 386 768 386 825 l 386 656 q 343 523 386 563 q 212 483 300 483 l 212 355 q 343 314 300 355 q 386 182 386 274 l 386 71 q 400 -39 386 17 q 448 -141 415 -94 q 527 -215 478 -186 q 643 -245 576 -245 z "},"}":{"ha":833,"x_min":224,"x_max":676,"o":"m 224 -144 l 245 -245 q 361 -216 312 -245 q 441 -140 410 -187 q 487 -39 471 -96 q 503 71 503 18 l 503 182 q 509 245 503 218 q 528 292 515 272 q 585 340 547 325 q 676 355 622 355 l 676 483 q 589 496 625 483 q 532 538 552 509 q 510 588 517 559 q 503 656 503 618 l 503 768 q 489 877 503 821 q 446 977 476 932 q 365 1054 414 1025 q 245 1083 316 1082 l 224 983 q 291 964 267 983 q 326 913 314 945 q 339 844 336 882 q 341 768 341 805 l 341 656 q 354 566 341 608 q 396 490 368 524 q 439 449 414 467 q 495 418 463 431 q 430 380 458 402 q 384 330 403 358 q 352 262 362 299 q 341 182 341 224 l 341 71 q 336 -5 341 33 q 317 -75 330 -44 q 282 -125 304 -106 q 224 -144 259 -144 z "},"‹":{"ha":833,"x_min":267,"x_max":576,"o":"m 410 361 l 576 632 l 460 632 l 267 368 l 267 355 l 460 90 l 576 90 l 410 361 z "},"›":{"ha":833,"x_min":262,"x_max":573,"o":"m 380 631 l 262 631 l 429 360 l 262 90 l 380 90 l 573 354 l 573 367 l 380 631 z "},"+":{"ha":833,"x_min":70,"x_max":747,"o":"m 493 546 l 493 818 l 324 818 l 324 546 l 70 546 l 70 384 l 324 384 l 324 99 l 493 99 l 493 384 l 747 384 l 747 546 l 493 546 z "},"−":{"ha":833,"x_min":104,"x_max":684,"o":"m 684 414 l 684 558 l 104 558 l 104 414 l 684 414 z "},"±":{"ha":833,"x_min":101,"x_max":722,"o":"m 493 622 l 493 868 l 338 868 l 338 622 l 101 622 l 101 475 l 338 475 l 338 218 l 493 218 l 493 475 l 722 475 l 722 622 l 493 622 m 699 0 l 699 143 l 119 143 l 119 0 l 699 0 z "},"×":{"ha":833,"x_min":110,"x_max":744,"o":"m 110 245 l 215 140 l 427 356 l 639 140 l 744 245 l 531 463 l 743 679 l 638 784 l 427 569 l 216 784 l 111 679 l 322 463 l 110 245 z "},"÷":{"ha":833,"x_min":74,"x_max":765,"o":"m 765 393 l 765 541 l 74 541 l 74 393 l 765 393 m 321 740 q 347 675 321 701 q 418 649 373 649 q 490 675 464 649 q 516 740 516 701 q 490 805 516 779 q 418 831 464 831 q 347 805 373 831 q 321 740 321 779 m 320 189 q 346 124 320 150 q 417 98 372 98 q 489 124 463 98 q 515 189 515 150 q 489 254 515 228 q 417 280 463 280 q 346 254 372 280 q 320 189 320 228 z "},"=":{"ha":833,"x_min":109,"x_max":743,"o":"m 743 495 l 743 640 l 109 640 l 109 495 l 743 495 m 743 205 l 743 350 l 109 350 l 109 205 l 743 205 z "},"≠":{"ha":833,"x_min":106,"x_max":739,"o":"m 739 205 l 739 350 l 441 350 l 517 495 l 739 495 l 739 640 l 595 640 l 629 706 l 553 747 l 496 640 l 106 640 l 106 495 l 420 495 l 343 350 l 106 350 l 106 205 l 267 205 l 231 136 l 307 95 l 365 205 l 739 205 z "},"≈":{"ha":833,"x_min":96,"x_max":746,"o":"m 103 597 l 110 460 q 185 533 142 507 q 273 559 228 559 q 356 547 323 559 q 433 511 389 534 q 510 476 475 490 q 593 463 545 463 q 676 488 638 463 q 746 562 714 514 l 739 699 q 668 626 707 652 q 583 600 628 600 q 503 612 536 600 q 431 645 471 625 q 351 683 387 669 q 263 696 315 697 q 176 669 218 696 q 103 597 135 642 m 96 306 l 103 168 q 177 241 136 214 q 263 267 218 267 q 346 256 313 269 q 425 219 378 243 q 501 184 468 197 q 583 171 534 171 q 667 197 627 171 q 739 270 707 224 l 732 408 q 659 335 700 361 q 572 309 617 309 q 492 322 526 309 q 416 356 458 335 q 337 393 371 380 q 252 405 303 406 q 169 378 208 405 q 96 306 130 352 z "},"<":{"ha":833,"x_min":108,"x_max":703,"o":"m 703 105 l 703 278 l 322 410 l 278 425 l 322 441 l 703 575 l 703 747 l 108 497 l 108 355 l 703 105 z "},">":{"ha":833,"x_min":112,"x_max":720,"o":"m 112 104 l 720 355 l 720 498 l 112 747 l 112 576 l 511 441 l 552 427 l 511 414 l 112 277 l 112 104 z "},"≤":{"ha":833,"x_min":118,"x_max":713,"o":"m 713 262 l 713 418 l 332 536 l 288 550 l 332 564 l 713 685 l 713 840 l 118 614 l 118 488 l 713 262 m 703 20 l 703 163 l 123 163 l 123 20 l 703 20 z "},"≥":{"ha":833,"x_min":119,"x_max":727,"o":"m 119 269 l 727 494 l 727 622 l 119 847 l 119 693 l 519 571 l 559 559 l 518 547 l 119 423 l 119 269 m 701 19 l 701 162 l 121 162 l 121 19 l 701 19 z "},"¬":{"ha":833,"x_min":126,"x_max":692,"o":"m 692 254 l 692 545 l 126 545 l 126 431 l 558 431 l 558 254 l 692 254 z "},"/":{"ha":833,"x_min":154,"x_max":694,"o":"m 316 -85 l 694 987 l 532 987 l 154 -85 l 316 -85 z "},"\\":{"ha":833,"x_min":161,"x_max":703,"o":"m 161 987 l 540 -85 l 703 -85 l 325 987 l 161 987 z "},"⁄":{"ha":833,"x_min":193,"x_max":626,"o":"m 279 152 l 626 790 l 539 836 l 193 197 l 279 152 z "},"%":{"ha":833,"x_min":25,"x_max":808,"o":"m 25 811 l 25 759 q 37 686 25 720 q 73 625 50 651 q 133 584 97 599 q 216 569 169 569 q 300 584 264 569 q 359 625 336 599 q 394 686 382 651 q 406 759 406 720 l 406 811 q 394 885 406 850 q 359 945 382 920 q 300 986 336 971 q 216 1002 264 1002 q 132 986 168 1002 q 73 945 96 971 q 37 885 49 920 q 25 811 25 850 m 145 759 l 145 811 q 149 843 145 827 q 161 871 153 859 q 183 890 170 883 q 215 897 196 897 q 249 890 235 897 q 271 871 262 883 q 282 843 279 859 q 286 811 286 827 l 286 759 q 282 726 286 742 q 271 699 279 711 q 250 680 263 686 q 217 673 236 673 q 183 680 197 673 q 161 699 170 686 q 149 726 153 711 q 145 759 145 742 m 426 229 l 426 176 q 438 102 426 137 q 474 42 450 68 q 534 1 498 16 q 618 -14 570 -14 q 701 1 666 -14 q 761 42 736 16 q 796 102 784 68 q 808 176 808 137 l 808 229 q 796 302 808 267 q 760 363 784 336 q 701 404 736 389 q 616 419 665 419 q 533 404 569 419 q 474 363 498 389 q 438 302 450 336 q 426 229 426 267 m 546 176 l 546 229 q 550 261 546 245 q 562 288 553 276 q 583 307 570 300 q 616 314 597 314 q 650 307 636 314 q 671 289 663 300 q 683 261 680 276 q 687 229 687 245 l 687 176 q 684 143 687 159 q 674 116 682 127 q 653 97 667 104 q 618 90 640 90 q 586 97 600 90 q 564 116 572 104 q 550 144 555 128 q 546 176 546 159 m 279 133 l 661 831 l 572 875 l 191 176 l 279 133 z "},"‰":{"ha":833,"x_min":48,"x_max":814,"o":"m 220 202 l 220 176 q 231 102 220 137 q 265 42 243 68 q 320 1 288 16 q 397 -14 353 -14 q 440 -9 420 -14 q 477 3 460 -5 q 498 17 488 9 q 517 33 509 24 q 535 18 526 25 q 555 5 544 11 q 594 -9 572 -4 q 640 -14 615 -14 q 715 1 682 -14 q 770 42 747 16 q 803 102 791 68 q 814 176 814 137 l 814 202 q 803 275 814 241 q 770 336 791 310 q 714 377 747 362 q 638 392 681 392 q 592 387 613 392 q 552 372 570 382 q 533 360 543 367 q 517 345 524 353 q 497 362 508 354 q 474 376 486 370 q 438 388 458 384 q 396 392 418 392 q 320 377 353 392 q 265 336 288 362 q 231 275 243 310 q 220 202 220 241 m 48 810 l 48 785 q 59 712 48 747 q 92 652 70 678 q 145 611 114 626 q 218 596 177 596 q 293 611 260 596 q 349 652 326 626 q 382 712 371 678 q 394 785 394 747 l 394 810 q 383 884 394 850 q 349 945 372 919 q 293 986 326 970 q 217 1001 260 1001 q 144 986 176 1001 q 92 945 113 970 q 59 884 70 919 q 48 810 48 850 m 340 176 l 340 202 q 342 234 340 219 q 351 262 345 250 q 369 280 358 273 q 396 288 380 288 q 422 280 412 288 q 439 262 433 273 q 449 234 446 250 q 452 202 452 219 l 452 176 q 450 143 452 159 q 442 116 448 127 q 426 97 437 104 q 397 90 414 90 q 371 97 382 90 q 354 116 360 104 q 343 143 347 127 q 340 176 340 159 m 161 785 l 161 810 q 163 843 161 827 q 173 871 166 859 q 191 890 180 882 q 217 897 201 897 q 243 890 233 897 q 262 871 254 882 q 271 843 268 859 q 274 810 274 827 l 274 785 q 271 753 274 768 q 262 726 268 737 q 244 706 255 713 q 218 699 234 699 q 191 706 202 699 q 174 726 180 713 q 164 753 167 737 q 161 785 161 768 m 581 176 l 581 202 q 584 234 581 219 q 593 262 587 250 q 611 280 600 273 q 638 288 622 288 q 664 280 653 288 q 682 262 675 273 q 691 234 688 250 q 694 202 694 219 l 694 176 q 692 143 694 159 q 685 116 690 127 q 668 97 679 104 q 640 90 657 90 q 613 97 624 90 q 595 116 602 104 q 585 143 589 127 q 581 176 581 159 m 133 318 l 684 730 l 623 792 l 71 380 l 133 318 z "},"|":{"ha":833,"x_min":362,"x_max":477,"o":"m 477 -276 l 477 987 l 362 987 l 362 -276 l 477 -276 z "},"¦":{"ha":833,"x_min":334,"x_max":496,"o":"m 334 -183 l 496 -183 l 496 355 l 334 355 l 334 -183 m 496 473 l 496 987 l 334 987 l 334 473 l 496 473 z "},"†":{"ha":833,"x_min":74,"x_max":745,"o":"m 745 588 l 745 734 l 496 734 l 496 987 l 320 987 l 320 734 l 74 734 l 74 588 l 320 588 l 320 0 l 496 0 l 496 588 l 745 588 z "},"‡":{"ha":833,"x_min":86,"x_max":757,"o":"m 757 0 l 757 141 l 507 141 l 507 591 l 757 591 l 757 734 l 507 734 l 507 987 l 331 987 l 331 734 l 86 734 l 86 591 l 331 591 l 331 141 l 86 141 l 86 0 l 331 0 l 331 -282 l 507 -282 l 507 0 l 757 0 z "},"©":{"ha":833,"x_min":60,"x_max":783,"o":"m 585 300 l 506 300 q 501 260 506 277 q 487 233 496 243 q 458 214 476 220 q 414 208 439 208 q 371 218 390 208 q 340 245 353 228 q 321 285 328 261 q 315 336 315 309 l 315 398 q 321 449 315 426 q 340 490 328 473 q 371 516 353 507 q 414 526 390 526 q 456 520 438 526 q 485 503 473 515 q 501 475 496 492 q 507 434 507 458 l 585 434 q 575 500 585 471 q 546 549 565 529 q 490 583 524 572 q 414 595 457 595 q 341 580 374 595 q 285 539 308 566 q 250 476 262 513 q 238 397 238 440 l 238 336 q 250 257 238 293 q 285 195 262 221 q 341 155 308 170 q 414 140 374 140 q 490 152 457 140 q 546 186 524 163 q 574 234 564 205 q 585 300 585 262 m 121 368 q 145 492 121 435 q 209 593 168 550 q 304 660 250 635 q 422 684 359 684 q 538 660 484 684 q 633 593 593 635 q 697 492 674 550 q 721 368 721 435 q 697 242 721 300 q 633 141 674 184 q 538 73 593 98 q 422 48 484 48 q 304 73 359 48 q 209 141 250 98 q 145 242 168 184 q 121 368 121 300 m 60 368 q 89 217 60 287 q 167 96 117 148 q 281 16 215 45 q 422 -14 347 -14 q 563 16 497 -14 q 677 96 629 45 q 754 217 726 148 q 783 368 783 287 q 754 517 783 448 q 677 638 726 587 q 563 718 629 689 q 422 747 497 747 q 282 719 348 747 q 168 639 216 690 q 89 518 118 587 q 60 368 60 448 z "},"®":{"ha":833,"x_min":60,"x_max":781,"o":"m 60 367 q 88 217 60 286 q 165 96 116 147 q 279 15 214 44 q 420 -14 345 -14 q 562 15 496 -14 q 676 96 627 44 q 753 217 724 147 q 781 367 781 286 q 753 516 781 447 q 676 637 724 586 q 562 718 627 689 q 420 747 496 747 q 279 718 345 747 q 165 637 214 689 q 88 516 116 586 q 60 367 60 447 m 121 367 q 144 492 121 434 q 208 593 168 550 q 303 660 249 635 q 420 684 358 684 q 537 660 483 684 q 633 593 592 635 q 697 492 673 550 q 720 367 720 434 q 697 242 720 300 q 633 141 673 184 q 537 74 592 98 q 420 49 483 49 q 303 74 358 49 q 208 141 249 98 q 144 242 168 184 q 121 367 121 300 m 347 328 l 428 328 l 508 157 l 586 157 l 487 352 q 555 394 532 368 q 579 458 579 420 q 534 557 579 524 q 414 589 489 589 l 271 589 l 271 157 l 347 157 l 347 328 m 347 396 l 347 522 l 414 522 q 483 507 463 522 q 503 456 503 493 q 497 431 503 441 q 479 412 490 420 q 454 401 469 405 q 425 396 440 397 l 347 396 z "},"™":{"ha":833,"x_min":76,"x_max":762,"o":"m 683 868 l 683 621 l 762 621 l 762 987 l 669 987 l 580 731 l 495 987 l 397 987 l 397 621 l 476 621 l 476 868 l 557 621 l 602 621 l 683 868 m 348 920 l 348 987 l 76 987 l 76 920 l 170 920 l 170 622 l 256 622 l 256 920 l 348 920 z "},"°":{"ha":833,"x_min":243,"x_max":602,"o":"m 243 817 q 257 746 243 779 q 296 688 271 713 q 354 650 321 664 q 424 635 387 635 q 493 650 460 635 q 549 688 525 664 q 588 746 574 713 q 602 817 602 779 q 588 888 602 854 q 549 947 574 922 q 493 986 526 972 q 424 1001 460 1001 q 354 986 387 1001 q 296 947 321 972 q 257 888 272 922 q 243 817 243 854 m 338 817 q 345 852 338 836 q 364 880 352 868 q 391 898 376 892 q 424 905 406 905 q 457 898 441 905 q 484 880 472 892 q 501 852 494 868 q 507 817 507 836 q 501 783 507 799 q 484 756 494 768 q 457 739 472 745 q 424 732 441 732 q 391 739 406 732 q 364 757 376 745 q 345 784 352 768 q 338 817 338 799 z "},"*":{"ha":833,"x_min":105,"x_max":790,"o":"m 369 607 l 183 385 l 300 304 l 443 548 l 587 297 l 703 382 l 522 601 l 790 663 l 747 801 l 496 692 l 521 987 l 378 987 l 401 696 l 149 807 l 105 672 l 369 607 z "},"#":{"ha":833,"x_min":31,"x_max":787,"o":"m 448 278 l 398 0 l 514 0 l 565 278 l 736 278 l 736 388 l 585 388 l 622 594 l 787 594 l 787 705 l 642 705 l 694 987 l 577 987 l 526 705 l 380 705 l 432 987 l 316 987 l 264 705 l 81 705 l 81 594 l 244 594 l 207 388 l 31 388 l 31 278 l 187 278 l 136 0 l 252 0 l 303 278 l 448 278 m 323 388 l 360 594 l 505 594 l 468 388 l 323 388 z "},"&":{"ha":833,"x_min":56,"x_max":832,"o":"m 56 252 q 76 144 56 193 q 135 60 96 96 q 228 5 173 25 q 351 -14 282 -14 q 430 -7 393 -14 q 501 14 467 0 q 543 34 522 22 q 584 60 564 46 l 630 0 l 832 0 l 705 162 q 782 304 758 225 q 807 475 807 383 l 656 475 q 643 373 655 420 q 609 287 631 326 l 433 514 l 489 560 q 544 605 518 581 q 589 655 570 629 q 618 712 607 682 q 629 777 629 742 q 613 863 629 823 q 568 935 597 904 q 497 984 538 966 q 406 1002 456 1002 q 299 984 347 1002 q 216 935 251 966 q 164 854 182 901 q 146 749 146 808 q 154 685 146 716 q 176 621 161 653 q 201 573 186 597 q 233 523 216 549 l 218 512 q 154 460 183 486 q 104 405 125 434 q 68 334 81 372 q 56 252 56 297 m 357 127 q 304 137 328 127 q 265 165 281 147 q 240 208 249 183 q 231 260 231 232 q 234 291 231 275 q 245 327 237 308 q 268 368 252 345 q 306 408 284 390 l 313 414 l 500 170 q 472 154 486 161 q 444 142 458 147 q 401 131 423 135 q 357 127 379 127 m 307 750 q 313 792 307 772 q 332 827 319 812 q 362 851 344 842 q 406 859 381 859 q 437 851 423 859 q 460 831 450 844 q 474 802 469 819 q 479 768 479 785 q 479 749 479 760 q 473 724 478 737 q 457 694 468 709 q 425 666 446 680 l 358 616 q 338 648 347 632 q 323 680 330 664 q 312 715 316 697 q 307 750 307 732 z "},"@":{"ha":833,"x_min":29,"x_max":795,"o":"m 792 553 q 772 728 795 649 q 706 863 750 806 q 597 949 662 919 q 452 980 533 980 q 286 940 361 980 q 156 831 211 900 q 68 665 100 760 q 33 463 36 570 q 50 269 29 356 q 117 121 71 182 q 236 27 164 60 q 407 -5 308 -5 q 454 -2 429 -5 q 505 7 479 1 q 551 23 529 14 q 591 45 574 33 l 570 134 q 535 119 554 126 q 495 107 516 112 q 452 98 474 101 q 409 96 430 96 q 288 119 340 96 q 202 189 236 142 q 152 303 168 234 q 139 463 136 372 q 165 632 142 555 q 229 764 188 709 q 323 850 268 819 q 446 880 378 880 q 556 860 508 880 q 635 799 604 840 q 683 695 667 758 q 695 549 698 633 q 689 452 695 497 q 671 374 683 407 q 645 323 661 342 q 610 304 629 304 q 595 307 602 304 q 583 315 587 309 q 574 333 577 321 q 573 367 572 345 l 602 721 q 549 759 582 743 q 465 774 516 774 q 373 753 414 774 q 302 691 332 731 q 252 594 271 650 q 226 467 233 537 q 227 362 220 409 q 252 281 234 315 q 300 229 271 247 q 368 211 329 211 q 408 217 389 211 q 444 235 427 224 q 466 255 455 244 q 486 280 477 267 q 502 253 493 265 q 522 233 511 241 q 555 215 536 221 q 593 210 573 210 q 682 240 645 210 q 743 320 719 271 q 778 430 766 369 q 792 553 790 492 m 336 467 q 351 555 340 517 q 379 621 362 594 q 419 661 395 647 q 474 675 443 675 q 488 674 482 675 q 498 671 494 673 l 473 370 l 472 361 q 459 342 466 351 q 446 329 452 334 q 422 316 434 320 q 397 312 410 312 q 368 322 380 312 q 347 353 355 332 q 337 400 340 372 q 336 467 334 429 z "},"§":{"ha":833,"x_min":58,"x_max":789,"o":"m 789 316 q 767 423 789 378 q 704 500 745 468 q 649 536 680 520 q 581 566 618 552 q 527 585 555 576 q 467 602 498 593 q 404 620 431 612 q 354 637 376 629 q 324 650 338 644 q 300 664 311 656 q 268 699 277 680 q 258 747 258 719 q 268 790 258 770 q 299 826 278 810 q 352 850 320 842 q 429 859 385 859 q 502 848 470 859 q 556 817 534 836 q 589 769 578 796 q 600 710 600 742 l 775 710 q 751 835 775 781 q 683 926 727 889 q 573 982 637 963 q 429 1001 509 1001 q 286 983 350 1001 q 177 932 222 965 q 107 851 132 898 q 82 745 82 804 q 92 666 82 701 q 122 603 102 631 q 146 575 133 589 q 174 551 159 562 q 139 528 155 541 q 111 501 123 515 q 74 440 87 474 q 61 365 61 406 q 83 258 61 303 q 147 180 105 213 q 206 142 173 159 q 279 111 239 125 q 366 83 318 96 q 452 57 414 70 q 507 36 484 46 q 548 15 531 25 q 583 -21 572 -2 q 593 -64 593 -39 q 585 -102 593 -85 q 562 -134 576 -120 q 506 -162 541 -152 q 423 -173 471 -173 q 355 -166 389 -173 q 294 -143 321 -160 q 251 -99 267 -127 q 234 -28 234 -71 l 58 -29 q 90 -165 58 -111 q 173 -254 121 -220 q 289 -301 224 -287 q 423 -315 355 -315 q 565 -299 501 -315 q 673 -250 628 -282 q 743 -171 718 -218 q 768 -63 768 -124 q 759 12 768 -22 q 732 71 750 45 q 707 103 722 88 q 675 131 693 118 q 707 151 692 140 q 734 174 722 161 q 774 236 760 201 q 789 316 789 272 m 404 454 q 459 436 434 444 q 505 419 485 427 q 542 403 526 411 q 570 386 557 395 q 606 348 595 368 q 616 302 616 328 q 609 262 616 280 q 591 229 603 244 q 571 211 583 219 q 545 196 559 202 q 497 212 522 204 q 445 227 472 219 q 350 257 388 243 q 289 286 312 271 q 248 326 259 304 q 236 379 236 347 q 241 417 236 399 q 256 450 245 435 q 276 470 264 460 q 303 485 288 479 q 351 469 326 477 q 404 454 376 461 z "},"¶":{"ha":833,"x_min":146,"x_max":678,"o":"m 536 0 l 678 0 l 678 987 l 479 987 q 336 963 399 987 q 232 897 274 939 q 168 796 189 854 q 146 670 146 738 q 168 543 146 602 q 232 443 189 485 q 336 376 274 400 q 479 353 399 353 l 536 353 l 536 0 z "},"^":{"ha":833,"x_min":147,"x_max":705,"o":"m 147 465 l 292 465 l 412 777 l 425 831 l 439 777 l 562 465 l 705 465 l 489 987 l 363 987 l 147 465 z "},"~":{"ha":833,"x_min":21,"x_max":781,"o":"m 781 508 l 661 521 q 653 478 661 499 q 633 441 646 457 q 603 415 620 425 q 566 406 585 406 q 534 409 550 406 q 503 420 519 413 q 471 439 488 428 q 438 465 455 450 q 389 503 413 486 q 339 531 365 520 q 286 549 313 543 q 227 555 258 555 q 143 537 182 555 q 78 487 105 519 q 36 410 51 454 q 21 312 21 365 l 136 298 q 144 340 136 320 q 166 376 153 361 q 197 401 180 392 q 235 410 215 410 q 267 407 251 410 q 298 395 282 403 q 331 377 314 388 q 364 351 347 366 q 415 311 390 328 q 465 283 439 294 q 516 265 490 271 q 573 260 543 260 q 657 279 619 260 q 724 331 696 298 q 766 410 751 364 q 781 508 781 456 z "},"Á":{"ha":833,"x_min":26,"x_max":824,"o":"m 578 216 l 640 0 l 824 0 l 508 987 l 349 987 l 26 0 l 212 0 l 274 216 l 578 216 m 318 368 l 428 745 l 535 368 l 318 368 m 480 1237 l 354 1049 l 490 1049 l 676 1237 l 480 1237 z "},"Ă":{"ha":833,"x_min":26,"x_max":824,"o":"m 578 216 l 640 0 l 824 0 l 508 987 l 349 987 l 26 0 l 212 0 l 274 216 l 578 216 m 318 368 l 428 745 l 535 368 l 318 368 m 654 1261 l 525 1261 q 519 1226 525 1243 q 503 1196 514 1208 q 473 1176 491 1183 q 429 1168 455 1168 q 385 1176 403 1168 q 355 1196 366 1183 q 338 1225 343 1208 q 332 1261 332 1242 l 204 1261 q 220 1182 204 1218 q 265 1120 235 1146 q 335 1080 294 1095 q 429 1066 377 1066 q 523 1080 481 1066 q 593 1120 564 1095 q 638 1182 623 1146 q 654 1261 654 1218 z "},"Â":{"ha":833,"x_min":26,"x_max":824,"o":"m 578 216 l 640 0 l 824 0 l 508 987 l 349 987 l 26 0 l 212 0 l 274 216 l 578 216 m 318 368 l 428 745 l 535 368 l 318 368 m 673 1101 l 480 1265 l 378 1265 l 187 1102 l 187 1082 l 326 1082 l 429 1172 l 532 1082 l 673 1082 l 673 1101 z "},"Ä":{"ha":833,"x_min":26,"x_max":824,"o":"m 578 216 l 640 0 l 824 0 l 508 987 l 349 987 l 26 0 l 212 0 l 274 216 l 578 216 m 318 368 l 428 745 l 535 368 l 318 368 m 178 1163 q 203 1105 178 1128 q 267 1082 227 1082 q 330 1105 306 1082 q 355 1163 355 1128 q 331 1221 355 1198 q 267 1245 307 1245 q 202 1221 227 1245 q 178 1163 178 1198 m 496 1163 q 521 1104 496 1128 q 585 1080 545 1080 q 649 1104 625 1080 q 673 1163 673 1128 q 649 1221 673 1197 q 585 1244 625 1244 q 520 1221 545 1244 q 496 1163 496 1197 z "},"À":{"ha":833,"x_min":26,"x_max":824,"o":"m 578 216 l 640 0 l 824 0 l 508 987 l 349 987 l 26 0 l 212 0 l 274 216 l 578 216 m 318 368 l 428 745 l 535 368 l 318 368 m 500 1051 l 380 1239 l 185 1239 l 361 1051 l 500 1051 z "},"Ā":{"ha":833,"x_min":26,"x_max":824,"o":"m 578 216 l 640 0 l 824 0 l 508 987 l 349 987 l 26 0 l 212 0 l 274 216 l 578 216 m 318 368 l 428 745 l 535 368 l 318 368 m 677 1099 l 677 1207 l 184 1207 l 184 1099 l 677 1099 z "},"Ą":{"ha":833,"x_min":26,"x_max":824,"o":"m 508 987 l 349 987 l 26 0 l 212 0 l 274 216 l 578 216 l 636 11 q 598 -20 615 -3 q 570 -54 582 -36 q 545 -102 554 -77 q 536 -151 536 -127 q 548 -211 536 -185 q 579 -254 559 -236 q 626 -280 599 -271 q 683 -289 652 -289 q 759 -279 729 -289 q 808 -259 789 -269 l 779 -159 q 754 -169 768 -163 q 720 -174 739 -174 q 683 -160 694 -174 q 672 -127 672 -147 q 678 -89 672 -107 q 698 -55 684 -71 q 731 -26 711 -40 q 781 0 751 -12 l 824 0 l 508 987 m 318 368 l 428 745 l 535 368 l 318 368 z "},"Å":{"ha":833,"x_min":26,"x_max":824,"o":"m 578 216 l 640 0 l 824 0 l 508 987 l 349 987 l 26 0 l 212 0 l 274 216 l 578 216 m 318 368 l 428 745 l 535 368 l 318 368 m 286 1175 q 297 1122 286 1145 q 328 1081 308 1098 q 373 1054 347 1063 q 429 1044 399 1044 q 484 1054 458 1044 q 529 1081 510 1063 q 559 1122 548 1098 q 570 1175 570 1145 q 559 1227 570 1203 q 529 1270 548 1252 q 484 1298 510 1288 q 429 1308 458 1308 q 373 1298 399 1308 q 328 1270 347 1288 q 297 1227 308 1252 q 286 1175 286 1203 m 361 1175 q 366 1203 361 1190 q 380 1224 372 1215 q 402 1239 389 1234 q 429 1244 415 1244 q 455 1239 444 1244 q 477 1225 467 1234 q 490 1203 485 1216 q 494 1175 494 1190 q 489 1146 494 1159 q 475 1125 484 1134 q 455 1112 467 1116 q 429 1107 443 1107 q 402 1112 415 1107 q 381 1126 390 1117 q 367 1147 372 1135 q 361 1175 361 1160 z "},"Ǻ":{"ha":833,"x_min":26,"x_max":824,"o":"m 578 216 l 640 0 l 824 0 l 508 987 l 349 987 l 26 0 l 212 0 l 274 216 l 578 216 m 318 368 l 428 745 l 535 368 l 318 368 m 503 1438 l 385 1303 l 500 1303 l 672 1438 l 503 1438 m 298 1152 q 309 1103 298 1125 q 337 1065 319 1081 q 379 1040 355 1049 q 430 1031 403 1031 q 480 1040 456 1031 q 521 1065 503 1048 q 548 1103 538 1080 q 558 1152 558 1125 q 548 1200 558 1177 q 521 1240 538 1223 q 480 1264 503 1255 q 430 1274 456 1274 q 379 1264 403 1274 q 337 1240 355 1255 q 309 1200 319 1223 q 298 1152 298 1177 m 370 1152 q 387 1196 370 1179 q 430 1213 404 1213 q 471 1196 455 1213 q 487 1152 487 1179 q 471 1109 487 1126 q 430 1093 455 1093 q 387 1109 404 1093 q 370 1152 370 1126 z "},"Ã":{"ha":833,"x_min":26,"x_max":824,"o":"m 578 216 l 640 0 l 824 0 l 508 987 l 349 987 l 26 0 l 212 0 l 274 216 l 578 216 m 318 368 l 428 745 l 535 368 l 318 368 m 673 1260 l 583 1281 q 578 1254 583 1266 q 566 1233 574 1242 q 545 1218 557 1223 q 520 1213 533 1213 q 471 1222 494 1213 q 427 1243 448 1232 q 380 1263 404 1254 q 329 1273 357 1273 q 270 1258 296 1273 q 224 1221 243 1244 q 195 1168 205 1198 q 184 1109 184 1139 l 275 1089 q 282 1123 275 1108 q 303 1143 290 1137 q 325 1153 313 1150 q 349 1154 337 1156 q 392 1143 373 1152 q 432 1124 412 1135 q 474 1105 452 1114 q 528 1097 497 1097 q 587 1111 560 1097 q 633 1148 613 1125 q 662 1200 652 1171 q 673 1260 673 1230 z "},"Ǽ":{"ha":833,"x_min":31,"x_max":801,"o":"m 801 0 l 801 142 l 606 142 l 606 437 l 765 437 l 765 581 l 606 581 l 606 844 l 786 844 l 786 987 l 367 987 l 31 0 l 210 0 l 277 229 l 438 229 l 438 0 l 801 0 m 322 382 l 437 768 l 438 382 l 322 382 m 543 1237 l 417 1049 l 553 1049 l 739 1237 l 543 1237 z "},"Ć":{"ha":833,"x_min":58,"x_max":772,"o":"m 771 307 l 594 307 q 578 229 591 262 q 543 174 565 195 q 490 141 522 151 q 419 130 459 130 q 362 138 387 130 q 317 162 338 146 q 285 199 299 177 q 262 247 271 220 q 243 327 249 282 q 237 426 237 372 l 237 562 q 241 642 237 604 q 254 711 245 680 q 284 782 265 751 q 330 831 303 813 q 371 850 348 844 q 420 857 393 857 q 495 845 464 857 q 548 809 527 833 q 580 751 569 785 q 595 673 591 717 l 772 673 q 739 810 764 749 q 669 913 713 871 q 562 979 625 956 q 420 1002 500 1002 q 315 987 363 1002 q 228 945 267 972 q 150 871 184 915 q 96 773 117 828 q 67 672 77 726 q 58 560 58 618 l 58 426 q 68 308 58 364 q 98 204 78 252 q 147 116 117 156 q 214 48 176 77 q 307 2 255 18 q 419 -14 358 -14 q 557 8 495 -14 q 665 73 620 31 q 738 174 711 115 q 771 307 765 233 m 512 1239 l 386 1051 l 522 1051 l 708 1239 l 512 1239 z "},"Č":{"ha":833,"x_min":58,"x_max":772,"o":"m 771 307 l 594 307 q 578 229 591 262 q 543 174 565 195 q 490 141 522 151 q 419 130 459 130 q 362 138 387 130 q 317 162 338 146 q 285 199 299 177 q 262 247 271 220 q 243 327 249 282 q 237 426 237 372 l 237 562 q 241 642 237 604 q 254 711 245 680 q 284 782 265 751 q 330 831 303 813 q 371 850 348 844 q 420 857 393 857 q 495 845 464 857 q 548 809 527 833 q 580 751 569 785 q 595 673 591 717 l 772 673 q 739 810 764 749 q 669 913 713 871 q 562 979 625 956 q 420 1002 500 1002 q 315 987 363 1002 q 228 945 267 972 q 150 871 184 915 q 96 773 117 828 q 67 672 77 726 q 58 560 58 618 l 58 426 q 68 308 58 364 q 98 204 78 252 q 147 116 117 156 q 214 48 176 77 q 307 2 255 18 q 419 -14 358 -14 q 557 8 495 -14 q 665 73 620 31 q 738 174 711 115 q 771 307 765 233 m 460 1179 l 361 1267 l 212 1267 l 212 1254 l 406 1084 l 515 1084 l 710 1255 l 710 1267 l 561 1267 l 460 1179 z "},"Ç":{"ha":833,"x_min":58,"x_max":772,"o":"m 771 307 l 594 307 q 578 229 591 262 q 543 174 565 195 q 490 141 522 151 q 419 130 459 130 q 362 138 387 130 q 317 162 338 146 q 285 199 299 177 q 262 247 271 220 q 243 327 249 282 q 237 426 237 372 l 237 562 q 241 642 237 604 q 254 711 245 680 q 284 782 265 751 q 330 831 303 813 q 371 850 348 844 q 420 857 393 857 q 495 845 464 857 q 548 809 527 833 q 580 751 569 785 q 595 673 591 717 l 772 673 q 739 810 764 749 q 669 913 713 871 q 562 979 625 956 q 420 1002 500 1002 q 315 987 363 1002 q 228 945 267 972 q 150 871 184 915 q 96 773 117 828 q 67 672 77 726 q 58 560 58 618 l 58 426 q 68 308 58 364 q 98 204 78 252 q 147 116 117 156 q 214 48 176 77 q 307 2 255 18 q 419 -14 358 -14 q 557 8 495 -14 q 665 73 620 31 q 738 174 711 115 q 771 307 765 233 m 487 5 l 357 5 l 336 -90 q 382 -95 363 -92 q 414 -104 401 -98 q 431 -121 425 -111 q 437 -145 437 -131 q 430 -173 437 -161 q 411 -191 423 -184 q 384 -200 399 -197 q 349 -203 368 -203 l 354 -304 q 450 -294 408 -304 q 520 -264 492 -283 q 566 -215 551 -244 q 582 -149 582 -186 q 573 -99 582 -120 q 550 -64 564 -79 q 517 -43 536 -51 q 479 -32 498 -35 l 487 5 z "},"Ĉ":{"ha":833,"x_min":58,"x_max":772,"o":"m 771 307 l 594 307 q 578 229 591 262 q 543 174 565 195 q 490 141 522 151 q 419 130 459 130 q 362 138 387 130 q 317 162 338 146 q 285 199 299 177 q 262 247 271 220 q 243 327 249 282 q 237 426 237 372 l 237 562 q 241 642 237 604 q 254 711 245 680 q 284 782 265 751 q 330 831 303 813 q 371 850 348 844 q 420 857 393 857 q 495 845 464 857 q 548 809 527 833 q 580 751 569 785 q 595 673 591 717 l 772 673 q 739 810 764 749 q 669 913 713 871 q 562 979 625 956 q 420 1002 500 1002 q 315 987 363 1002 q 228 945 267 972 q 150 871 184 915 q 96 773 117 828 q 67 672 77 726 q 58 560 58 618 l 58 426 q 68 308 58 364 q 98 204 78 252 q 147 116 117 156 q 214 48 176 77 q 307 2 255 18 q 419 -14 358 -14 q 557 8 495 -14 q 665 73 620 31 q 738 174 711 115 q 771 307 765 233 m 705 1103 l 512 1267 l 410 1267 l 219 1104 l 219 1084 l 357 1084 l 460 1174 l 564 1084 l 705 1084 l 705 1103 z "},"Ď":{"ha":833,"x_min":89,"x_max":772,"o":"m 89 0 l 347 0 q 472 16 414 0 q 579 63 531 33 q 656 129 621 90 q 718 214 692 168 q 758 325 744 264 q 772 453 772 386 l 772 533 q 757 666 772 604 q 713 780 742 728 q 651 864 688 826 q 569 928 615 902 q 463 972 521 956 q 339 987 406 987 l 89 987 l 89 0 m 267 844 l 339 844 q 408 835 376 844 q 465 812 439 827 q 525 761 500 792 q 566 689 551 729 q 586 617 579 656 q 593 534 592 578 l 593 453 q 586 368 592 408 q 567 296 579 329 q 530 229 552 258 q 479 180 508 199 q 419 152 452 162 q 347 142 386 142 l 267 142 l 267 844 m 370 1172 l 271 1261 l 121 1261 l 121 1247 l 315 1077 l 425 1077 l 620 1248 l 620 1261 l 471 1261 l 370 1172 z "},"Đ":{"ha":833,"x_min":-31,"x_max":783,"o":"m 99 0 l 357 0 q 532 33 453 0 q 666 127 610 66 q 752 270 722 186 q 783 453 783 353 l 783 533 q 752 716 783 633 q 665 861 722 800 q 528 954 608 920 q 349 987 448 987 l 99 987 l 99 557 l -31 557 l -31 439 l 99 439 l 99 0 m 431 439 l 431 557 l 277 557 l 277 844 l 349 844 q 459 821 412 844 q 539 757 507 798 q 586 659 570 715 q 603 534 602 602 l 603 453 q 586 325 602 382 q 539 227 570 267 q 461 164 507 186 q 357 142 416 142 l 277 142 l 277 439 l 431 439 z "},"É":{"ha":833,"x_min":104,"x_max":758,"o":"m 689 437 l 689 579 l 282 579 l 282 842 l 755 842 l 755 987 l 104 987 l 104 0 l 758 0 l 758 144 l 282 144 l 282 437 l 689 437 m 484 1232 l 357 1044 l 493 1044 l 680 1232 l 484 1232 z "},"Ĕ":{"ha":833,"x_min":104,"x_max":758,"o":"m 689 437 l 689 579 l 282 579 l 282 842 l 755 842 l 755 987 l 104 987 l 104 0 l 758 0 l 758 144 l 282 144 l 282 437 l 689 437 m 657 1255 l 528 1255 q 523 1220 528 1238 q 507 1191 517 1203 q 476 1170 494 1178 q 433 1162 458 1162 q 388 1170 406 1162 q 358 1190 370 1178 q 341 1220 347 1203 q 336 1255 336 1237 l 208 1255 q 223 1177 208 1213 q 269 1115 239 1141 q 339 1075 297 1089 q 433 1061 380 1061 q 526 1075 484 1061 q 597 1115 568 1089 q 642 1177 626 1141 q 657 1255 657 1213 z "},"Ě":{"ha":833,"x_min":104,"x_max":758,"o":"m 689 437 l 689 579 l 282 579 l 282 842 l 755 842 l 755 987 l 104 987 l 104 0 l 758 0 l 758 144 l 282 144 l 282 437 l 689 437 m 431 1172 l 332 1261 l 182 1261 l 182 1247 l 376 1077 l 486 1077 l 681 1248 l 681 1261 l 532 1261 l 431 1172 z "},"Ê":{"ha":833,"x_min":104,"x_max":758,"o":"m 689 437 l 689 579 l 282 579 l 282 842 l 755 842 l 755 987 l 104 987 l 104 0 l 758 0 l 758 144 l 282 144 l 282 437 l 689 437 m 676 1095 l 484 1259 l 381 1259 l 191 1097 l 191 1076 l 329 1076 l 432 1166 l 536 1076 l 676 1076 l 676 1095 z "},"Ë":{"ha":833,"x_min":104,"x_max":758,"o":"m 689 437 l 689 579 l 282 579 l 282 842 l 755 842 l 755 987 l 104 987 l 104 0 l 758 0 l 758 144 l 282 144 l 282 437 l 689 437 m 182 1158 q 206 1100 182 1123 q 270 1076 231 1076 q 334 1100 309 1076 q 358 1158 358 1123 q 334 1216 358 1192 q 270 1240 310 1240 q 206 1216 230 1240 q 182 1158 182 1192 m 500 1158 q 524 1099 500 1122 q 588 1075 549 1075 q 652 1099 628 1075 q 677 1158 677 1122 q 653 1215 677 1192 q 588 1239 629 1239 q 524 1215 548 1239 q 500 1158 500 1192 z "},"Ė":{"ha":833,"x_min":104,"x_max":758,"o":"m 689 437 l 689 579 l 282 579 l 282 842 l 755 842 l 755 987 l 104 987 l 104 0 l 758 0 l 758 144 l 282 144 l 282 437 l 689 437 m 334 1164 q 359 1099 334 1125 q 431 1074 385 1074 q 502 1099 476 1074 q 528 1164 528 1125 q 502 1229 528 1203 q 431 1255 476 1255 q 359 1229 385 1255 q 334 1164 334 1203 z "},"È":{"ha":833,"x_min":104,"x_max":758,"o":"m 689 437 l 689 579 l 282 579 l 282 842 l 755 842 l 755 987 l 104 987 l 104 0 l 758 0 l 758 144 l 282 144 l 282 437 l 689 437 m 504 1046 l 384 1234 l 189 1234 l 365 1046 l 504 1046 z "},"Ē":{"ha":833,"x_min":104,"x_max":758,"o":"m 689 437 l 689 579 l 282 579 l 282 842 l 755 842 l 755 987 l 104 987 l 104 0 l 758 0 l 758 144 l 282 144 l 282 437 l 689 437 m 680 1094 l 680 1202 l 188 1202 l 188 1094 l 680 1094 z "},"Ŋ":{"ha":833,"x_min":104,"x_max":736,"o":"m 736 987 l 559 987 l 559 363 l 282 985 l 281 987 l 104 987 l 104 0 l 281 0 l 281 624 l 559 0 l 559 -33 q 552 -91 559 -67 q 530 -131 545 -115 q 506 -147 519 -142 q 475 -153 492 -153 q 441 -151 459 -153 q 409 -145 423 -149 l 399 -285 q 445 -294 424 -292 q 490 -296 465 -296 q 593 -279 548 -296 q 671 -228 639 -262 q 720 -146 703 -195 q 736 -33 736 -97 l 736 987 z "},"Ę":{"ha":833,"x_min":104,"x_max":758,"o":"m 689 437 l 689 579 l 282 579 l 282 842 l 755 842 l 755 987 l 104 987 l 104 0 l 519 0 q 489 -28 503 -14 q 464 -59 475 -43 q 442 -104 450 -81 q 435 -151 435 -127 q 446 -211 435 -185 q 477 -254 458 -236 q 524 -280 497 -271 q 581 -289 551 -289 q 657 -279 627 -289 q 706 -259 687 -269 l 676 -159 q 652 -169 667 -163 q 618 -174 637 -174 q 581 -160 592 -174 q 570 -127 570 -147 q 576 -89 570 -107 q 596 -55 583 -71 q 629 -26 609 -40 q 679 0 650 -12 l 758 0 l 758 144 l 282 144 l 282 437 l 689 437 z "},"Ð":{"ha":833,"x_min":-31,"x_max":783,"o":"m 99 0 l 357 0 q 532 33 453 0 q 666 127 610 66 q 752 270 722 186 q 783 453 783 353 l 783 533 q 752 716 783 633 q 665 861 722 800 q 528 954 608 920 q 349 987 448 987 l 99 987 l 99 557 l -31 557 l -31 439 l 99 439 l 99 0 m 431 439 l 431 557 l 277 557 l 277 844 l 349 844 q 459 821 412 844 q 539 757 507 798 q 586 659 570 715 q 603 534 602 602 l 603 453 q 586 325 602 382 q 539 227 570 267 q 461 164 507 186 q 357 142 416 142 l 277 142 l 277 439 l 431 439 z "},"Ğ":{"ha":833,"x_min":61,"x_max":766,"o":"m 766 118 l 764 502 l 418 502 l 418 367 l 589 367 l 589 179 q 563 158 579 168 q 526 143 547 149 q 482 133 505 136 q 436 130 459 130 q 368 143 398 131 q 315 177 338 155 q 287 213 299 193 q 266 257 275 233 q 246 335 253 292 q 239 428 239 378 l 239 559 q 244 638 239 601 q 259 707 249 675 q 289 775 271 745 q 331 824 307 805 q 373 848 350 840 q 423 857 397 857 q 495 845 465 857 q 546 812 526 834 q 575 762 564 791 q 592 695 587 732 l 764 695 q 733 823 758 766 q 665 920 708 880 q 561 980 623 959 q 420 1001 500 1001 q 314 985 363 1001 q 224 940 265 970 q 159 876 188 913 q 108 794 130 840 q 73 685 85 744 q 61 558 61 625 l 61 428 q 74 297 61 358 q 111 185 86 235 q 165 102 133 139 q 237 39 197 65 q 325 0 277 14 q 429 -14 374 -14 q 546 -2 491 -14 q 645 31 600 10 q 715 72 685 50 q 766 118 746 95 m 667 1263 l 538 1263 q 532 1228 538 1245 q 516 1198 527 1211 q 486 1178 504 1185 q 442 1170 468 1170 q 397 1178 416 1170 q 368 1198 379 1185 q 351 1227 356 1211 q 345 1263 345 1244 l 217 1263 q 233 1184 217 1220 q 278 1122 248 1148 q 348 1082 307 1097 q 442 1068 390 1068 q 535 1082 494 1068 q 606 1122 577 1097 q 651 1184 635 1148 q 667 1263 667 1220 z "},"Ĝ":{"ha":833,"x_min":61,"x_max":766,"o":"m 766 118 l 764 502 l 418 502 l 418 367 l 589 367 l 589 179 q 563 158 579 168 q 526 143 547 149 q 482 133 505 136 q 436 130 459 130 q 368 143 398 131 q 315 177 338 155 q 287 213 299 193 q 266 257 275 233 q 246 335 253 292 q 239 428 239 378 l 239 559 q 244 638 239 601 q 259 707 249 675 q 289 775 271 745 q 331 824 307 805 q 373 848 350 840 q 423 857 397 857 q 495 845 465 857 q 546 812 526 834 q 575 762 564 791 q 592 695 587 732 l 764 695 q 733 823 758 766 q 665 920 708 880 q 561 980 623 959 q 420 1001 500 1001 q 314 985 363 1001 q 224 940 265 970 q 159 876 188 913 q 108 794 130 840 q 73 685 85 744 q 61 558 61 625 l 61 428 q 74 297 61 358 q 111 185 86 235 q 165 102 133 139 q 237 39 197 65 q 325 0 277 14 q 429 -14 374 -14 q 546 -2 491 -14 q 645 31 600 10 q 715 72 685 50 q 766 118 746 95 m 686 1103 l 493 1267 l 391 1267 l 200 1104 l 200 1084 l 338 1084 l 441 1174 l 545 1084 l 686 1084 l 686 1103 z "},"Ģ":{"ha":833,"x_min":61,"x_max":766,"o":"m 766 118 l 764 502 l 418 502 l 418 367 l 589 367 l 589 179 q 563 158 579 168 q 526 143 547 149 q 482 133 505 136 q 436 130 459 130 q 368 143 398 131 q 315 177 338 155 q 287 213 299 193 q 266 257 275 233 q 246 335 253 292 q 239 428 239 378 l 239 559 q 244 638 239 601 q 259 707 249 675 q 289 775 271 745 q 331 824 307 805 q 373 848 350 840 q 423 857 397 857 q 495 845 465 857 q 546 812 526 834 q 575 762 564 791 q 592 695 587 732 l 764 695 q 733 823 758 766 q 665 920 708 880 q 561 980 623 959 q 420 1001 500 1001 q 314 985 363 1001 q 224 940 265 970 q 159 876 188 913 q 108 794 130 840 q 73 685 85 744 q 61 558 61 625 l 61 428 q 74 297 61 358 q 111 185 86 235 q 165 102 133 139 q 237 39 197 65 q 325 0 277 14 q 429 -14 374 -14 q 546 -2 491 -14 q 645 31 600 10 q 715 72 685 50 q 766 118 746 95 m 513 -95 l 513 -47 l 387 -47 l 387 -97 q 374 -192 387 -148 q 336 -279 361 -236 l 412 -330 q 488 -220 463 -285 q 513 -95 513 -155 z "},"Ħ":{"ha":833,"x_min":16,"x_max":837,"o":"m 712 819 l 712 987 l 538 987 l 538 819 l 233 819 l 233 987 l 58 987 l 58 819 l 16 819 l 16 707 l 58 707 l 58 0 l 233 0 l 233 434 l 538 434 l 538 0 l 712 0 l 712 707 l 837 707 l 837 819 l 712 819 m 233 578 l 233 707 l 538 707 l 538 578 l 233 578 z "},"Ĥ":{"ha":833,"x_min":86,"x_max":740,"o":"m 740 0 l 740 987 l 566 987 l 566 578 l 260 578 l 260 987 l 86 987 l 86 0 l 260 0 l 260 434 l 566 434 l 566 0 l 740 0 m 655 1095 l 463 1259 l 360 1259 l 170 1097 l 170 1076 l 308 1076 l 411 1166 l 515 1076 l 655 1076 l 655 1095 z "},"Í":{"ha":833,"x_min":128,"x_max":705,"o":"m 128 987 l 128 843 l 325 843 l 325 144 l 128 144 l 128 0 l 705 0 l 705 144 l 503 144 l 503 843 l 705 843 l 705 987 l 128 987 m 454 1237 l 328 1049 l 463 1049 l 650 1237 l 454 1237 z "},"Ĭ":{"ha":833,"x_min":128,"x_max":705,"o":"m 128 987 l 128 843 l 325 843 l 325 144 l 128 144 l 128 0 l 705 0 l 705 144 l 503 144 l 503 843 l 705 843 l 705 987 l 128 987 m 628 1261 l 499 1261 q 494 1226 499 1243 q 477 1196 488 1208 q 447 1176 465 1183 q 404 1168 429 1168 q 359 1176 377 1168 q 329 1196 340 1183 q 312 1225 317 1208 q 307 1261 307 1242 l 178 1261 q 194 1182 178 1218 q 239 1120 210 1146 q 310 1080 268 1095 q 404 1066 351 1066 q 497 1080 455 1066 q 568 1120 538 1095 q 612 1182 597 1146 q 628 1261 628 1218 z "},"Î":{"ha":833,"x_min":128,"x_max":705,"o":"m 128 987 l 128 843 l 325 843 l 325 144 l 128 144 l 128 0 l 705 0 l 705 144 l 503 144 l 503 843 l 705 843 l 705 987 l 128 987 m 646 1101 l 454 1265 l 351 1265 l 161 1102 l 161 1082 l 299 1082 l 402 1172 l 506 1082 l 646 1082 l 646 1101 z "},"Ï":{"ha":833,"x_min":128,"x_max":705,"o":"m 128 987 l 128 843 l 325 843 l 325 144 l 128 144 l 128 0 l 705 0 l 705 144 l 503 144 l 503 843 l 705 843 l 705 987 l 128 987 m 152 1163 q 176 1105 152 1128 q 240 1082 201 1082 q 304 1105 279 1082 q 328 1163 328 1128 q 304 1221 328 1198 q 240 1245 280 1245 q 176 1221 200 1245 q 152 1163 152 1198 m 470 1163 q 494 1104 470 1128 q 558 1080 519 1080 q 623 1104 598 1080 q 647 1163 647 1128 q 623 1221 647 1197 q 558 1244 599 1244 q 494 1221 518 1244 q 470 1163 470 1197 z "},"İ":{"ha":833,"x_min":128,"x_max":705,"o":"m 128 987 l 128 843 l 325 843 l 325 144 l 128 144 l 128 0 l 705 0 l 705 144 l 503 144 l 503 843 l 705 843 l 705 987 l 128 987 m 304 1168 q 330 1104 304 1130 q 401 1078 356 1078 q 473 1104 447 1078 q 498 1168 498 1130 q 473 1234 498 1208 q 401 1259 447 1259 q 330 1234 356 1259 q 304 1168 304 1208 z "},"Ì":{"ha":833,"x_min":128,"x_max":705,"o":"m 128 987 l 128 843 l 325 843 l 325 144 l 128 144 l 128 0 l 705 0 l 705 144 l 503 144 l 503 843 l 705 843 l 705 987 l 128 987 m 474 1051 l 354 1239 l 159 1239 l 335 1051 l 474 1051 z "},"Ī":{"ha":833,"x_min":128,"x_max":705,"o":"m 128 987 l 128 843 l 325 843 l 325 144 l 128 144 l 128 0 l 705 0 l 705 144 l 503 144 l 503 843 l 705 843 l 705 987 l 128 987 m 651 1099 l 651 1207 l 159 1207 l 159 1099 l 651 1099 z "},"Į":{"ha":833,"x_min":128,"x_max":705,"o":"m 128 987 l 128 843 l 325 843 l 325 144 l 128 144 l 128 0 l 365 0 q 335 -28 349 -14 q 312 -57 322 -42 q 289 -103 296 -79 q 281 -151 281 -127 q 292 -211 281 -185 q 323 -254 304 -236 q 370 -280 343 -271 q 427 -289 397 -289 q 503 -279 473 -289 q 552 -259 533 -269 l 523 -159 q 498 -169 513 -163 q 464 -174 484 -174 q 427 -160 438 -174 q 416 -127 416 -147 q 423 -89 416 -107 q 443 -55 429 -71 q 476 -26 456 -39 q 525 0 496 -12 l 705 0 l 705 144 l 503 144 l 503 843 l 705 843 l 705 987 l 128 987 z "},"Ĩ":{"ha":833,"x_min":128,"x_max":705,"o":"m 128 987 l 128 843 l 325 843 l 325 144 l 128 144 l 128 0 l 705 0 l 705 144 l 503 144 l 503 843 l 705 843 l 705 987 l 128 987 m 646 1260 l 556 1281 q 552 1254 556 1266 q 539 1233 547 1242 q 519 1218 531 1223 q 494 1213 507 1213 q 445 1222 468 1213 q 400 1243 422 1232 q 354 1263 377 1254 q 302 1273 330 1273 q 243 1258 270 1273 q 198 1221 217 1244 q 169 1168 179 1198 q 158 1109 158 1139 l 248 1089 q 256 1123 248 1108 q 277 1143 264 1137 q 299 1153 287 1150 q 323 1154 311 1156 q 366 1143 347 1152 q 406 1124 385 1135 q 448 1105 425 1114 q 501 1097 471 1097 q 560 1111 534 1097 q 606 1148 587 1125 q 636 1200 625 1171 q 646 1260 646 1230 z "},"Ĵ":{"ha":833,"x_min":73,"x_max":898,"o":"m 560 987 l 560 302 q 549 235 560 267 q 517 180 538 203 q 469 143 498 157 q 405 130 439 130 q 334 142 363 130 q 285 176 304 153 q 260 224 269 196 q 252 290 252 253 l 73 290 q 100 158 75 214 q 168 64 124 101 q 271 6 211 25 q 405 -14 331 -14 q 535 9 475 -14 q 641 75 596 33 q 711 175 686 117 q 739 302 737 233 l 738 987 l 560 987 m 898 1092 l 705 1256 l 603 1256 l 412 1093 l 412 1073 l 551 1073 l 654 1163 l 758 1073 l 898 1073 l 898 1092 z "},"Ķ":{"ha":833,"x_min":94,"x_max":844,"o":"m 377 416 l 633 0 l 844 0 l 494 551 l 829 987 l 613 987 l 362 649 l 272 529 l 272 987 l 94 987 l 94 0 l 272 0 l 272 300 l 377 416 m 486 -97 l 486 -50 l 359 -50 l 359 -99 q 347 -194 359 -150 q 309 -281 334 -238 l 385 -332 q 461 -222 436 -287 q 486 -97 486 -157 z "},"Ĺ":{"ha":833,"x_min":109,"x_max":753,"o":"m 286 144 l 286 987 l 109 987 l 109 0 l 753 0 l 753 144 l 286 144 m 252 1217 l 125 1029 l 261 1029 l 448 1217 l 252 1217 z "},"Ľ":{"ha":833,"x_min":109,"x_max":753,"o":"m 286 144 l 286 987 l 109 987 l 109 0 l 753 0 l 753 144 l 286 144 m 691 874 l 691 988 l 545 988 l 545 873 q 529 759 545 810 q 486 663 513 708 l 568 610 q 617 666 595 635 q 656 732 640 697 q 682 804 673 767 q 691 874 691 840 z "},"Ļ":{"ha":833,"x_min":109,"x_max":753,"o":"m 286 144 l 286 987 l 109 987 l 109 0 l 753 0 l 753 144 l 286 144 m 489 -85 l 489 -38 l 362 -38 l 362 -87 q 350 -182 362 -138 q 311 -269 337 -227 l 387 -320 q 464 -210 439 -275 q 489 -85 489 -145 z "},"Ŀ":{"ha":833,"x_min":109,"x_max":753,"o":"m 286 144 l 286 987 l 109 987 l 109 0 l 753 0 l 753 144 l 286 144 m 416 549 q 442 485 416 511 q 513 459 468 459 q 585 485 559 459 q 610 549 610 511 q 585 614 610 589 q 513 640 559 640 q 442 614 468 640 q 416 549 416 589 z "},"Ł":{"ha":833,"x_min":35,"x_max":769,"o":"m 302 595 l 302 987 l 125 987 l 125 543 l 35 517 l 35 389 l 125 415 l 125 0 l 769 0 l 769 144 l 302 144 l 302 467 l 464 515 l 464 644 l 302 595 z "},"Ń":{"ha":833,"x_min":86,"x_max":739,"o":"m 739 0 l 739 987 l 562 987 l 560 332 l 264 987 l 86 987 l 86 0 l 264 0 l 265 658 l 562 0 l 739 0 m 464 1237 l 338 1049 l 473 1049 l 660 1237 l 464 1237 z "},"Ň":{"ha":833,"x_min":86,"x_max":739,"o":"m 739 0 l 739 987 l 562 987 l 560 332 l 264 987 l 86 987 l 86 0 l 264 0 l 265 658 l 562 0 l 739 0 m 412 1177 l 313 1265 l 163 1265 l 163 1252 l 357 1082 l 467 1082 l 662 1253 l 662 1265 l 513 1265 l 412 1177 z "},"Ņ":{"ha":833,"x_min":86,"x_max":739,"o":"m 739 0 l 739 987 l 562 987 l 560 332 l 264 987 l 86 987 l 86 0 l 264 0 l 265 658 l 562 0 l 739 0 m 482 -90 l 482 -42 l 355 -42 l 355 -92 q 343 -186 355 -142 q 304 -273 330 -231 l 380 -324 q 457 -214 432 -279 q 482 -90 482 -149 z "},"Ñ":{"ha":833,"x_min":86,"x_max":739,"o":"m 739 0 l 739 987 l 562 987 l 560 332 l 264 987 l 86 987 l 86 0 l 264 0 l 265 658 l 562 0 l 739 0 m 656 1260 l 566 1281 q 562 1254 566 1266 q 549 1233 557 1242 q 529 1218 541 1223 q 504 1213 517 1213 q 455 1222 478 1213 q 410 1243 432 1232 q 364 1263 387 1254 q 313 1273 340 1273 q 254 1258 280 1273 q 208 1221 227 1244 q 179 1168 189 1198 q 168 1109 168 1139 l 258 1089 q 266 1123 258 1108 q 287 1143 274 1137 q 309 1153 297 1150 q 333 1154 321 1156 q 376 1143 357 1152 q 416 1124 395 1135 q 458 1105 435 1114 q 511 1097 481 1097 q 570 1111 544 1097 q 616 1148 597 1125 q 646 1200 635 1171 q 656 1260 656 1230 z "},"Ó":{"ha":833,"x_min":58,"x_max":774,"o":"m 774 425 l 774 562 q 762 684 774 626 q 728 793 751 743 q 677 877 707 838 q 608 942 648 915 q 519 985 569 970 q 412 1001 469 1001 q 306 986 354 1001 q 219 943 258 970 q 150 875 180 914 q 100 789 121 836 q 69 682 79 739 q 58 562 58 624 l 58 425 q 68 310 58 365 q 96 208 77 256 q 147 116 117 157 q 216 46 178 75 q 305 2 256 18 q 412 -14 354 -14 q 515 1 468 -14 q 602 41 563 15 q 677 110 644 69 q 731 201 709 151 q 763 306 752 250 q 774 425 774 363 m 595 563 l 595 425 q 592 353 595 388 q 580 288 588 318 q 554 221 570 251 q 515 171 538 191 q 470 143 496 153 q 412 134 444 134 q 354 144 379 134 q 309 172 328 154 q 273 223 288 192 q 250 290 258 254 q 240 354 243 320 q 237 425 237 389 l 237 563 q 240 635 237 600 q 251 702 243 671 q 276 770 260 740 q 315 820 292 800 q 357 844 334 836 q 412 852 381 852 q 468 843 443 852 q 512 819 492 834 q 552 768 536 798 q 579 702 569 739 q 592 635 588 671 q 595 563 595 600 m 471 1251 l 345 1063 l 480 1063 l 667 1251 l 471 1251 z "},"Ŏ":{"ha":833,"x_min":58,"x_max":774,"o":"m 774 425 l 774 562 q 762 684 774 626 q 728 793 751 743 q 677 877 707 838 q 608 942 648 915 q 519 985 569 970 q 412 1001 469 1001 q 306 986 354 1001 q 219 943 258 970 q 150 875 180 914 q 100 789 121 836 q 69 682 79 739 q 58 562 58 624 l 58 425 q 68 310 58 365 q 96 208 77 256 q 147 116 117 157 q 216 46 178 75 q 305 2 256 18 q 412 -14 354 -14 q 515 1 468 -14 q 602 41 563 15 q 677 110 644 69 q 731 201 709 151 q 763 306 752 250 q 774 425 774 363 m 595 563 l 595 425 q 592 353 595 388 q 580 288 588 318 q 554 221 570 251 q 515 171 538 191 q 470 143 496 153 q 412 134 444 134 q 354 144 379 134 q 309 172 328 154 q 273 223 288 192 q 250 290 258 254 q 240 354 243 320 q 237 425 237 389 l 237 563 q 240 635 237 600 q 251 702 243 671 q 276 770 260 740 q 315 820 292 800 q 357 844 334 836 q 412 852 381 852 q 468 843 443 852 q 512 819 492 834 q 552 768 536 798 q 579 702 569 739 q 592 635 588 671 q 595 563 595 600 m 646 1275 l 517 1275 q 511 1240 517 1257 q 495 1211 506 1223 q 465 1190 483 1198 q 421 1182 447 1182 q 376 1190 395 1182 q 347 1210 358 1198 q 330 1240 335 1223 q 324 1275 324 1257 l 196 1275 q 212 1196 196 1232 q 257 1135 227 1160 q 327 1095 286 1109 q 421 1080 369 1080 q 514 1095 473 1080 q 585 1135 556 1109 q 630 1196 614 1160 q 646 1275 646 1232 z "},"Ô":{"ha":833,"x_min":58,"x_max":774,"o":"m 774 425 l 774 562 q 762 684 774 626 q 728 793 751 743 q 677 877 707 838 q 608 942 648 915 q 519 985 569 970 q 412 1001 469 1001 q 306 986 354 1001 q 219 943 258 970 q 150 875 180 914 q 100 789 121 836 q 69 682 79 739 q 58 562 58 624 l 58 425 q 68 310 58 365 q 96 208 77 256 q 147 116 117 157 q 216 46 178 75 q 305 2 256 18 q 412 -14 354 -14 q 515 1 468 -14 q 602 41 563 15 q 677 110 644 69 q 731 201 709 151 q 763 306 752 250 q 774 425 774 363 m 595 563 l 595 425 q 592 353 595 388 q 580 288 588 318 q 554 221 570 251 q 515 171 538 191 q 470 143 496 153 q 412 134 444 134 q 354 144 379 134 q 309 172 328 154 q 273 223 288 192 q 250 290 258 254 q 240 354 243 320 q 237 425 237 389 l 237 563 q 240 635 237 600 q 251 702 243 671 q 276 770 260 740 q 315 820 292 800 q 357 844 334 836 q 412 852 381 852 q 468 843 443 852 q 512 819 492 834 q 552 768 536 798 q 579 702 569 739 q 592 635 588 671 q 595 563 595 600 m 664 1115 l 471 1279 l 369 1279 l 178 1116 l 178 1096 l 317 1096 l 420 1186 l 524 1096 l 664 1096 l 664 1115 z "},"Ö":{"ha":833,"x_min":58,"x_max":774,"o":"m 774 425 l 774 562 q 762 684 774 626 q 728 793 751 743 q 677 877 707 838 q 608 942 648 915 q 519 985 569 970 q 412 1001 469 1001 q 306 986 354 1001 q 219 943 258 970 q 150 875 180 914 q 100 789 121 836 q 69 682 79 739 q 58 562 58 624 l 58 425 q 68 310 58 365 q 96 208 77 256 q 147 116 117 157 q 216 46 178 75 q 305 2 256 18 q 412 -14 354 -14 q 515 1 468 -14 q 602 41 563 15 q 677 110 644 69 q 731 201 709 151 q 763 306 752 250 q 774 425 774 363 m 595 563 l 595 425 q 592 353 595 388 q 580 288 588 318 q 554 221 570 251 q 515 171 538 191 q 470 143 496 153 q 412 134 444 134 q 354 144 379 134 q 309 172 328 154 q 273 223 288 192 q 250 290 258 254 q 240 354 243 320 q 237 425 237 389 l 237 563 q 240 635 237 600 q 251 702 243 671 q 276 770 260 740 q 315 820 292 800 q 357 844 334 836 q 412 852 381 852 q 468 843 443 852 q 512 819 492 834 q 552 768 536 798 q 579 702 569 739 q 592 635 588 671 q 595 563 595 600 m 169 1177 q 193 1119 169 1143 q 257 1096 218 1096 q 321 1119 296 1096 q 345 1177 345 1143 q 321 1236 345 1212 q 257 1259 297 1259 q 193 1236 217 1259 q 169 1177 169 1212 m 487 1177 q 511 1118 487 1142 q 575 1095 536 1095 q 640 1118 615 1095 q 664 1177 664 1142 q 640 1235 664 1211 q 575 1259 616 1259 q 511 1235 535 1259 q 487 1177 487 1211 z "},"Ò":{"ha":833,"x_min":58,"x_max":774,"o":"m 774 425 l 774 562 q 762 684 774 626 q 728 793 751 743 q 677 877 707 838 q 608 942 648 915 q 519 985 569 970 q 412 1001 469 1001 q 306 986 354 1001 q 219 943 258 970 q 150 875 180 914 q 100 789 121 836 q 69 682 79 739 q 58 562 58 624 l 58 425 q 68 310 58 365 q 96 208 77 256 q 147 116 117 157 q 216 46 178 75 q 305 2 256 18 q 412 -14 354 -14 q 515 1 468 -14 q 602 41 563 15 q 677 110 644 69 q 731 201 709 151 q 763 306 752 250 q 774 425 774 363 m 595 563 l 595 425 q 592 353 595 388 q 580 288 588 318 q 554 221 570 251 q 515 171 538 191 q 470 143 496 153 q 412 134 444 134 q 354 144 379 134 q 309 172 328 154 q 273 223 288 192 q 250 290 258 254 q 240 354 243 320 q 237 425 237 389 l 237 563 q 240 635 237 600 q 251 702 243 671 q 276 770 260 740 q 315 820 292 800 q 357 844 334 836 q 412 852 381 852 q 468 843 443 852 q 512 819 492 834 q 552 768 536 798 q 579 702 569 739 q 592 635 588 671 q 595 563 595 600 m 492 1065 l 372 1253 l 176 1253 l 353 1065 l 492 1065 z "},"Ơ":{"ha":833,"x_min":64,"x_max":843,"o":"m 780 425 l 780 562 q 768 685 780 626 q 733 795 757 743 q 780 830 760 808 q 814 880 800 851 q 836 944 828 908 q 842 1023 843 980 l 715 1023 q 712 977 715 998 q 704 939 709 956 q 691 910 699 922 q 673 889 684 897 q 628 932 652 912 q 576 965 604 951 q 502 992 542 983 q 417 1001 463 1001 q 269 969 334 1001 q 161 882 205 937 q 89 739 113 822 q 64 562 64 656 l 64 425 q 87 253 64 333 q 155 115 111 174 q 265 20 199 54 q 418 -14 332 -14 q 572 20 505 -14 q 686 113 639 54 q 756 252 732 172 q 780 425 780 332 m 602 563 l 602 425 q 591 311 601 365 q 559 218 581 257 q 502 156 537 179 q 418 134 467 134 q 336 156 369 134 q 282 216 302 178 q 252 311 261 257 q 243 425 243 365 l 243 563 q 252 679 243 624 q 285 774 262 734 q 338 832 305 811 q 417 852 370 852 q 500 831 466 852 q 556 772 534 810 q 591 679 580 733 q 602 563 602 625 z "},"Ő":{"ha":833,"x_min":58,"x_max":792,"o":"m 774 425 l 774 562 q 762 684 774 626 q 728 793 751 743 q 677 877 707 838 q 608 942 648 915 q 519 985 569 970 q 412 1001 469 1001 q 306 986 354 1001 q 219 943 258 970 q 150 875 180 914 q 100 789 121 836 q 69 682 79 739 q 58 562 58 624 l 58 425 q 68 310 58 365 q 96 208 77 256 q 147 116 117 157 q 216 46 178 75 q 305 2 256 18 q 412 -14 354 -14 q 515 1 468 -14 q 602 41 563 15 q 677 110 644 69 q 731 201 709 151 q 763 306 752 250 q 774 425 774 363 m 595 563 l 595 425 q 592 353 595 388 q 580 288 588 318 q 554 221 570 251 q 515 171 538 191 q 470 143 496 153 q 412 134 444 134 q 354 144 379 134 q 309 172 328 154 q 273 223 288 192 q 250 290 258 254 q 240 354 243 320 q 237 425 237 389 l 237 563 q 240 635 237 600 q 251 702 243 671 q 276 770 260 740 q 315 820 292 800 q 357 844 334 836 q 412 852 381 852 q 468 843 443 852 q 512 819 492 834 q 552 768 536 798 q 579 702 569 739 q 592 635 588 671 q 595 563 595 600 m 614 1280 l 447 1100 l 585 1100 l 792 1280 l 614 1280 m 371 1280 l 236 1100 l 368 1100 l 541 1280 l 371 1280 z "},"Ō":{"ha":833,"x_min":58,"x_max":774,"o":"m 774 425 l 774 562 q 762 684 774 626 q 728 793 751 743 q 677 877 707 838 q 608 942 648 915 q 519 985 569 970 q 412 1001 469 1001 q 306 986 354 1001 q 219 943 258 970 q 150 875 180 914 q 100 789 121 836 q 69 682 79 739 q 58 562 58 624 l 58 425 q 68 310 58 365 q 96 208 77 256 q 147 116 117 157 q 216 46 178 75 q 305 2 256 18 q 412 -14 354 -14 q 515 1 468 -14 q 602 41 563 15 q 677 110 644 69 q 731 201 709 151 q 763 306 752 250 q 774 425 774 363 m 595 563 l 595 425 q 592 353 595 388 q 580 288 588 318 q 554 221 570 251 q 515 171 538 191 q 470 143 496 153 q 412 134 444 134 q 354 144 379 134 q 309 172 328 154 q 273 223 288 192 q 250 290 258 254 q 240 354 243 320 q 237 425 237 389 l 237 563 q 240 635 237 600 q 251 702 243 671 q 276 770 260 740 q 315 820 292 800 q 357 844 334 836 q 412 852 381 852 q 468 843 443 852 q 512 819 492 834 q 552 768 536 798 q 579 702 569 739 q 592 635 588 671 q 595 563 595 600 m 668 1113 l 668 1221 l 176 1221 l 176 1113 l 668 1113 z "},"Ø":{"ha":833,"x_min":36,"x_max":778,"o":"m 776 425 l 776 562 q 753 730 776 652 q 686 867 730 808 l 778 1029 l 659 1029 l 609 941 q 572 964 591 954 q 532 981 553 974 q 475 996 505 991 q 413 1001 446 1001 q 261 967 327 1001 q 151 876 196 933 q 83 735 106 816 q 60 562 60 654 l 60 425 q 65 338 60 380 q 80 258 70 296 q 106 187 91 221 q 142 123 122 153 l 36 -64 l 154 -64 l 218 47 q 306 2 258 18 q 414 -14 355 -14 q 566 19 499 -14 q 679 110 633 52 q 751 251 726 170 q 776 425 776 332 m 238 425 l 238 563 q 247 675 238 622 q 277 769 256 729 q 330 830 297 807 q 413 852 363 852 q 450 849 433 852 q 481 838 467 845 q 508 823 496 832 q 530 802 519 814 l 250 312 q 246 334 248 323 q 242 355 244 345 q 239 390 240 372 q 238 425 238 407 m 597 563 l 597 425 q 586 309 597 363 q 551 213 575 254 q 495 155 529 176 q 414 134 461 134 q 347 148 375 134 q 297 186 318 161 l 583 688 q 594 627 591 659 q 597 563 597 595 z "},"Ǿ":{"ha":833,"x_min":36,"x_max":778,"o":"m 776 425 l 776 562 q 753 730 776 652 q 686 867 730 808 l 778 1029 l 659 1029 l 609 941 q 572 964 591 954 q 532 981 553 974 q 475 996 505 991 q 413 1001 446 1001 q 261 967 327 1001 q 151 876 196 933 q 83 735 106 816 q 60 562 60 654 l 60 425 q 65 338 60 380 q 80 258 70 296 q 106 187 91 221 q 142 123 122 153 l 36 -64 l 154 -64 l 218 47 q 306 2 258 18 q 414 -14 355 -14 q 566 19 499 -14 q 679 110 633 52 q 751 251 726 170 q 776 425 776 332 m 238 425 l 238 563 q 247 675 238 622 q 277 769 256 729 q 330 830 297 807 q 413 852 363 852 q 450 849 433 852 q 481 838 467 845 q 508 823 496 832 q 530 802 519 814 l 250 312 q 246 334 248 323 q 242 355 244 345 q 239 390 240 372 q 238 425 238 407 m 597 563 l 597 425 q 586 309 597 363 q 551 213 575 254 q 495 155 529 176 q 414 134 461 134 q 347 148 375 134 q 297 186 318 161 l 583 688 q 594 627 591 659 q 597 563 597 595 m 469 1279 l 342 1091 l 478 1091 l 665 1279 l 469 1279 z "},"Õ":{"ha":833,"x_min":58,"x_max":774,"o":"m 774 425 l 774 562 q 762 684 774 626 q 728 793 751 743 q 677 877 707 838 q 608 942 648 915 q 519 985 569 970 q 412 1001 469 1001 q 306 986 354 1001 q 219 943 258 970 q 150 875 180 914 q 100 789 121 836 q 69 682 79 739 q 58 562 58 624 l 58 425 q 68 310 58 365 q 96 208 77 256 q 147 116 117 157 q 216 46 178 75 q 305 2 256 18 q 412 -14 354 -14 q 515 1 468 -14 q 602 41 563 15 q 677 110 644 69 q 731 201 709 151 q 763 306 752 250 q 774 425 774 363 m 595 563 l 595 425 q 592 353 595 388 q 580 288 588 318 q 554 221 570 251 q 515 171 538 191 q 470 143 496 153 q 412 134 444 134 q 354 144 379 134 q 309 172 328 154 q 273 223 288 192 q 250 290 258 254 q 240 354 243 320 q 237 425 237 389 l 237 563 q 240 635 237 600 q 251 702 243 671 q 276 770 260 740 q 315 820 292 800 q 357 844 334 836 q 412 852 381 852 q 468 843 443 852 q 512 819 492 834 q 552 768 536 798 q 579 702 569 739 q 592 635 588 671 q 595 563 595 600 m 664 1274 l 574 1295 q 569 1268 574 1280 q 557 1247 565 1256 q 536 1232 549 1238 q 511 1227 524 1227 q 463 1236 486 1227 q 418 1257 439 1246 q 371 1278 395 1268 q 320 1287 348 1287 q 261 1273 288 1287 q 216 1235 235 1258 q 186 1182 197 1212 q 176 1123 176 1153 l 266 1103 q 274 1137 266 1122 q 294 1158 281 1152 q 316 1167 304 1164 q 340 1168 328 1170 q 384 1158 364 1166 q 423 1139 403 1149 q 466 1120 443 1128 q 519 1112 488 1112 q 578 1125 551 1112 q 624 1162 604 1139 q 653 1214 643 1185 q 664 1274 664 1244 z "},"Ŕ":{"ha":833,"x_min":96,"x_max":805,"o":"m 429 376 l 616 0 l 805 0 l 805 9 l 593 419 q 667 463 634 437 q 724 522 700 488 q 760 596 747 554 q 773 690 773 638 q 748 819 773 764 q 675 911 722 875 q 563 968 628 949 q 418 987 498 987 l 96 987 l 96 0 l 273 0 l 273 376 l 429 376 m 273 520 l 273 844 l 418 844 q 491 833 459 844 q 546 804 523 823 q 583 752 570 784 q 595 680 595 721 q 585 617 595 645 q 555 569 574 589 q 497 533 532 545 q 420 520 463 520 l 273 520 m 457 1229 l 331 1041 l 467 1041 l 653 1229 l 457 1229 z "},"Ř":{"ha":833,"x_min":96,"x_max":805,"o":"m 429 376 l 616 0 l 805 0 l 805 9 l 593 419 q 667 463 634 437 q 724 522 700 488 q 760 596 747 554 q 773 690 773 638 q 748 819 773 764 q 675 911 722 875 q 563 968 628 949 q 418 987 498 987 l 96 987 l 96 0 l 273 0 l 273 376 l 429 376 m 273 520 l 273 844 l 418 844 q 491 833 459 844 q 546 804 523 823 q 583 752 570 784 q 595 680 595 721 q 585 617 595 645 q 555 569 574 589 q 497 533 532 545 q 420 520 463 520 l 273 520 m 406 1168 l 307 1257 l 157 1257 l 157 1244 l 351 1074 l 461 1074 l 656 1244 l 656 1257 l 507 1257 l 406 1168 z "},"Ŗ":{"ha":833,"x_min":96,"x_max":805,"o":"m 429 376 l 616 0 l 805 0 l 805 9 l 593 419 q 667 463 634 437 q 724 522 700 488 q 760 596 747 554 q 773 690 773 638 q 748 819 773 764 q 675 911 722 875 q 563 968 628 949 q 418 987 498 987 l 96 987 l 96 0 l 273 0 l 273 376 l 429 376 m 273 520 l 273 844 l 418 844 q 491 833 459 844 q 546 804 523 823 q 583 752 570 784 q 595 680 595 721 q 585 617 595 645 q 555 569 574 589 q 497 533 532 545 q 420 520 463 520 l 273 520 m 479 -85 l 479 -38 l 353 -38 l 353 -87 q 340 -182 353 -138 q 302 -269 328 -227 l 378 -320 q 454 -210 429 -275 q 479 -85 479 -145 z "},"Ś":{"ha":833,"x_min":64,"x_max":785,"o":"m 608 256 q 596 203 608 227 q 562 163 584 179 q 509 138 540 146 q 441 129 479 129 q 361 139 397 129 q 298 170 325 149 q 257 224 272 192 q 239 302 241 257 l 64 302 q 94 172 65 228 q 172 75 123 116 q 296 9 225 32 q 441 -13 368 -13 q 575 5 513 -13 q 684 57 638 22 q 758 142 731 92 q 785 257 785 192 q 751 387 785 331 q 663 484 718 443 q 575 534 623 513 q 475 570 527 555 q 393 597 431 583 q 328 631 355 612 q 284 672 300 648 q 269 728 269 696 q 281 781 269 757 q 314 823 292 805 q 366 849 336 840 q 434 859 397 859 q 508 847 476 859 q 562 814 540 835 q 595 764 583 793 q 609 699 607 734 l 783 699 q 756 821 783 766 q 684 917 730 877 q 575 979 638 957 q 437 1001 511 1001 q 303 982 366 1001 q 195 927 241 963 q 121 841 148 892 q 94 728 94 790 q 116 625 94 671 q 178 541 138 578 q 279 474 218 504 q 415 422 339 444 q 501 393 465 409 q 562 357 537 376 q 597 311 585 336 q 608 256 608 286 m 486 1251 l 360 1063 l 496 1063 l 682 1251 l 486 1251 z "},"Š":{"ha":833,"x_min":64,"x_max":785,"o":"m 608 256 q 596 203 608 227 q 562 163 584 179 q 509 138 540 146 q 441 129 479 129 q 361 139 397 129 q 298 170 325 149 q 257 224 272 192 q 239 302 241 257 l 64 302 q 94 172 65 228 q 172 75 123 116 q 296 9 225 32 q 441 -13 368 -13 q 575 5 513 -13 q 684 57 638 22 q 758 142 731 92 q 785 257 785 192 q 751 387 785 331 q 663 484 718 443 q 575 534 623 513 q 475 570 527 555 q 393 597 431 583 q 328 631 355 612 q 284 672 300 648 q 269 728 269 696 q 281 781 269 757 q 314 823 292 805 q 366 849 336 840 q 434 859 397 859 q 508 847 476 859 q 562 814 540 835 q 595 764 583 793 q 609 699 607 734 l 783 699 q 756 821 783 766 q 684 917 730 877 q 575 979 638 957 q 437 1001 511 1001 q 303 982 366 1001 q 195 927 241 963 q 121 841 148 892 q 94 728 94 790 q 116 625 94 671 q 178 541 138 578 q 279 474 218 504 q 415 422 339 444 q 501 393 465 409 q 562 357 537 376 q 597 311 585 336 q 608 256 608 286 m 435 1191 l 335 1280 l 186 1280 l 186 1266 l 380 1096 l 490 1096 l 684 1267 l 684 1280 l 535 1280 l 435 1191 z "},"Ş":{"ha":833,"x_min":64,"x_max":785,"o":"m 608 256 q 596 203 608 227 q 562 163 584 179 q 509 138 540 146 q 441 129 479 129 q 361 139 397 129 q 298 170 325 149 q 257 224 272 192 q 239 302 241 257 l 64 302 q 94 172 65 228 q 172 75 123 116 q 296 9 225 32 q 441 -13 368 -13 q 575 5 513 -13 q 684 57 638 22 q 758 142 731 92 q 785 257 785 192 q 751 387 785 331 q 663 484 718 443 q 575 534 623 513 q 475 570 527 555 q 393 597 431 583 q 328 631 355 612 q 284 672 300 648 q 269 728 269 696 q 281 781 269 757 q 314 823 292 805 q 366 849 336 840 q 434 859 397 859 q 508 847 476 859 q 562 814 540 835 q 595 764 583 793 q 609 699 607 734 l 783 699 q 756 821 783 766 q 684 917 730 877 q 575 979 638 957 q 437 1001 511 1001 q 303 982 366 1001 q 195 927 241 963 q 121 841 148 892 q 94 728 94 790 q 116 625 94 671 q 178 541 138 578 q 279 474 218 504 q 415 422 339 444 q 501 393 465 409 q 562 357 537 376 q 597 311 585 336 q 608 256 608 286 m 509 -3 l 380 -3 l 359 -98 q 405 -103 385 -100 q 436 -113 424 -106 q 453 -130 448 -120 q 459 -154 459 -140 q 452 -181 459 -170 q 433 -199 446 -193 q 406 -209 422 -206 q 372 -212 390 -212 l 376 -313 q 472 -303 431 -313 q 543 -273 514 -292 q 589 -224 573 -253 q 604 -158 604 -195 q 595 -108 604 -129 q 572 -73 587 -87 q 539 -52 558 -60 q 502 -41 521 -44 l 509 -3 z "},"Ŝ":{"ha":833,"x_min":64,"x_max":785,"o":"m 608 256 q 596 203 608 227 q 562 163 584 179 q 509 138 540 146 q 441 129 479 129 q 361 139 397 129 q 298 170 325 149 q 257 224 272 192 q 239 302 241 257 l 64 302 q 94 172 65 228 q 172 75 123 116 q 296 9 225 32 q 441 -13 368 -13 q 575 5 513 -13 q 684 57 638 22 q 758 142 731 92 q 785 257 785 192 q 751 387 785 331 q 663 484 718 443 q 575 534 623 513 q 475 570 527 555 q 393 597 431 583 q 328 631 355 612 q 284 672 300 648 q 269 728 269 696 q 281 781 269 757 q 314 823 292 805 q 366 849 336 840 q 434 859 397 859 q 508 847 476 859 q 562 814 540 835 q 595 764 583 793 q 609 699 607 734 l 783 699 q 756 821 783 766 q 684 917 730 877 q 575 979 638 957 q 437 1001 511 1001 q 303 982 366 1001 q 195 927 241 963 q 121 841 148 892 q 94 728 94 790 q 116 625 94 671 q 178 541 138 578 q 279 474 218 504 q 415 422 339 444 q 501 393 465 409 q 562 357 537 376 q 597 311 585 336 q 608 256 608 286 m 680 1115 l 487 1279 l 385 1279 l 194 1116 l 194 1096 l 332 1096 l 435 1186 l 539 1096 l 680 1096 l 680 1115 z "},"Ŧ":{"ha":833,"x_min":25,"x_max":808,"o":"m 660 523 l 660 641 l 503 641 l 503 842 l 808 842 l 808 987 l 25 987 l 25 842 l 327 842 l 327 641 l 172 641 l 172 523 l 327 523 l 327 0 l 503 0 l 503 523 l 660 523 z "},"Ť":{"ha":833,"x_min":25,"x_max":808,"o":"m 808 842 l 808 987 l 25 987 l 25 842 l 327 842 l 327 0 l 503 0 l 503 842 l 808 842 m 418 1173 l 319 1262 l 170 1262 l 170 1249 l 363 1078 l 473 1078 l 668 1249 l 668 1262 l 519 1262 l 418 1173 z "},"Ú":{"ha":833,"x_min":87,"x_max":745,"o":"m 745 987 l 570 987 l 569 330 q 558 245 568 283 q 528 182 548 208 q 479 143 509 157 q 413 130 450 130 q 351 143 378 130 q 305 180 323 155 q 276 243 286 205 q 265 330 266 281 l 264 987 l 88 987 l 87 330 q 111 186 87 250 q 177 78 134 122 q 279 10 220 34 q 413 -14 339 -14 q 552 10 491 -14 q 656 79 614 34 q 722 186 699 123 q 745 330 745 250 l 745 987 m 479 1234 l 353 1046 l 488 1046 l 675 1234 l 479 1234 z "},"Ŭ":{"ha":833,"x_min":87,"x_max":745,"o":"m 745 987 l 570 987 l 569 330 q 558 245 568 283 q 528 182 548 208 q 479 143 509 157 q 413 130 450 130 q 351 143 378 130 q 305 180 323 155 q 276 243 286 205 q 265 330 266 281 l 264 987 l 88 987 l 87 330 q 111 186 87 250 q 177 78 134 122 q 279 10 220 34 q 413 -14 339 -14 q 552 10 491 -14 q 656 79 614 34 q 722 186 699 123 q 745 330 745 250 l 745 987 m 653 1257 l 524 1257 q 519 1222 524 1240 q 503 1193 513 1205 q 472 1172 490 1180 q 429 1164 454 1164 q 384 1172 402 1164 q 354 1192 366 1180 q 337 1222 342 1205 q 332 1257 332 1239 l 203 1257 q 219 1179 203 1215 q 264 1117 235 1143 q 335 1077 293 1091 q 429 1063 376 1063 q 522 1077 480 1063 q 593 1117 564 1091 q 637 1179 622 1143 q 653 1257 653 1215 z "},"Û":{"ha":833,"x_min":87,"x_max":745,"o":"m 745 987 l 570 987 l 569 330 q 558 245 568 283 q 528 182 548 208 q 479 143 509 157 q 413 130 450 130 q 351 143 378 130 q 305 180 323 155 q 276 243 286 205 q 265 330 266 281 l 264 987 l 88 987 l 87 330 q 111 186 87 250 q 177 78 134 122 q 279 10 220 34 q 413 -14 339 -14 q 552 10 491 -14 q 656 79 614 34 q 722 186 699 123 q 745 330 745 250 l 745 987 m 672 1097 l 479 1261 l 377 1261 l 186 1099 l 186 1078 l 325 1078 l 428 1168 l 532 1078 l 672 1078 l 672 1097 z "},"Ü":{"ha":833,"x_min":87,"x_max":745,"o":"m 745 987 l 570 987 l 569 330 q 558 245 568 283 q 528 182 548 208 q 479 143 509 157 q 413 130 450 130 q 351 143 378 130 q 305 180 323 155 q 276 243 286 205 q 265 330 266 281 l 264 987 l 88 987 l 87 330 q 111 186 87 250 q 177 78 134 122 q 279 10 220 34 q 413 -14 339 -14 q 552 10 491 -14 q 656 79 614 34 q 722 186 699 123 q 745 330 745 250 l 745 987 m 177 1160 q 201 1102 177 1125 q 265 1078 226 1078 q 329 1102 304 1078 q 353 1160 353 1125 q 329 1218 353 1194 q 265 1242 305 1242 q 201 1218 225 1242 q 177 1160 177 1194 m 495 1160 q 519 1101 495 1124 q 583 1077 544 1077 q 648 1101 623 1077 q 672 1160 672 1124 q 648 1217 672 1194 q 583 1241 624 1241 q 519 1217 543 1241 q 495 1160 495 1194 z "},"Ù":{"ha":833,"x_min":87,"x_max":745,"o":"m 745 987 l 570 987 l 569 330 q 558 245 568 283 q 528 182 548 208 q 479 143 509 157 q 413 130 450 130 q 351 143 378 130 q 305 180 323 155 q 276 243 286 205 q 265 330 266 281 l 264 987 l 88 987 l 87 330 q 111 186 87 250 q 177 78 134 122 q 279 10 220 34 q 413 -14 339 -14 q 552 10 491 -14 q 656 79 614 34 q 722 186 699 123 q 745 330 745 250 l 745 987 m 500 1048 l 380 1236 l 184 1236 l 361 1048 l 500 1048 z "},"Ư":{"ha":833,"x_min":91,"x_max":985,"o":"m 749 987 l 574 987 l 572 330 q 561 243 572 281 q 530 180 551 205 q 482 143 511 156 q 417 130 454 130 q 350 145 379 130 q 303 189 321 160 q 278 250 287 214 q 269 330 269 286 l 267 987 l 92 987 l 91 330 q 115 186 91 250 q 180 78 138 122 q 283 10 223 34 q 417 -14 343 -14 q 556 10 494 -14 q 661 79 617 34 q 726 186 703 123 q 749 330 749 250 l 749 753 q 857 773 812 755 q 930 825 901 791 q 971 908 958 858 q 985 1024 985 958 l 854 1024 q 850 953 854 983 q 836 903 847 923 q 804 870 825 882 q 749 857 783 859 l 749 987 z "},"Ű":{"ha":833,"x_min":87,"x_max":800,"o":"m 745 987 l 570 987 l 569 330 q 558 245 568 283 q 528 182 548 208 q 479 143 509 157 q 413 130 450 130 q 351 143 378 130 q 305 180 323 155 q 276 243 286 205 q 265 330 266 281 l 264 987 l 88 987 l 87 330 q 111 186 87 250 q 177 78 134 122 q 279 10 220 34 q 413 -14 339 -14 q 552 10 491 -14 q 656 79 614 34 q 722 186 699 123 q 745 330 745 250 l 745 987 m 622 1263 l 455 1082 l 593 1082 l 800 1263 l 622 1263 m 379 1263 l 244 1082 l 376 1082 l 549 1263 l 379 1263 z "},"Ū":{"ha":833,"x_min":87,"x_max":745,"o":"m 745 987 l 570 987 l 569 330 q 558 245 568 283 q 528 182 548 208 q 479 143 509 157 q 413 130 450 130 q 351 143 378 130 q 305 180 323 155 q 276 243 286 205 q 265 330 266 281 l 264 987 l 88 987 l 87 330 q 111 186 87 250 q 177 78 134 122 q 279 10 220 34 q 413 -14 339 -14 q 552 10 491 -14 q 656 79 614 34 q 722 186 699 123 q 745 330 745 250 l 745 987 m 676 1095 l 676 1204 l 184 1204 l 184 1095 l 676 1095 z "},"Ų":{"ha":833,"x_min":87,"x_max":745,"o":"m 745 987 l 570 987 l 569 330 q 558 247 568 283 q 529 184 548 210 q 480 144 509 157 q 413 130 451 130 q 349 144 377 130 q 302 184 321 158 q 275 247 284 210 q 265 330 265 283 l 264 987 l 88 987 l 87 330 q 110 189 87 252 q 174 82 132 127 q 269 15 213 39 q 393 -13 325 -9 q 397 -13 395 -13 q 400 -13 399 -13 q 388 -33 393 -22 q 378 -53 382 -43 q 370 -81 373 -67 q 367 -109 367 -95 q 378 -169 367 -143 q 410 -212 390 -195 q 456 -238 430 -229 q 513 -248 483 -248 q 590 -238 559 -248 q 639 -218 620 -228 l 609 -118 q 585 -127 600 -122 q 550 -132 570 -132 q 514 -119 524 -132 q 503 -85 503 -105 q 506 -58 503 -71 q 515 -33 509 -45 q 533 -9 522 -20 q 559 13 544 3 q 633 57 600 30 q 690 120 667 83 q 731 214 717 161 q 745 330 745 267 l 745 987 z "},"Ů":{"ha":833,"x_min":87,"x_max":745,"o":"m 745 987 l 570 987 l 569 330 q 558 245 568 283 q 528 182 548 208 q 479 143 509 157 q 413 130 450 130 q 351 143 378 130 q 305 180 323 155 q 276 243 286 205 q 265 330 266 281 l 264 987 l 88 987 l 87 330 q 111 186 87 250 q 177 78 134 122 q 279 10 220 34 q 413 -14 339 -14 q 552 10 491 -14 q 656 79 614 34 q 722 186 699 123 q 745 330 745 250 l 745 987 m 285 1171 q 296 1118 285 1142 q 328 1078 307 1095 q 373 1050 347 1060 q 429 1041 399 1041 q 484 1050 458 1041 q 528 1078 509 1060 q 558 1118 547 1095 q 569 1171 569 1142 q 558 1224 569 1200 q 528 1267 547 1249 q 484 1295 509 1284 q 429 1305 458 1305 q 373 1295 399 1305 q 327 1267 347 1284 q 296 1224 307 1249 q 285 1171 285 1200 m 360 1171 q 366 1199 360 1187 q 380 1221 371 1212 q 401 1235 389 1230 q 429 1240 414 1240 q 455 1236 443 1240 q 476 1221 467 1231 q 489 1200 484 1213 q 494 1171 494 1187 q 489 1143 494 1156 q 474 1122 484 1131 q 454 1108 466 1113 q 429 1104 442 1104 q 402 1109 414 1104 q 380 1122 389 1114 q 366 1144 372 1131 q 360 1171 360 1156 z "},"Ũ":{"ha":833,"x_min":87,"x_max":745,"o":"m 745 987 l 570 987 l 569 330 q 558 245 568 283 q 528 182 548 208 q 479 143 509 157 q 413 130 450 130 q 351 143 378 130 q 305 180 323 155 q 276 243 286 205 q 265 330 266 281 l 264 987 l 88 987 l 87 330 q 111 186 87 250 q 177 78 134 122 q 279 10 220 34 q 413 -14 339 -14 q 552 10 491 -14 q 656 79 614 34 q 722 186 699 123 q 745 330 745 250 l 745 987 m 672 1257 l 582 1278 q 577 1251 582 1263 q 565 1230 573 1238 q 545 1215 557 1220 q 519 1209 532 1209 q 471 1219 494 1209 q 426 1240 448 1228 q 379 1260 403 1251 q 328 1270 356 1270 q 269 1255 296 1270 q 224 1217 243 1240 q 194 1165 205 1194 q 184 1105 184 1135 l 274 1086 q 282 1119 274 1105 q 302 1140 290 1134 q 325 1149 313 1147 q 349 1151 336 1152 q 392 1140 372 1149 q 431 1121 411 1131 q 474 1102 451 1110 q 527 1094 496 1094 q 586 1108 559 1094 q 632 1145 612 1122 q 662 1197 651 1167 q 672 1257 672 1226 z "},"Ẃ":{"ha":833,"x_min":24,"x_max":815,"o":"m 157 0 l 320 0 l 410 568 l 418 617 l 425 568 l 519 0 l 682 0 l 815 987 l 652 987 l 584 408 l 579 366 l 573 407 l 482 987 l 352 987 l 265 410 l 258 370 l 254 408 l 187 987 l 24 987 l 157 0 m 465 1237 l 339 1049 l 475 1049 l 661 1237 l 465 1237 z "},"Ŵ":{"ha":833,"x_min":24,"x_max":815,"o":"m 157 0 l 320 0 l 410 568 l 418 617 l 425 568 l 519 0 l 682 0 l 815 987 l 652 987 l 584 408 l 579 366 l 573 407 l 482 987 l 352 987 l 265 410 l 258 370 l 254 408 l 187 987 l 24 987 l 157 0 m 659 1101 l 466 1265 l 363 1265 l 173 1102 l 173 1082 l 311 1082 l 414 1172 l 518 1082 l 659 1082 l 659 1101 z "},"Ẅ":{"ha":833,"x_min":24,"x_max":815,"o":"m 157 0 l 320 0 l 410 568 l 418 617 l 425 568 l 519 0 l 682 0 l 815 987 l 652 987 l 584 408 l 579 366 l 573 407 l 482 987 l 352 987 l 265 410 l 258 370 l 254 408 l 187 987 l 24 987 l 157 0 m 163 1163 q 188 1105 163 1128 q 252 1082 212 1082 q 315 1105 291 1082 q 340 1163 340 1128 q 316 1221 340 1198 q 252 1245 292 1245 q 188 1221 212 1245 q 163 1163 163 1198 m 481 1163 q 506 1104 481 1128 q 570 1080 530 1080 q 634 1104 610 1080 q 659 1163 659 1128 q 634 1221 659 1197 q 570 1244 610 1244 q 506 1221 530 1244 q 481 1163 481 1197 z "},"Ẁ":{"ha":833,"x_min":24,"x_max":815,"o":"m 157 0 l 320 0 l 410 568 l 418 617 l 425 568 l 519 0 l 682 0 l 815 987 l 652 987 l 584 408 l 579 366 l 573 407 l 482 987 l 352 987 l 265 410 l 258 370 l 254 408 l 187 987 l 24 987 l 157 0 m 486 1051 l 366 1239 l 171 1239 l 347 1051 l 486 1051 z "},"Ý":{"ha":833,"x_min":26,"x_max":819,"o":"m 422 524 l 222 987 l 26 987 l 332 354 l 334 0 l 508 0 l 509 347 l 819 987 l 623 987 l 422 524 m 474 1236 l 348 1048 l 484 1048 l 670 1236 l 474 1236 z "},"Ŷ":{"ha":833,"x_min":26,"x_max":819,"o":"m 422 524 l 222 987 l 26 987 l 332 354 l 334 0 l 508 0 l 509 347 l 819 987 l 623 987 l 422 524 m 667 1100 l 474 1264 l 372 1264 l 181 1101 l 181 1081 l 319 1081 l 422 1171 l 526 1081 l 667 1081 l 667 1100 z "},"Ÿ":{"ha":833,"x_min":26,"x_max":819,"o":"m 422 524 l 222 987 l 26 987 l 332 354 l 334 0 l 508 0 l 509 347 l 819 987 l 623 987 l 422 524 m 172 1162 q 197 1104 172 1128 q 260 1081 221 1081 q 324 1104 300 1081 q 349 1162 349 1128 q 325 1221 349 1197 q 260 1244 300 1244 q 196 1221 220 1244 q 172 1162 172 1197 m 490 1162 q 515 1103 490 1127 q 578 1080 539 1080 q 643 1103 618 1080 q 667 1162 667 1127 q 643 1220 667 1196 q 578 1244 619 1244 q 514 1220 538 1244 q 490 1162 490 1196 z "},"Ỳ":{"ha":833,"x_min":26,"x_max":819,"o":"m 422 524 l 222 987 l 26 987 l 332 354 l 334 0 l 508 0 l 509 347 l 819 987 l 623 987 l 422 524 m 495 1050 l 375 1238 l 180 1238 l 356 1050 l 495 1050 z "},"Ź":{"ha":833,"x_min":64,"x_max":771,"o":"m 277 144 l 758 878 l 758 987 l 67 987 l 67 842 l 545 842 l 64 113 l 64 0 l 771 0 l 771 144 l 277 144 m 481 1234 l 355 1046 l 491 1046 l 677 1234 l 481 1234 z "},"Ž":{"ha":833,"x_min":64,"x_max":771,"o":"m 277 144 l 758 878 l 758 987 l 67 987 l 67 842 l 545 842 l 64 113 l 64 0 l 771 0 l 771 144 l 277 144 m 430 1173 l 330 1262 l 181 1262 l 181 1249 l 375 1078 l 485 1078 l 680 1249 l 680 1262 l 530 1262 l 430 1173 z "},"Ż":{"ha":833,"x_min":64,"x_max":771,"o":"m 277 144 l 758 878 l 758 987 l 67 987 l 67 842 l 545 842 l 64 113 l 64 0 l 771 0 l 771 144 l 277 144 m 332 1165 q 357 1101 332 1126 q 429 1075 383 1075 q 500 1101 474 1075 q 526 1165 526 1126 q 500 1230 526 1204 q 429 1256 474 1256 q 357 1230 383 1256 q 332 1165 332 1204 z "},"á":{"ha":833,"x_min":84,"x_max":743,"o":"m 564 0 l 743 0 l 743 12 q 721 79 728 40 q 714 172 714 118 l 714 492 q 690 604 714 556 q 626 684 667 652 q 528 731 584 715 q 406 747 471 747 q 276 729 333 747 q 180 678 220 710 q 120 605 141 646 q 100 519 100 564 l 275 519 q 282 556 275 539 q 303 586 289 574 q 341 607 318 600 q 396 614 365 614 q 458 606 431 614 q 503 581 485 597 q 530 543 521 565 q 538 494 538 522 l 538 448 l 427 448 q 284 433 347 448 q 178 390 221 418 q 108 313 132 359 q 84 205 84 266 q 103 118 84 158 q 155 48 121 77 q 236 3 189 19 q 340 -14 283 -14 q 405 -7 374 -14 q 461 12 435 0 q 507 38 486 23 q 545 71 528 54 q 552 32 547 51 q 564 0 557 14 m 375 125 q 325 132 347 125 q 289 151 303 139 q 267 181 274 163 q 259 220 259 199 q 269 268 259 246 q 298 305 279 290 q 355 331 320 322 q 438 340 389 340 l 538 340 l 538 209 q 514 178 530 193 q 478 151 499 163 q 431 132 457 139 q 375 125 406 125 m 460 1019 l 334 831 l 469 831 l 656 1019 l 460 1019 z "},"ă":{"ha":833,"x_min":84,"x_max":743,"o":"m 564 0 l 743 0 l 743 12 q 721 79 728 40 q 714 172 714 118 l 714 492 q 690 604 714 556 q 626 684 667 652 q 528 731 584 715 q 406 747 471 747 q 276 729 333 747 q 180 678 220 710 q 120 605 141 646 q 100 519 100 564 l 275 519 q 282 556 275 539 q 303 586 289 574 q 341 607 318 600 q 396 614 365 614 q 458 606 431 614 q 503 581 485 597 q 530 543 521 565 q 538 494 538 522 l 538 448 l 427 448 q 284 433 347 448 q 178 390 221 418 q 108 313 132 359 q 84 205 84 266 q 103 118 84 158 q 155 48 121 77 q 236 3 189 19 q 340 -14 283 -14 q 405 -7 374 -14 q 461 12 435 0 q 507 38 486 23 q 545 71 528 54 q 552 32 547 51 q 564 0 557 14 m 375 125 q 325 132 347 125 q 289 151 303 139 q 267 181 274 163 q 259 220 259 199 q 269 268 259 246 q 298 305 279 290 q 355 331 320 322 q 438 340 389 340 l 538 340 l 538 209 q 514 178 530 193 q 478 151 499 163 q 431 132 457 139 q 375 125 406 125 m 634 1042 l 505 1042 q 500 1007 505 1025 q 484 978 494 990 q 453 957 471 965 q 410 949 435 949 q 365 957 383 949 q 335 977 347 965 q 318 1007 323 990 q 313 1042 313 1024 l 184 1042 q 200 964 184 1000 q 245 902 216 928 q 316 862 274 876 q 410 848 357 848 q 503 862 461 848 q 574 902 545 876 q 618 964 603 928 q 634 1042 634 1000 z "},"â":{"ha":833,"x_min":84,"x_max":743,"o":"m 564 0 l 743 0 l 743 12 q 721 79 728 40 q 714 172 714 118 l 714 492 q 690 604 714 556 q 626 684 667 652 q 528 731 584 715 q 406 747 471 747 q 276 729 333 747 q 180 678 220 710 q 120 605 141 646 q 100 519 100 564 l 275 519 q 282 556 275 539 q 303 586 289 574 q 341 607 318 600 q 396 614 365 614 q 458 606 431 614 q 503 581 485 597 q 530 543 521 565 q 538 494 538 522 l 538 448 l 427 448 q 284 433 347 448 q 178 390 221 418 q 108 313 132 359 q 84 205 84 266 q 103 118 84 158 q 155 48 121 77 q 236 3 189 19 q 340 -14 283 -14 q 405 -7 374 -14 q 461 12 435 0 q 507 38 486 23 q 545 71 528 54 q 552 32 547 51 q 564 0 557 14 m 375 125 q 325 132 347 125 q 289 151 303 139 q 267 181 274 163 q 259 220 259 199 q 269 268 259 246 q 298 305 279 290 q 355 331 320 322 q 438 340 389 340 l 538 340 l 538 209 q 514 178 530 193 q 478 151 499 163 q 431 132 457 139 q 375 125 406 125 m 652 882 l 460 1046 l 357 1046 l 167 884 l 167 863 l 305 863 l 408 954 l 512 863 l 652 863 l 652 882 z "},"ä":{"ha":833,"x_min":84,"x_max":743,"o":"m 564 0 l 743 0 l 743 12 q 721 79 728 40 q 714 172 714 118 l 714 492 q 690 604 714 556 q 626 684 667 652 q 528 731 584 715 q 406 747 471 747 q 276 729 333 747 q 180 678 220 710 q 120 605 141 646 q 100 519 100 564 l 275 519 q 282 556 275 539 q 303 586 289 574 q 341 607 318 600 q 396 614 365 614 q 458 606 431 614 q 503 581 485 597 q 530 543 521 565 q 538 494 538 522 l 538 448 l 427 448 q 284 433 347 448 q 178 390 221 418 q 108 313 132 359 q 84 205 84 266 q 103 118 84 158 q 155 48 121 77 q 236 3 189 19 q 340 -14 283 -14 q 405 -7 374 -14 q 461 12 435 0 q 507 38 486 23 q 545 71 528 54 q 552 32 547 51 q 564 0 557 14 m 375 125 q 325 132 347 125 q 289 151 303 139 q 267 181 274 163 q 259 220 259 199 q 269 268 259 246 q 298 305 279 290 q 355 331 320 322 q 438 340 389 340 l 538 340 l 538 209 q 514 178 530 193 q 478 151 499 163 q 431 132 457 139 q 375 125 406 125 m 158 945 q 182 887 158 910 q 246 863 207 863 q 310 887 286 863 q 334 945 334 910 q 310 1003 334 979 q 246 1027 286 1027 q 182 1003 206 1027 q 158 945 158 979 m 476 945 q 500 886 476 909 q 564 862 525 862 q 629 886 604 862 q 653 945 653 909 q 629 1002 653 979 q 564 1026 605 1026 q 500 1002 524 1026 q 476 945 476 979 z "},"à":{"ha":833,"x_min":84,"x_max":743,"o":"m 564 0 l 743 0 l 743 12 q 721 79 728 40 q 714 172 714 118 l 714 492 q 690 604 714 556 q 626 684 667 652 q 528 731 584 715 q 406 747 471 747 q 276 729 333 747 q 180 678 220 710 q 120 605 141 646 q 100 519 100 564 l 275 519 q 282 556 275 539 q 303 586 289 574 q 341 607 318 600 q 396 614 365 614 q 458 606 431 614 q 503 581 485 597 q 530 543 521 565 q 538 494 538 522 l 538 448 l 427 448 q 284 433 347 448 q 178 390 221 418 q 108 313 132 359 q 84 205 84 266 q 103 118 84 158 q 155 48 121 77 q 236 3 189 19 q 340 -14 283 -14 q 405 -7 374 -14 q 461 12 435 0 q 507 38 486 23 q 545 71 528 54 q 552 32 547 51 q 564 0 557 14 m 375 125 q 325 132 347 125 q 289 151 303 139 q 267 181 274 163 q 259 220 259 199 q 269 268 259 246 q 298 305 279 290 q 355 331 320 322 q 438 340 389 340 l 538 340 l 538 209 q 514 178 530 193 q 478 151 499 163 q 431 132 457 139 q 375 125 406 125 m 480 833 l 360 1021 l 165 1021 l 341 833 l 480 833 z "},"ā":{"ha":833,"x_min":84,"x_max":743,"o":"m 564 0 l 743 0 l 743 12 q 721 79 728 40 q 714 172 714 118 l 714 492 q 690 604 714 556 q 626 684 667 652 q 528 731 584 715 q 406 747 471 747 q 276 729 333 747 q 180 678 220 710 q 120 605 141 646 q 100 519 100 564 l 275 519 q 282 556 275 539 q 303 586 289 574 q 341 607 318 600 q 396 614 365 614 q 458 606 431 614 q 503 581 485 597 q 530 543 521 565 q 538 494 538 522 l 538 448 l 427 448 q 284 433 347 448 q 178 390 221 418 q 108 313 132 359 q 84 205 84 266 q 103 118 84 158 q 155 48 121 77 q 236 3 189 19 q 340 -14 283 -14 q 405 -7 374 -14 q 461 12 435 0 q 507 38 486 23 q 545 71 528 54 q 552 32 547 51 q 564 0 557 14 m 375 125 q 325 132 347 125 q 289 151 303 139 q 267 181 274 163 q 259 220 259 199 q 269 268 259 246 q 298 305 279 290 q 355 331 320 322 q 438 340 389 340 l 538 340 l 538 209 q 514 178 530 193 q 478 151 499 163 q 431 132 457 139 q 375 125 406 125 m 656 880 l 656 989 l 164 989 l 164 880 l 656 880 z "},"ą":{"ha":833,"x_min":84,"x_max":743,"o":"m 560 7 q 524 -23 540 -7 q 496 -57 508 -40 q 473 -103 481 -79 q 465 -151 465 -127 q 477 -211 465 -185 q 509 -254 488 -236 q 555 -280 528 -271 q 612 -289 581 -289 q 688 -279 659 -289 q 737 -259 718 -269 l 707 -159 q 683 -169 698 -163 q 648 -174 669 -174 q 612 -160 623 -174 q 602 -127 602 -147 q 607 -91 602 -108 q 625 -58 612 -74 q 659 -27 637 -42 q 709 0 680 -13 l 743 0 l 743 12 q 721 79 728 40 q 714 172 714 118 l 714 492 q 690 604 714 556 q 626 684 667 652 q 528 731 584 715 q 406 747 471 747 q 276 729 333 747 q 180 678 220 710 q 120 605 141 646 q 100 519 100 564 l 275 519 q 284 560 275 541 q 309 591 292 578 q 346 608 324 602 q 396 614 368 614 q 461 605 433 614 q 507 577 489 595 q 530 541 522 562 q 538 494 538 519 l 538 448 l 427 448 q 289 434 350 448 q 186 395 229 421 q 110 316 136 364 q 84 205 84 268 q 103 118 84 158 q 155 48 121 77 q 236 3 189 19 q 340 -14 283 -14 q 405 -7 374 -14 q 461 12 435 0 q 507 38 486 23 q 545 71 528 54 q 551 37 547 53 q 560 7 555 20 m 375 125 q 321 133 344 125 q 284 155 298 141 q 265 184 271 168 q 259 220 259 201 q 269 268 259 246 q 298 305 279 290 q 354 331 319 321 q 438 340 389 340 l 538 340 l 538 209 q 514 178 530 193 q 478 151 499 163 q 431 132 457 139 q 375 125 406 125 z "},"å":{"ha":833,"x_min":84,"x_max":743,"o":"m 564 0 l 743 0 l 743 12 q 721 79 728 40 q 714 172 714 118 l 714 492 q 690 604 714 556 q 626 684 667 652 q 528 731 584 715 q 406 747 471 747 q 276 729 333 747 q 180 678 220 710 q 120 605 141 646 q 100 519 100 564 l 275 519 q 282 556 275 539 q 303 586 289 574 q 341 607 318 600 q 396 614 365 614 q 458 606 431 614 q 503 581 485 597 q 530 543 521 565 q 538 494 538 522 l 538 448 l 427 448 q 284 433 347 448 q 178 390 221 418 q 108 313 132 359 q 84 205 84 266 q 103 118 84 158 q 155 48 121 77 q 236 3 189 19 q 340 -14 283 -14 q 405 -7 374 -14 q 461 12 435 0 q 507 38 486 23 q 545 71 528 54 q 552 32 547 51 q 564 0 557 14 m 375 125 q 325 132 347 125 q 289 151 303 139 q 267 181 274 163 q 259 220 259 199 q 269 268 259 246 q 298 305 279 290 q 355 331 320 322 q 438 340 389 340 l 538 340 l 538 209 q 514 178 530 193 q 478 151 499 163 q 431 132 457 139 q 375 125 406 125 m 266 956 q 277 903 266 927 q 309 863 288 880 q 354 836 328 845 q 410 826 380 826 q 465 836 439 826 q 509 863 490 845 q 539 903 528 880 q 550 956 550 927 q 539 1009 550 985 q 509 1052 528 1034 q 465 1080 490 1069 q 410 1090 439 1090 q 354 1080 380 1090 q 308 1052 328 1069 q 277 1009 288 1034 q 266 956 266 985 m 341 956 q 347 984 341 972 q 361 1006 352 997 q 382 1020 370 1015 q 410 1025 395 1025 q 436 1021 424 1025 q 457 1006 448 1016 q 470 985 465 998 q 475 956 475 972 q 470 928 475 941 q 455 907 465 916 q 435 893 447 898 q 410 889 423 889 q 383 894 395 889 q 361 907 370 899 q 347 929 353 916 q 341 956 341 941 z "},"ǻ":{"ha":833,"x_min":84,"x_max":743,"o":"m 564 0 l 743 0 l 743 12 q 721 79 728 40 q 714 172 714 118 l 714 492 q 690 604 714 556 q 626 684 667 652 q 528 731 584 715 q 406 747 471 747 q 276 729 333 747 q 180 678 220 710 q 120 605 141 646 q 100 519 100 564 l 275 519 q 282 556 275 539 q 303 586 289 574 q 341 607 318 600 q 396 614 365 614 q 458 606 431 614 q 503 581 485 597 q 530 543 521 565 q 538 494 538 522 l 538 448 l 427 448 q 284 433 347 448 q 178 390 221 418 q 108 313 132 359 q 84 205 84 266 q 103 118 84 158 q 155 48 121 77 q 236 3 189 19 q 340 -14 283 -14 q 405 -7 374 -14 q 461 12 435 0 q 507 38 486 23 q 545 71 528 54 q 552 32 547 51 q 564 0 557 14 m 375 125 q 325 132 347 125 q 289 151 303 139 q 267 181 274 163 q 259 220 259 199 q 269 268 259 246 q 298 305 279 290 q 355 331 320 322 q 438 340 389 340 l 538 340 l 538 209 q 514 178 530 193 q 478 151 499 163 q 431 132 457 139 q 375 125 406 125 m 483 1220 l 364 1084 l 479 1084 l 652 1220 l 483 1220 m 278 933 q 289 885 278 907 q 317 847 299 863 q 358 822 334 831 q 410 813 382 813 q 459 822 436 813 q 500 846 483 830 q 528 884 518 862 q 538 933 538 907 q 528 982 538 959 q 500 1021 518 1004 q 459 1046 483 1037 q 410 1055 436 1055 q 358 1046 382 1055 q 317 1021 334 1037 q 289 982 299 1004 q 278 933 278 959 m 349 933 q 367 977 349 960 q 410 994 384 994 q 451 977 435 994 q 467 933 467 960 q 451 891 467 908 q 410 874 435 874 q 367 891 384 874 q 349 933 349 908 z "},"ã":{"ha":833,"x_min":84,"x_max":743,"o":"m 564 0 l 743 0 l 743 12 q 721 79 728 40 q 714 172 714 118 l 714 492 q 690 604 714 556 q 626 684 667 652 q 528 731 584 715 q 406 747 471 747 q 276 729 333 747 q 180 678 220 710 q 120 605 141 646 q 100 519 100 564 l 275 519 q 282 556 275 539 q 303 586 289 574 q 341 607 318 600 q 396 614 365 614 q 458 606 431 614 q 503 581 485 597 q 530 543 521 565 q 538 494 538 522 l 538 448 l 427 448 q 284 433 347 448 q 178 390 221 418 q 108 313 132 359 q 84 205 84 266 q 103 118 84 158 q 155 48 121 77 q 236 3 189 19 q 340 -14 283 -14 q 405 -7 374 -14 q 461 12 435 0 q 507 38 486 23 q 545 71 528 54 q 552 32 547 51 q 564 0 557 14 m 375 125 q 325 132 347 125 q 289 151 303 139 q 267 181 274 163 q 259 220 259 199 q 269 268 259 246 q 298 305 279 290 q 355 331 320 322 q 438 340 389 340 l 538 340 l 538 209 q 514 178 530 193 q 478 151 499 163 q 431 132 457 139 q 375 125 406 125 m 652 1042 l 562 1063 q 558 1036 562 1048 q 545 1015 553 1023 q 525 1000 537 1005 q 500 994 513 994 q 451 1004 474 994 q 406 1025 428 1013 q 360 1045 383 1036 q 309 1055 336 1055 q 250 1040 276 1055 q 204 1002 223 1025 q 175 950 185 979 q 164 890 164 920 l 254 871 q 262 904 254 890 q 283 925 270 919 q 305 935 293 932 q 329 936 317 937 q 372 925 353 934 q 412 906 391 916 q 454 887 431 895 q 507 879 477 879 q 566 893 540 879 q 612 930 593 907 q 642 982 631 952 q 652 1042 652 1011 z "},"ǽ":{"ha":833,"x_min":31,"x_max":810,"o":"m 593 -14 q 659 -9 628 -14 q 715 4 689 -4 q 760 21 741 12 q 792 41 780 31 l 756 163 q 729 151 743 157 q 701 140 715 144 q 666 131 685 134 q 624 127 648 127 q 578 132 598 127 q 545 146 559 137 q 521 167 530 155 q 506 193 511 178 q 498 221 501 205 q 496 253 496 236 l 496 314 l 810 314 l 810 479 q 794 590 810 541 q 750 675 779 640 q 680 729 721 710 q 587 747 638 747 q 532 743 558 748 q 486 727 507 737 q 457 712 470 721 q 432 692 444 703 q 408 712 420 703 q 381 727 395 720 q 331 742 358 737 q 273 747 304 747 q 178 732 220 747 q 106 690 136 717 q 61 623 77 662 q 45 534 45 583 l 211 528 q 214 560 211 547 q 225 583 218 574 q 248 600 234 595 q 280 605 262 605 q 304 601 294 605 q 321 590 314 597 q 336 563 331 580 q 340 522 340 545 l 340 437 l 330 437 q 188 418 248 437 q 90 362 127 399 q 46 291 61 332 q 31 199 31 250 q 45 112 31 151 q 86 45 59 72 q 152 2 113 17 q 243 -14 191 -14 q 296 -7 271 -14 q 340 12 320 0 q 377 39 361 23 q 406 71 393 54 q 433 42 418 55 q 465 18 448 28 q 523 -6 491 2 q 593 -14 555 -14 m 286 117 q 249 123 264 117 q 224 140 234 130 q 210 165 214 151 q 205 197 205 180 q 213 243 205 221 q 238 283 222 266 q 278 309 254 299 q 332 319 301 319 l 340 319 q 341 273 340 291 q 341 231 341 255 q 341 189 341 206 q 341 143 341 172 q 332 135 337 139 q 320 127 326 130 q 303 120 312 123 q 286 117 294 117 m 648 435 l 496 435 l 496 478 q 497 508 496 494 q 501 536 498 523 q 512 568 505 554 q 530 591 519 582 q 550 602 538 598 q 576 605 562 605 q 608 598 595 605 q 630 581 621 592 q 643 551 639 568 q 648 514 648 534 l 648 435 m 495 1019 l 369 831 l 505 831 l 691 1019 l 495 1019 z "},"ć":{"ha":833,"x_min":83,"x_max":734,"o":"m 422 127 q 343 146 374 127 q 293 197 311 165 q 266 270 273 229 q 258 355 258 311 l 258 377 q 266 461 258 420 q 293 534 274 503 q 343 586 312 566 q 422 605 374 605 q 481 594 454 605 q 528 564 509 583 q 558 520 547 546 q 568 467 568 495 l 733 467 q 711 582 734 530 q 647 670 688 633 q 549 727 606 707 q 425 747 492 747 q 276 718 340 747 q 170 639 212 689 q 104 521 126 588 q 83 377 83 454 l 83 355 q 105 212 83 279 q 170 94 127 144 q 276 15 212 44 q 425 -14 340 -14 q 544 6 488 -14 q 642 61 600 26 q 709 143 684 96 q 733 247 734 191 l 568 247 q 557 198 568 220 q 525 160 545 176 q 478 136 505 144 q 422 127 452 127 m 479 1019 l 353 831 l 489 831 l 675 1019 l 479 1019 z "},"č":{"ha":833,"x_min":83,"x_max":734,"o":"m 422 127 q 343 146 374 127 q 293 197 311 165 q 266 270 273 229 q 258 355 258 311 l 258 377 q 266 461 258 420 q 293 534 274 503 q 343 586 312 566 q 422 605 374 605 q 481 594 454 605 q 528 564 509 583 q 558 520 547 546 q 568 467 568 495 l 733 467 q 711 582 734 530 q 647 670 688 633 q 549 727 606 707 q 425 747 492 747 q 276 718 340 747 q 170 639 212 689 q 104 521 126 588 q 83 377 83 454 l 83 355 q 105 212 83 279 q 170 94 127 144 q 276 15 212 44 q 425 -14 340 -14 q 544 6 488 -14 q 642 61 600 26 q 709 143 684 96 q 733 247 734 191 l 568 247 q 557 198 568 220 q 525 160 545 176 q 478 136 505 144 q 422 127 452 127 m 428 958 l 328 1047 l 179 1047 l 179 1034 l 373 863 l 483 863 l 677 1034 l 677 1047 l 528 1047 l 428 958 z "},"ç":{"ha":833,"x_min":83,"x_max":734,"o":"m 422 127 q 343 146 374 127 q 293 197 311 165 q 266 270 273 229 q 258 355 258 311 l 258 377 q 266 461 258 420 q 293 534 274 503 q 343 586 312 566 q 422 605 374 605 q 481 594 454 605 q 528 564 509 583 q 558 520 547 546 q 568 467 568 495 l 733 467 q 711 582 734 530 q 647 670 688 633 q 549 727 606 707 q 425 747 492 747 q 276 718 340 747 q 170 639 212 689 q 104 521 126 588 q 83 377 83 454 l 83 355 q 105 212 83 279 q 170 94 127 144 q 276 15 212 44 q 425 -14 340 -14 q 544 6 488 -14 q 642 61 600 26 q 709 143 684 96 q 733 247 734 191 l 568 247 q 557 198 568 220 q 525 160 545 176 q 478 136 505 144 q 422 127 452 127 m 490 5 l 360 5 l 339 -90 q 385 -95 366 -92 q 416 -104 404 -98 q 434 -121 428 -111 q 439 -145 439 -131 q 433 -173 439 -161 q 414 -191 426 -184 q 386 -200 402 -197 q 352 -203 370 -203 l 357 -304 q 453 -294 411 -304 q 523 -264 494 -283 q 569 -215 553 -244 q 585 -149 585 -186 q 576 -99 585 -120 q 553 -64 567 -79 q 520 -43 538 -51 q 482 -32 501 -35 l 490 5 z "},"ĉ":{"ha":833,"x_min":83,"x_max":734,"o":"m 422 127 q 343 146 374 127 q 293 197 311 165 q 266 270 273 229 q 258 355 258 311 l 258 377 q 266 461 258 420 q 293 534 274 503 q 343 586 312 566 q 422 605 374 605 q 481 594 454 605 q 528 564 509 583 q 558 520 547 546 q 568 467 568 495 l 733 467 q 711 582 734 530 q 647 670 688 633 q 549 727 606 707 q 425 747 492 747 q 276 718 340 747 q 170 639 212 689 q 104 521 126 588 q 83 377 83 454 l 83 355 q 105 212 83 279 q 170 94 127 144 q 276 15 212 44 q 425 -14 340 -14 q 544 6 488 -14 q 642 61 600 26 q 709 143 684 96 q 733 247 734 191 l 568 247 q 557 198 568 220 q 525 160 545 176 q 478 136 505 144 q 422 127 452 127 m 672 882 l 479 1046 l 377 1046 l 186 884 l 186 863 l 325 863 l 428 954 l 532 863 l 672 863 l 672 882 z "},"ď":{"ha":833,"x_min":36,"x_max":960,"o":"m 36 372 l 36 358 q 56 211 36 279 q 113 92 76 142 q 203 15 150 43 q 323 -14 257 -14 q 434 10 387 -14 q 517 77 482 34 l 526 0 l 684 0 l 684 1042 l 509 1042 l 509 667 q 429 726 474 705 q 325 747 385 747 q 203 720 257 747 q 113 644 150 693 q 56 525 75 594 q 36 372 36 456 m 211 358 l 211 372 q 220 463 211 420 q 248 536 229 505 q 297 586 267 568 q 370 604 327 604 q 454 581 420 604 q 509 520 488 559 l 509 214 q 454 153 488 175 q 368 130 420 130 q 296 148 326 130 q 248 197 266 165 q 219 269 228 228 q 211 358 211 311 m 961 944 l 961 1058 l 815 1058 l 815 943 q 799 829 815 880 q 755 733 783 778 l 838 680 q 887 736 865 705 q 926 802 909 767 q 952 873 943 837 q 961 944 961 910 z "},"đ":{"ha":833,"x_min":70,"x_max":837,"o":"m 837 829 l 837 947 l 718 947 l 718 1042 l 543 1042 l 543 947 l 376 947 l 376 829 l 543 829 l 543 667 q 517 691 530 680 q 490 712 505 703 q 430 738 463 729 q 359 747 397 747 q 237 720 291 747 q 146 644 184 693 q 90 525 109 594 q 70 372 70 456 l 70 358 q 90 211 70 279 q 147 92 110 142 q 237 15 184 43 q 357 -14 291 -14 q 427 -5 395 -14 q 485 19 458 3 q 520 44 503 30 q 551 77 537 59 l 559 0 l 718 0 l 718 829 l 837 829 m 245 358 l 245 372 q 254 463 245 420 q 281 536 262 505 q 331 586 300 568 q 404 604 361 604 q 447 598 427 604 q 483 585 467 593 q 517 558 503 574 q 543 520 532 541 l 543 214 q 519 180 532 195 q 490 153 506 164 q 450 136 472 142 q 402 130 429 130 q 330 148 359 130 q 281 197 300 165 q 253 269 262 228 q 245 358 245 311 z "},"é":{"ha":833,"x_min":79,"x_max":760,"o":"m 450 -14 q 633 28 556 -14 q 746 122 710 70 l 656 215 q 570 150 623 172 q 460 127 518 127 q 384 141 418 127 q 321 179 349 155 q 280 233 296 203 q 256 309 265 262 l 256 311 l 760 311 l 760 386 q 739 533 760 466 q 675 647 717 600 q 571 721 632 694 q 430 747 509 747 q 292 720 356 747 q 180 643 228 692 q 106 523 133 593 q 79 368 79 454 l 79 341 q 106 202 79 267 q 181 90 132 137 q 298 14 230 41 q 450 -14 366 -14 m 429 605 q 496 592 467 605 q 545 559 525 580 q 576 509 565 538 q 587 449 587 479 l 587 435 l 260 435 q 282 506 267 475 q 318 559 296 537 q 367 593 339 582 q 429 605 395 605 m 462 1019 l 336 831 l 471 831 l 658 1019 l 462 1019 z "},"ĕ":{"ha":833,"x_min":79,"x_max":760,"o":"m 450 -14 q 633 28 556 -14 q 746 122 710 70 l 656 215 q 570 150 623 172 q 460 127 518 127 q 384 141 418 127 q 321 179 349 155 q 280 233 296 203 q 256 309 265 262 l 256 311 l 760 311 l 760 386 q 739 533 760 466 q 675 647 717 600 q 571 721 632 694 q 430 747 509 747 q 292 720 356 747 q 180 643 228 692 q 106 523 133 593 q 79 368 79 454 l 79 341 q 106 202 79 267 q 181 90 132 137 q 298 14 230 41 q 450 -14 366 -14 m 429 605 q 496 592 467 605 q 545 559 525 580 q 576 509 565 538 q 587 449 587 479 l 587 435 l 260 435 q 282 506 267 475 q 318 559 296 537 q 367 593 339 582 q 429 605 395 605 m 636 1043 l 507 1043 q 502 1008 507 1025 q 486 979 496 991 q 455 958 473 966 q 412 950 437 950 q 367 958 385 950 q 337 978 349 966 q 320 1008 326 991 q 315 1043 315 1025 l 186 1043 q 202 964 186 1000 q 248 903 218 928 q 318 863 276 877 q 412 848 359 848 q 505 863 463 848 q 576 903 547 877 q 621 964 605 928 q 636 1043 636 1000 z "},"ě":{"ha":833,"x_min":79,"x_max":760,"o":"m 450 -14 q 633 28 556 -14 q 746 122 710 70 l 656 215 q 570 150 623 172 q 460 127 518 127 q 384 141 418 127 q 321 179 349 155 q 280 233 296 203 q 256 309 265 262 l 256 311 l 760 311 l 760 386 q 739 533 760 466 q 675 647 717 600 q 571 721 632 694 q 430 747 509 747 q 292 720 356 747 q 180 643 228 692 q 106 523 133 593 q 79 368 79 454 l 79 341 q 106 202 79 267 q 181 90 132 137 q 298 14 230 41 q 450 -14 366 -14 m 429 605 q 496 592 467 605 q 545 559 525 580 q 576 509 565 538 q 587 449 587 479 l 587 435 l 260 435 q 282 506 267 475 q 318 559 296 537 q 367 593 339 582 q 429 605 395 605 m 410 959 l 311 1048 l 161 1048 l 161 1034 l 355 864 l 465 864 l 660 1035 l 660 1048 l 511 1048 l 410 959 z "},"ê":{"ha":833,"x_min":79,"x_max":760,"o":"m 450 -14 q 633 28 556 -14 q 746 122 710 70 l 656 215 q 570 150 623 172 q 460 127 518 127 q 384 141 418 127 q 321 179 349 155 q 280 233 296 203 q 256 309 265 262 l 256 311 l 760 311 l 760 386 q 739 533 760 466 q 675 647 717 600 q 571 721 632 694 q 430 747 509 747 q 292 720 356 747 q 180 643 228 692 q 106 523 133 593 q 79 368 79 454 l 79 341 q 106 202 79 267 q 181 90 132 137 q 298 14 230 41 q 450 -14 366 -14 m 429 605 q 496 592 467 605 q 545 559 525 580 q 576 509 565 538 q 587 449 587 479 l 587 435 l 260 435 q 282 506 267 475 q 318 559 296 537 q 367 593 339 582 q 429 605 395 605 m 654 883 l 462 1047 l 359 1047 l 169 884 l 169 864 l 307 864 l 410 954 l 514 864 l 654 864 l 654 883 z "},"ë":{"ha":833,"x_min":79,"x_max":760,"o":"m 450 -14 q 633 28 556 -14 q 746 122 710 70 l 656 215 q 570 150 623 172 q 460 127 518 127 q 384 141 418 127 q 321 179 349 155 q 280 233 296 203 q 256 309 265 262 l 256 311 l 760 311 l 760 386 q 739 533 760 466 q 675 647 717 600 q 571 721 632 694 q 430 747 509 747 q 292 720 356 747 q 180 643 228 692 q 106 523 133 593 q 79 368 79 454 l 79 341 q 106 202 79 267 q 181 90 132 137 q 298 14 230 41 q 450 -14 366 -14 m 429 605 q 496 592 467 605 q 545 559 525 580 q 576 509 565 538 q 587 449 587 479 l 587 435 l 260 435 q 282 506 267 475 q 318 559 296 537 q 367 593 339 582 q 429 605 395 605 m 160 945 q 184 887 160 911 q 248 864 209 864 q 312 887 288 864 q 336 945 336 911 q 312 1004 336 980 q 248 1027 288 1027 q 184 1004 208 1027 q 160 945 160 980 m 478 945 q 503 886 478 910 q 566 863 527 863 q 631 886 606 863 q 655 945 655 910 q 631 1003 655 979 q 566 1027 607 1027 q 502 1003 526 1027 q 478 945 478 979 z "},"ė":{"ha":833,"x_min":79,"x_max":760,"o":"m 450 -14 q 633 28 556 -14 q 746 122 710 70 l 656 215 q 570 150 623 172 q 460 127 518 127 q 384 141 418 127 q 321 179 349 155 q 280 233 296 203 q 256 309 265 262 l 256 311 l 760 311 l 760 386 q 739 533 760 466 q 675 647 717 600 q 571 721 632 694 q 430 747 509 747 q 292 720 356 747 q 180 643 228 692 q 106 523 133 593 q 79 368 79 454 l 79 341 q 106 202 79 267 q 181 90 132 137 q 298 14 230 41 q 450 -14 366 -14 m 429 605 q 496 592 467 605 q 545 559 525 580 q 576 509 565 538 q 587 449 587 479 l 587 435 l 260 435 q 282 506 267 475 q 318 559 296 537 q 367 593 339 582 q 429 605 395 605 m 313 951 q 338 886 313 912 q 410 861 364 861 q 481 886 455 861 q 507 951 507 912 q 481 1016 507 990 q 410 1042 455 1042 q 338 1016 364 1042 q 313 951 313 990 z "},"è":{"ha":833,"x_min":79,"x_max":760,"o":"m 450 -14 q 633 28 556 -14 q 746 122 710 70 l 656 215 q 570 150 623 172 q 460 127 518 127 q 384 141 418 127 q 321 179 349 155 q 280 233 296 203 q 256 309 265 262 l 256 311 l 760 311 l 760 386 q 739 533 760 466 q 675 647 717 600 q 571 721 632 694 q 430 747 509 747 q 292 720 356 747 q 180 643 228 692 q 106 523 133 593 q 79 368 79 454 l 79 341 q 106 202 79 267 q 181 90 132 137 q 298 14 230 41 q 450 -14 366 -14 m 429 605 q 496 592 467 605 q 545 559 525 580 q 576 509 565 538 q 587 449 587 479 l 587 435 l 260 435 q 282 506 267 475 q 318 559 296 537 q 367 593 339 582 q 429 605 395 605 m 482 833 l 362 1021 l 167 1021 l 343 833 l 482 833 z "},"ē":{"ha":833,"x_min":79,"x_max":760,"o":"m 450 -14 q 633 28 556 -14 q 746 122 710 70 l 656 215 q 570 150 623 172 q 460 127 518 127 q 384 141 418 127 q 321 179 349 155 q 280 233 296 203 q 256 309 265 262 l 256 311 l 760 311 l 760 386 q 739 533 760 466 q 675 647 717 600 q 571 721 632 694 q 430 747 509 747 q 292 720 356 747 q 180 643 228 692 q 106 523 133 593 q 79 368 79 454 l 79 341 q 106 202 79 267 q 181 90 132 137 q 298 14 230 41 q 450 -14 366 -14 m 429 605 q 496 592 467 605 q 545 559 525 580 q 576 509 565 538 q 587 449 587 479 l 587 435 l 260 435 q 282 506 267 475 q 318 559 296 537 q 367 593 339 582 q 429 605 395 605 m 659 881 l 659 989 l 166 989 l 166 881 l 659 881 z "},"ŋ":{"ha":833,"x_min":106,"x_max":728,"o":"m 106 0 l 281 0 l 281 535 q 302 560 290 549 q 329 580 315 571 q 372 597 348 591 q 426 604 397 604 q 480 595 457 604 q 520 569 504 587 q 543 522 535 551 q 551 451 551 493 l 551 -34 q 545 -89 551 -66 q 525 -127 538 -113 q 499 -144 514 -138 q 467 -151 485 -151 q 433 -149 451 -151 q 399 -142 414 -146 l 390 -285 q 435 -294 414 -292 q 481 -296 456 -296 q 583 -279 538 -296 q 661 -230 629 -262 q 710 -148 693 -197 q 728 -34 728 -98 l 728 452 q 710 588 728 532 q 662 680 693 644 q 586 731 631 715 q 488 747 542 747 q 412 736 448 747 q 348 705 377 726 q 310 672 328 691 q 277 631 292 653 l 276 638 l 268 734 l 106 734 l 106 0 z "},"ę":{"ha":833,"x_min":79,"x_max":760,"o":"m 79 341 q 103 209 79 271 q 172 100 127 146 q 277 23 215 53 q 412 -12 339 -6 q 416 -13 414 -12 q 418 -13 417 -13 q 374 -73 389 -40 q 360 -136 360 -105 q 372 -196 360 -170 q 403 -239 383 -221 q 449 -265 422 -256 q 507 -274 476 -274 q 583 -264 553 -274 q 631 -244 612 -254 l 602 -144 q 577 -154 592 -149 q 543 -159 563 -159 q 507 -145 517 -159 q 496 -112 496 -132 q 503 -74 496 -92 q 522 -39 509 -56 q 554 -11 535 -24 q 602 14 574 3 q 688 62 652 33 q 746 122 725 91 l 656 215 q 570 150 623 172 q 460 127 518 127 q 383 141 418 127 q 321 179 348 155 q 278 238 294 204 q 256 309 261 273 l 256 311 l 760 311 l 760 386 q 739 533 760 466 q 675 647 717 600 q 571 721 632 694 q 430 747 509 747 q 292 720 356 747 q 180 643 228 692 q 106 523 133 593 q 79 368 79 454 l 79 341 m 429 605 q 496 592 467 605 q 545 559 525 580 q 575 509 564 538 q 587 448 587 480 l 587 435 l 260 435 q 282 506 267 475 q 318 559 296 537 q 367 593 339 582 q 429 605 395 605 z "},"ğ":{"ha":833,"x_min":81,"x_max":736,"o":"m 81 372 l 81 358 q 101 211 81 279 q 160 92 121 142 q 253 15 199 43 q 376 -14 308 -14 q 443 -6 412 -14 q 500 16 474 2 q 532 38 517 25 q 561 66 547 50 l 561 19 q 550 -52 561 -20 q 517 -104 538 -83 q 462 -139 495 -127 q 387 -151 429 -151 q 337 -145 361 -151 q 290 -130 313 -140 q 245 -103 267 -119 q 203 -64 223 -86 l 123 -170 q 181 -224 147 -202 q 252 -261 214 -247 q 327 -282 289 -275 q 397 -289 364 -289 q 535 -268 472 -289 q 642 -208 597 -248 q 712 -110 687 -168 q 736 22 736 -52 l 736 734 l 577 734 l 570 662 q 541 692 557 679 q 507 716 525 706 q 448 740 480 732 q 377 747 416 747 q 253 720 308 747 q 160 644 199 693 q 101 525 121 594 q 81 372 81 456 m 256 358 l 256 372 q 266 463 256 420 q 296 536 276 505 q 348 586 317 568 q 421 604 378 604 q 465 599 445 604 q 502 585 486 594 q 535 561 521 576 q 561 525 550 545 l 561 209 q 537 176 551 191 q 506 151 524 161 q 467 135 488 140 q 420 130 446 130 q 346 148 377 130 q 296 197 315 165 q 266 269 275 228 q 256 358 256 311 m 633 1042 l 504 1042 q 498 1007 504 1025 q 482 978 493 990 q 452 957 470 965 q 408 949 434 949 q 363 957 382 949 q 334 977 345 965 q 317 1007 322 990 q 311 1042 311 1024 l 183 1042 q 199 964 183 1000 q 244 902 214 928 q 314 862 273 876 q 408 848 356 848 q 502 862 460 848 q 572 902 543 876 q 617 964 602 928 q 633 1042 633 1000 z "},"ĝ":{"ha":833,"x_min":81,"x_max":736,"o":"m 81 372 l 81 358 q 101 211 81 279 q 160 92 121 142 q 253 15 199 43 q 376 -14 308 -14 q 443 -6 412 -14 q 500 16 474 2 q 532 38 517 25 q 561 66 547 50 l 561 19 q 550 -52 561 -20 q 517 -104 538 -83 q 462 -139 495 -127 q 387 -151 429 -151 q 337 -145 361 -151 q 290 -130 313 -140 q 245 -103 267 -119 q 203 -64 223 -86 l 123 -170 q 181 -224 147 -202 q 252 -261 214 -247 q 327 -282 289 -275 q 397 -289 364 -289 q 535 -268 472 -289 q 642 -208 597 -248 q 712 -110 687 -168 q 736 22 736 -52 l 736 734 l 577 734 l 570 662 q 541 692 557 679 q 507 716 525 706 q 448 740 480 732 q 377 747 416 747 q 253 720 308 747 q 160 644 199 693 q 101 525 121 594 q 81 372 81 456 m 256 358 l 256 372 q 266 463 256 420 q 296 536 276 505 q 348 586 317 568 q 421 604 378 604 q 465 599 445 604 q 502 585 486 594 q 535 561 521 576 q 561 525 550 545 l 561 209 q 537 176 551 191 q 506 151 524 161 q 467 135 488 140 q 420 130 446 130 q 346 148 377 130 q 296 197 315 165 q 266 269 275 228 q 256 358 256 311 m 651 882 l 458 1046 l 356 1046 l 165 884 l 165 863 l 304 863 l 407 954 l 511 863 l 651 863 l 651 882 z "},"ģ":{"ha":833,"x_min":81,"x_max":736,"o":"m 81 372 l 81 358 q 101 211 81 279 q 160 92 121 142 q 253 15 199 43 q 376 -14 308 -14 q 443 -6 412 -14 q 500 16 474 2 q 532 38 517 25 q 561 66 547 50 l 561 19 q 550 -52 561 -20 q 517 -104 538 -83 q 462 -139 495 -127 q 387 -151 429 -151 q 337 -145 361 -151 q 290 -130 313 -140 q 245 -103 267 -119 q 203 -64 223 -86 l 123 -170 q 181 -224 147 -202 q 252 -261 214 -247 q 327 -282 289 -275 q 397 -289 364 -289 q 535 -268 472 -289 q 642 -208 597 -248 q 712 -110 687 -168 q 736 22 736 -52 l 736 734 l 577 734 l 570 662 q 541 692 557 679 q 507 716 525 706 q 448 740 480 732 q 377 747 416 747 q 253 720 308 747 q 160 644 199 693 q 101 525 121 594 q 81 372 81 456 m 256 358 l 256 372 q 266 463 256 420 q 296 536 276 505 q 348 586 317 568 q 421 604 378 604 q 465 599 445 604 q 502 585 486 594 q 535 561 521 576 q 561 525 550 545 l 561 209 q 537 176 551 191 q 506 151 524 161 q 467 135 488 140 q 420 130 446 130 q 346 148 377 130 q 296 197 315 165 q 266 269 275 228 q 256 358 256 311 m 332 943 l 332 852 l 476 852 l 477 935 q 490 1028 477 986 q 522 1105 503 1070 l 429 1158 q 360 1070 389 1130 q 332 943 332 1011 z "},"ħ":{"ha":833,"x_min":-1,"x_max":757,"o":"m 461 827 l 461 945 l 286 945 l 286 1042 l 111 1042 l 111 945 l -1 945 l -1 827 l 111 827 l 111 0 l 286 0 l 286 530 q 316 563 299 549 q 353 586 332 576 q 391 599 370 595 q 436 604 412 604 q 497 595 470 604 q 543 568 524 586 q 572 519 562 549 q 582 449 582 490 l 582 0 l 757 0 l 757 448 q 738 584 757 527 q 684 677 719 640 q 602 730 650 713 q 496 747 554 747 q 425 737 458 747 q 361 707 391 726 q 320 674 340 693 q 286 631 301 654 l 286 827 l 461 827 z "},"ĥ":{"ha":833,"x_min":-54,"x_max":747,"o":"m 275 631 l 275 1042 l 100 1042 l 100 0 l 275 0 l 275 530 q 301 559 287 546 q 332 581 315 572 q 375 598 352 593 q 426 604 399 604 q 487 595 460 604 q 533 567 514 586 q 562 519 551 548 q 572 449 572 490 l 572 0 l 747 0 l 747 448 q 728 584 747 527 q 674 677 709 640 q 592 730 640 713 q 486 747 544 747 q 410 735 446 747 q 345 703 374 724 q 308 670 325 688 q 275 631 290 652 m 432 1157 l 239 1321 l 137 1321 l -54 1158 l -54 1138 l 85 1138 l 188 1228 l 292 1138 l 432 1138 l 432 1157 z "},"í":{"ha":833,"x_min":136,"x_max":755,"o":"m 136 734 l 136 589 l 361 589 l 361 144 l 136 144 l 136 0 l 755 0 l 755 144 l 538 144 l 538 734 l 136 734 m 503 1002 l 377 814 l 513 814 l 699 1002 l 503 1002 z "},"ĭ":{"ha":833,"x_min":136,"x_max":755,"o":"m 136 734 l 136 589 l 361 589 l 361 144 l 136 144 l 136 0 l 755 0 l 755 144 l 538 144 l 538 734 l 136 734 m 677 1025 l 549 1025 q 543 990 549 1008 q 527 961 538 973 q 497 940 515 948 q 453 932 479 932 q 408 940 427 932 q 378 960 390 948 q 361 990 367 973 q 356 1025 356 1007 l 228 1025 q 243 947 228 983 q 289 885 259 911 q 359 845 317 859 q 453 831 401 831 q 546 845 505 831 q 617 885 588 859 q 662 947 646 911 q 677 1025 677 983 z "},"î":{"ha":833,"x_min":136,"x_max":755,"o":"m 136 734 l 136 589 l 361 589 l 361 144 l 136 144 l 136 0 l 755 0 l 755 144 l 538 144 l 538 734 l 136 734 m 696 865 l 504 1029 l 401 1029 l 211 867 l 211 846 l 349 846 l 452 937 l 556 846 l 696 846 l 696 865 z "},"ï":{"ha":833,"x_min":136,"x_max":755,"o":"m 136 734 l 136 589 l 361 589 l 361 144 l 136 144 l 136 0 l 755 0 l 755 144 l 538 144 l 538 734 l 136 734 m 201 928 q 226 870 201 893 q 290 846 250 846 q 353 870 329 846 q 378 928 378 893 q 354 986 378 962 q 290 1010 330 1010 q 225 986 250 1010 q 201 928 201 962 m 519 928 q 544 869 519 892 q 608 845 568 845 q 672 869 648 845 q 696 928 696 892 q 672 985 696 962 q 608 1009 648 1009 q 544 985 568 1009 q 519 928 519 962 z "},"ì":{"ha":833,"x_min":136,"x_max":755,"o":"m 136 734 l 136 589 l 361 589 l 361 144 l 136 144 l 136 0 l 755 0 l 755 144 l 538 144 l 538 734 l 136 734 m 524 816 l 404 1004 l 209 1004 l 385 816 l 524 816 z "},"ī":{"ha":833,"x_min":136,"x_max":755,"o":"m 136 734 l 136 589 l 361 589 l 361 144 l 136 144 l 136 0 l 755 0 l 755 144 l 538 144 l 538 734 l 136 734 m 700 864 l 700 972 l 208 972 l 208 864 l 700 864 z "},"į":{"ha":833,"x_min":144,"x_max":746,"o":"m 144 734 l 144 589 l 361 589 l 361 144 l 144 144 l 144 0 l 357 0 q 329 -26 342 -13 q 307 -54 316 -40 q 281 -102 290 -77 q 273 -151 273 -127 q 284 -211 273 -185 q 316 -254 296 -236 q 362 -280 336 -271 q 419 -289 389 -289 q 496 -279 466 -289 q 545 -259 526 -269 l 515 -159 q 491 -169 505 -163 q 456 -174 476 -174 q 419 -160 430 -174 q 409 -127 409 -147 q 415 -90 409 -107 q 434 -56 421 -72 q 467 -26 447 -40 q 517 0 488 -12 l 746 0 l 746 144 l 538 144 l 538 734 l 144 734 m 347 922 q 375 855 347 882 q 449 828 403 828 q 524 855 496 828 q 551 922 551 882 q 524 990 551 964 q 449 1017 496 1017 q 375 990 402 1017 q 347 922 347 963 z "},"ĩ":{"ha":833,"x_min":136,"x_max":755,"o":"m 136 734 l 136 589 l 361 589 l 361 144 l 136 144 l 136 0 l 755 0 l 755 144 l 538 144 l 538 734 l 136 734 m 696 1025 l 606 1046 q 602 1019 606 1031 q 589 998 597 1006 q 569 983 581 988 q 544 977 557 977 q 495 987 518 977 q 450 1008 472 996 q 404 1028 427 1019 q 353 1038 380 1038 q 294 1023 320 1038 q 248 985 267 1008 q 219 933 229 962 q 208 873 208 903 l 298 854 q 306 887 298 873 q 327 908 314 902 q 349 918 337 915 q 373 919 361 920 q 416 908 397 917 q 456 889 435 899 q 498 870 475 878 q 551 862 521 862 q 610 876 584 862 q 656 913 637 890 q 686 965 675 935 q 696 1025 696 994 z "},"ĵ":{"ha":833,"x_min":146,"x_max":739,"o":"m 203 734 l 203 589 l 401 589 l 401 -14 q 391 -79 401 -53 q 361 -121 380 -105 q 317 -144 342 -137 q 263 -151 292 -151 q 241 -150 256 -151 q 211 -149 227 -150 q 179 -146 195 -148 q 155 -142 164 -144 l 146 -285 q 174 -290 160 -288 q 202 -294 188 -292 q 237 -296 220 -295 q 273 -296 255 -296 q 402 -279 345 -296 q 498 -227 458 -262 q 558 -140 537 -193 q 578 -14 578 -87 l 578 734 l 203 734 m 739 857 l 546 1021 l 444 1021 l 253 858 l 253 838 l 391 838 l 494 928 l 598 838 l 739 838 l 739 857 z "},"ķ":{"ha":833,"x_min":102,"x_max":802,"o":"m 365 311 l 585 0 l 802 0 l 481 428 l 762 734 l 551 734 l 340 507 l 277 437 l 277 1042 l 102 1042 l 102 0 l 277 0 l 277 230 l 365 311 m 463 -96 l 463 -49 l 336 -49 l 336 -98 q 323 -193 336 -149 q 285 -280 311 -237 l 361 -331 q 437 -221 412 -286 q 463 -96 463 -156 z "},"ĺ":{"ha":833,"x_min":136,"x_max":755,"o":"m 136 1042 l 136 897 l 361 897 l 361 144 l 136 144 l 136 0 l 755 0 l 755 144 l 538 144 l 538 1042 l 136 1042 m 500 1284 l 374 1097 l 510 1097 l 696 1284 l 500 1284 z "},"ľ":{"ha":833,"x_min":91,"x_max":817,"o":"m 91 1042 l 91 897 l 317 897 l 317 144 l 91 144 l 91 0 l 710 0 l 710 144 l 494 144 l 494 1042 l 91 1042 m 817 931 l 817 1045 l 671 1045 l 671 930 q 654 816 671 867 q 611 720 638 765 l 693 667 q 743 723 720 692 q 781 789 765 754 q 807 861 798 824 q 817 931 817 897 z "},"ļ":{"ha":833,"x_min":136,"x_max":755,"o":"m 136 1042 l 136 897 l 361 897 l 361 144 l 136 144 l 136 0 l 755 0 l 755 144 l 538 144 l 538 1042 l 136 1042 m 521 -85 l 521 -37 l 394 -37 l 394 -87 q 381 -182 394 -138 q 343 -269 369 -226 l 419 -319 q 496 -210 471 -275 q 521 -85 521 -144 z "},"ŀ":{"ha":833,"x_min":88,"x_max":751,"o":"m 88 1042 l 88 897 l 314 897 l 314 144 l 88 144 l 88 0 l 707 0 l 707 144 l 491 144 l 491 1042 l 88 1042 m 558 552 q 584 488 558 513 q 655 462 610 462 q 726 488 701 462 q 752 552 752 513 q 726 617 752 591 q 655 643 701 643 q 584 617 610 643 q 558 552 558 591 z "},"ł":{"ha":833,"x_min":143,"x_max":762,"o":"m 546 684 l 546 1042 l 143 1042 l 143 897 l 369 897 l 369 606 l 153 510 l 153 382 l 369 478 l 369 144 l 143 144 l 143 0 l 762 0 l 762 144 l 546 144 l 546 557 l 738 643 l 738 770 l 546 684 z "},"ń":{"ha":833,"x_min":100,"x_max":745,"o":"m 100 0 l 276 0 l 276 522 q 299 553 286 539 q 328 577 312 567 q 371 597 347 590 q 424 604 395 604 q 485 597 458 604 q 530 572 511 590 q 559 526 549 555 q 570 452 570 496 l 570 0 l 745 0 l 745 454 q 726 589 745 533 q 675 680 708 644 q 594 731 641 715 q 492 747 548 747 q 410 735 449 747 q 339 700 372 723 q 302 669 319 686 q 270 631 285 652 l 259 734 l 100 734 l 100 0 m 463 1019 l 336 831 l 472 831 l 659 1019 l 463 1019 z "},"ň":{"ha":833,"x_min":100,"x_max":745,"o":"m 100 0 l 276 0 l 276 522 q 299 553 286 539 q 328 577 312 567 q 371 597 347 590 q 424 604 395 604 q 485 597 458 604 q 530 572 511 590 q 559 526 549 555 q 570 452 570 496 l 570 0 l 745 0 l 745 454 q 726 589 745 533 q 675 680 708 644 q 594 731 641 715 q 492 747 548 747 q 410 735 449 747 q 339 700 372 723 q 302 669 319 686 q 270 631 285 652 l 259 734 l 100 734 l 100 0 m 412 958 l 312 1047 l 163 1047 l 163 1034 l 357 863 l 467 863 l 661 1034 l 661 1047 l 512 1047 l 412 958 z "},"ņ":{"ha":833,"x_min":100,"x_max":745,"o":"m 100 0 l 276 0 l 276 522 q 299 553 286 539 q 328 577 312 567 q 371 597 347 590 q 424 604 395 604 q 485 597 458 604 q 530 572 511 590 q 559 526 549 555 q 570 452 570 496 l 570 0 l 745 0 l 745 454 q 726 589 745 533 q 675 680 708 644 q 594 731 641 715 q 492 747 548 747 q 410 735 449 747 q 339 700 372 723 q 302 669 319 686 q 270 631 285 652 l 259 734 l 100 734 l 100 0 m 482 -85 l 482 -38 l 355 -38 l 355 -87 q 343 -182 355 -138 q 304 -269 330 -227 l 380 -320 q 457 -210 432 -275 q 482 -85 482 -145 z "},"ñ":{"ha":833,"x_min":100,"x_max":745,"o":"m 100 0 l 276 0 l 276 522 q 299 553 286 539 q 328 577 312 567 q 371 597 347 590 q 424 604 395 604 q 485 597 458 604 q 530 572 511 590 q 559 526 549 555 q 570 452 570 496 l 570 0 l 745 0 l 745 454 q 726 589 745 533 q 675 680 708 644 q 594 731 641 715 q 492 747 548 747 q 410 735 449 747 q 339 700 372 723 q 302 669 319 686 q 270 631 285 652 l 259 734 l 100 734 l 100 0 m 656 1042 l 566 1063 q 561 1036 566 1048 q 549 1015 557 1023 q 528 1000 541 1005 q 503 994 516 994 q 454 1004 477 994 q 410 1025 431 1013 q 363 1045 387 1036 q 312 1055 340 1055 q 253 1040 279 1055 q 208 1002 227 1025 q 178 950 189 979 q 168 890 168 920 l 258 871 q 266 904 258 890 q 286 925 273 919 q 308 935 296 932 q 332 936 320 937 q 375 925 356 934 q 415 906 395 916 q 457 887 435 895 q 511 879 480 879 q 570 893 543 879 q 616 930 596 907 q 645 982 635 952 q 656 1042 656 1011 z "},"ó":{"ha":833,"x_min":73,"x_max":760,"o":"m 73 374 l 73 359 q 96 211 73 279 q 163 92 119 142 q 271 14 207 42 q 417 -14 335 -14 q 562 14 498 -14 q 670 92 626 42 q 736 211 713 142 q 760 359 760 279 l 760 374 q 736 522 760 454 q 670 640 713 590 q 562 719 625 690 q 416 747 498 747 q 271 719 334 747 q 163 640 207 690 q 96 522 119 590 q 73 374 73 454 m 248 359 l 248 374 q 257 462 248 420 q 288 536 267 504 q 340 587 308 568 q 416 605 372 605 q 492 587 460 605 q 545 536 524 568 q 574 462 564 504 q 584 374 584 420 l 584 359 q 574 269 584 311 q 545 196 564 227 q 492 145 524 163 q 417 127 460 127 q 340 145 372 127 q 288 196 308 163 q 257 269 267 227 q 248 359 248 311 m 471 1019 l 345 831 l 480 831 l 667 1019 l 471 1019 z "},"ŏ":{"ha":833,"x_min":73,"x_max":760,"o":"m 73 374 l 73 359 q 96 211 73 279 q 163 92 119 142 q 271 14 207 42 q 417 -14 335 -14 q 562 14 498 -14 q 670 92 626 42 q 736 211 713 142 q 760 359 760 279 l 760 374 q 736 522 760 454 q 670 640 713 590 q 562 719 625 690 q 416 747 498 747 q 271 719 334 747 q 163 640 207 690 q 96 522 119 590 q 73 374 73 454 m 248 359 l 248 374 q 257 462 248 420 q 288 536 267 504 q 340 587 308 568 q 416 605 372 605 q 492 587 460 605 q 545 536 524 568 q 574 462 564 504 q 584 374 584 420 l 584 359 q 574 269 584 311 q 545 196 564 227 q 492 145 524 163 q 417 127 460 127 q 340 145 372 127 q 288 196 308 163 q 257 269 267 227 q 248 359 248 311 m 646 1042 l 517 1042 q 511 1007 517 1025 q 495 978 506 990 q 465 957 483 965 q 421 949 447 949 q 376 957 395 949 q 347 977 358 965 q 330 1007 335 990 q 324 1042 324 1024 l 196 1042 q 212 964 196 1000 q 257 902 227 928 q 327 862 286 876 q 421 848 369 848 q 514 862 473 848 q 585 902 556 876 q 630 964 614 928 q 646 1042 646 1000 z "},"ô":{"ha":833,"x_min":73,"x_max":760,"o":"m 73 374 l 73 359 q 96 211 73 279 q 163 92 119 142 q 271 14 207 42 q 417 -14 335 -14 q 562 14 498 -14 q 670 92 626 42 q 736 211 713 142 q 760 359 760 279 l 760 374 q 736 522 760 454 q 670 640 713 590 q 562 719 625 690 q 416 747 498 747 q 271 719 334 747 q 163 640 207 690 q 96 522 119 590 q 73 374 73 454 m 248 359 l 248 374 q 257 462 248 420 q 288 536 267 504 q 340 587 308 568 q 416 605 372 605 q 492 587 460 605 q 545 536 524 568 q 574 462 564 504 q 584 374 584 420 l 584 359 q 574 269 584 311 q 545 196 564 227 q 492 145 524 163 q 417 127 460 127 q 340 145 372 127 q 288 196 308 163 q 257 269 267 227 q 248 359 248 311 m 664 882 l 471 1046 l 369 1046 l 178 884 l 178 863 l 317 863 l 420 954 l 524 863 l 664 863 l 664 882 z "},"ö":{"ha":833,"x_min":73,"x_max":760,"o":"m 73 374 l 73 359 q 96 211 73 279 q 163 92 119 142 q 271 14 207 42 q 417 -14 335 -14 q 562 14 498 -14 q 670 92 626 42 q 736 211 713 142 q 760 359 760 279 l 760 374 q 736 522 760 454 q 670 640 713 590 q 562 719 625 690 q 416 747 498 747 q 271 719 334 747 q 163 640 207 690 q 96 522 119 590 q 73 374 73 454 m 248 359 l 248 374 q 257 462 248 420 q 288 536 267 504 q 340 587 308 568 q 416 605 372 605 q 492 587 460 605 q 545 536 524 568 q 574 462 564 504 q 584 374 584 420 l 584 359 q 574 269 584 311 q 545 196 564 227 q 492 145 524 163 q 417 127 460 127 q 340 145 372 127 q 288 196 308 163 q 257 269 267 227 q 248 359 248 311 m 169 945 q 193 887 169 910 q 257 863 218 863 q 321 887 296 863 q 345 945 345 910 q 321 1003 345 979 q 257 1027 297 1027 q 193 1003 217 1027 q 169 945 169 979 m 487 945 q 511 886 487 909 q 575 862 536 862 q 640 886 615 862 q 664 945 664 909 q 640 1002 664 979 q 575 1026 616 1026 q 511 1002 535 1026 q 487 945 487 979 z "},"ò":{"ha":833,"x_min":73,"x_max":760,"o":"m 73 374 l 73 359 q 96 211 73 279 q 163 92 119 142 q 271 14 207 42 q 417 -14 335 -14 q 562 14 498 -14 q 670 92 626 42 q 736 211 713 142 q 760 359 760 279 l 760 374 q 736 522 760 454 q 670 640 713 590 q 562 719 625 690 q 416 747 498 747 q 271 719 334 747 q 163 640 207 690 q 96 522 119 590 q 73 374 73 454 m 248 359 l 248 374 q 257 462 248 420 q 288 536 267 504 q 340 587 308 568 q 416 605 372 605 q 492 587 460 605 q 545 536 524 568 q 574 462 564 504 q 584 374 584 420 l 584 359 q 574 269 584 311 q 545 196 564 227 q 492 145 524 163 q 417 127 460 127 q 340 145 372 127 q 288 196 308 163 q 257 269 267 227 q 248 359 248 311 m 492 833 l 372 1021 l 176 1021 l 353 833 l 492 833 z "},"ơ":{"ha":833,"x_min":68,"x_max":808,"o":"m 68 374 l 68 359 q 91 211 68 279 q 159 92 114 142 q 267 14 202 42 q 412 -14 331 -14 q 557 14 494 -14 q 665 92 621 42 q 732 211 709 142 q 755 359 755 279 l 755 374 q 742 488 755 434 q 703 586 728 541 q 747 621 728 600 q 780 667 766 642 q 801 728 793 694 q 808 802 808 762 l 681 802 q 677 754 681 776 q 667 715 674 732 q 653 690 661 701 q 633 671 644 679 q 536 727 591 707 q 411 747 480 747 q 266 719 330 747 q 159 640 202 690 q 91 522 114 590 q 68 374 68 454 m 243 359 l 243 374 q 253 462 243 420 q 283 536 262 504 q 335 587 303 568 q 411 605 367 605 q 488 587 456 605 q 540 536 519 568 q 569 462 559 504 q 579 374 579 420 l 579 359 q 569 269 579 311 q 540 196 559 227 q 488 145 519 163 q 412 127 456 127 q 335 145 368 127 q 283 196 303 163 q 253 269 262 227 q 243 359 243 311 z "},"ő":{"ha":833,"x_min":73,"x_max":792,"o":"m 73 374 l 73 359 q 96 211 73 279 q 163 92 119 142 q 271 14 207 42 q 417 -14 335 -14 q 562 14 498 -14 q 670 92 626 42 q 736 211 713 142 q 760 359 760 279 l 760 374 q 736 522 760 454 q 670 640 713 590 q 562 719 625 690 q 416 747 498 747 q 271 719 334 747 q 163 640 207 690 q 96 522 119 590 q 73 374 73 454 m 248 359 l 248 374 q 257 462 248 420 q 288 536 267 504 q 340 587 308 568 q 416 605 372 605 q 492 587 460 605 q 545 536 524 568 q 574 462 564 504 q 584 374 584 420 l 584 359 q 574 269 584 311 q 545 196 564 227 q 492 145 524 163 q 417 127 460 127 q 340 145 372 127 q 288 196 308 163 q 257 269 267 227 q 248 359 248 311 m 614 1048 l 447 867 l 585 867 l 792 1048 l 614 1048 m 371 1048 l 236 867 l 368 867 l 541 1048 l 371 1048 z "},"ō":{"ha":833,"x_min":73,"x_max":760,"o":"m 73 374 l 73 359 q 96 211 73 279 q 163 92 119 142 q 271 14 207 42 q 417 -14 335 -14 q 562 14 498 -14 q 670 92 626 42 q 736 211 713 142 q 760 359 760 279 l 760 374 q 736 522 760 454 q 670 640 713 590 q 562 719 625 690 q 416 747 498 747 q 271 719 334 747 q 163 640 207 690 q 96 522 119 590 q 73 374 73 454 m 248 359 l 248 374 q 257 462 248 420 q 288 536 267 504 q 340 587 308 568 q 416 605 372 605 q 492 587 460 605 q 545 536 524 568 q 574 462 564 504 q 584 374 584 420 l 584 359 q 574 269 584 311 q 545 196 564 227 q 492 145 524 163 q 417 127 460 127 q 340 145 372 127 q 288 196 308 163 q 257 269 267 227 q 248 359 248 311 m 668 880 l 668 989 l 176 989 l 176 880 l 668 880 z "},"ø":{"ha":833,"x_min":73,"x_max":760,"o":"m 73 374 l 73 359 q 109 176 73 258 q 215 46 146 95 l 146 -95 l 248 -95 l 296 5 q 354 -9 324 -5 q 417 -14 385 -14 q 562 14 498 -14 q 670 92 626 42 q 736 211 713 142 q 760 359 760 279 l 760 374 q 749 478 760 429 q 718 568 739 527 q 679 630 701 602 q 627 680 656 658 l 697 823 l 595 823 l 547 724 q 485 742 517 736 q 416 747 452 747 q 271 719 334 747 q 163 640 207 690 q 96 522 119 590 q 73 374 73 454 m 248 359 l 248 374 q 257 462 248 420 q 288 536 267 504 q 340 587 308 568 q 416 605 372 605 q 451 602 435 605 q 481 591 467 598 l 288 195 q 257 269 267 227 q 248 359 248 311 m 584 374 l 584 359 q 574 269 584 311 q 545 196 564 227 q 492 145 524 163 q 417 127 460 127 q 388 129 402 127 q 361 136 374 132 l 550 524 q 563 495 557 511 q 574 463 569 479 q 582 420 579 443 q 584 374 584 397 z "},"ǿ":{"ha":833,"x_min":73,"x_max":760,"o":"m 73 374 l 73 359 q 109 176 73 258 q 215 46 146 95 l 146 -95 l 248 -95 l 296 5 q 354 -9 324 -5 q 417 -14 385 -14 q 562 14 498 -14 q 670 92 626 42 q 736 211 713 142 q 760 359 760 279 l 760 374 q 749 478 760 429 q 718 568 739 527 q 679 630 701 602 q 627 680 656 658 l 697 823 l 595 823 l 547 724 q 485 742 517 736 q 416 747 452 747 q 271 719 334 747 q 163 640 207 690 q 96 522 119 590 q 73 374 73 454 m 248 359 l 248 374 q 257 462 248 420 q 288 536 267 504 q 340 587 308 568 q 416 605 372 605 q 451 602 435 605 q 481 591 467 598 l 288 195 q 257 269 267 227 q 248 359 248 311 m 584 374 l 584 359 q 574 269 584 311 q 545 196 564 227 q 492 145 524 163 q 417 127 460 127 q 388 129 402 127 q 361 136 374 132 l 550 524 q 563 495 557 511 q 574 463 569 479 q 582 420 579 443 q 584 374 584 397 m 443 1016 l 317 828 l 452 828 l 639 1016 l 443 1016 z "},"õ":{"ha":833,"x_min":73,"x_max":760,"o":"m 73 374 l 73 359 q 96 211 73 279 q 163 92 119 142 q 271 14 207 42 q 417 -14 335 -14 q 562 14 498 -14 q 670 92 626 42 q 736 211 713 142 q 760 359 760 279 l 760 374 q 736 522 760 454 q 670 640 713 590 q 562 719 625 690 q 416 747 498 747 q 271 719 334 747 q 163 640 207 690 q 96 522 119 590 q 73 374 73 454 m 248 359 l 248 374 q 257 462 248 420 q 288 536 267 504 q 340 587 308 568 q 416 605 372 605 q 492 587 460 605 q 545 536 524 568 q 574 462 564 504 q 584 374 584 420 l 584 359 q 574 269 584 311 q 545 196 564 227 q 492 145 524 163 q 417 127 460 127 q 340 145 372 127 q 288 196 308 163 q 257 269 267 227 q 248 359 248 311 m 664 1042 l 574 1063 q 569 1036 574 1048 q 557 1015 565 1023 q 536 1000 549 1005 q 511 994 524 994 q 463 1004 486 994 q 418 1025 439 1013 q 371 1045 395 1036 q 320 1055 348 1055 q 261 1040 288 1055 q 216 1002 235 1025 q 186 950 197 979 q 176 890 176 920 l 266 871 q 274 904 266 890 q 294 925 281 919 q 316 935 304 932 q 340 936 328 937 q 384 925 364 934 q 423 906 403 916 q 466 887 443 895 q 519 879 488 879 q 578 893 551 879 q 624 930 604 907 q 653 982 643 952 q 664 1042 664 1011 z "},"ŕ":{"ha":833,"x_min":201,"x_max":753,"o":"m 618 747 q 480 712 543 747 q 373 614 418 676 l 372 631 l 364 734 l 201 734 l 201 0 l 376 0 l 376 447 q 408 503 389 479 q 455 543 428 527 q 510 565 479 557 q 580 572 541 572 q 653 568 615 572 q 728 555 690 564 l 753 729 q 695 742 732 736 q 618 747 659 747 m 445 1019 l 319 831 l 454 831 l 641 1019 l 445 1019 z "},"ř":{"ha":833,"x_min":145,"x_max":753,"o":"m 618 747 q 480 712 543 747 q 373 614 418 676 l 372 631 l 364 734 l 201 734 l 201 0 l 376 0 l 376 447 q 408 503 389 479 q 455 543 428 527 q 510 565 479 557 q 580 572 541 572 q 653 568 615 572 q 728 555 690 564 l 753 729 q 695 742 732 736 q 618 747 659 747 m 394 958 l 294 1047 l 145 1047 l 145 1034 l 339 863 l 449 863 l 644 1034 l 644 1047 l 494 1047 l 394 958 z "},"ŗ":{"ha":833,"x_min":182,"x_max":753,"o":"m 618 747 q 480 712 543 747 q 373 614 418 676 l 372 631 l 364 734 l 201 734 l 201 0 l 376 0 l 376 447 q 408 503 389 479 q 455 543 428 527 q 510 565 479 557 q 580 572 541 572 q 653 568 615 572 q 728 555 690 564 l 753 729 q 695 742 732 736 q 618 747 659 747 m 359 -85 l 359 -38 l 233 -38 l 233 -87 q 220 -182 233 -138 q 182 -269 208 -227 l 258 -320 q 334 -210 309 -275 q 359 -85 359 -145 z "},"ś":{"ha":833,"x_min":90,"x_max":747,"o":"m 576 200 q 568 169 576 183 q 545 142 560 154 q 497 122 526 130 q 427 115 467 115 q 367 121 397 115 q 314 141 338 127 q 276 177 291 155 q 258 231 261 199 l 90 231 q 112 142 90 186 q 176 64 134 98 q 281 7 218 28 q 425 -14 343 -14 q 557 2 497 -14 q 659 48 617 19 q 724 119 701 78 q 747 208 747 159 q 725 297 747 260 q 662 361 703 334 q 566 405 622 388 q 443 434 509 422 q 365 451 395 441 q 317 473 334 460 q 291 499 298 484 q 284 530 284 513 q 293 564 284 548 q 317 591 301 579 q 360 611 334 604 q 423 618 387 618 q 492 608 463 618 q 540 581 522 597 q 562 549 554 566 q 569 512 569 532 l 744 512 q 722 605 744 562 q 659 680 700 648 q 557 729 617 711 q 423 747 498 747 q 295 729 352 747 q 197 680 237 711 q 136 609 157 650 q 115 523 115 568 q 136 440 115 476 q 195 378 157 405 q 285 332 232 351 q 402 300 338 313 q 487 280 453 290 q 541 258 520 270 q 569 232 561 246 q 576 200 576 218 m 457 1019 l 331 831 l 467 831 l 653 1019 l 457 1019 z "},"š":{"ha":833,"x_min":90,"x_max":747,"o":"m 576 200 q 568 169 576 183 q 545 142 560 154 q 497 122 526 130 q 427 115 467 115 q 367 121 397 115 q 314 141 338 127 q 276 177 291 155 q 258 231 261 199 l 90 231 q 112 142 90 186 q 176 64 134 98 q 281 7 218 28 q 425 -14 343 -14 q 557 2 497 -14 q 659 48 617 19 q 724 119 701 78 q 747 208 747 159 q 725 297 747 260 q 662 361 703 334 q 566 405 622 388 q 443 434 509 422 q 365 451 395 441 q 317 473 334 460 q 291 499 298 484 q 284 530 284 513 q 293 564 284 548 q 317 591 301 579 q 360 611 334 604 q 423 618 387 618 q 492 608 463 618 q 540 581 522 597 q 562 549 554 566 q 569 512 569 532 l 744 512 q 722 605 744 562 q 659 680 700 648 q 557 729 617 711 q 423 747 498 747 q 295 729 352 747 q 197 680 237 711 q 136 609 157 650 q 115 523 115 568 q 136 440 115 476 q 195 378 157 405 q 285 332 232 351 q 402 300 338 313 q 487 280 453 290 q 541 258 520 270 q 569 232 561 246 q 576 200 576 218 m 406 958 l 307 1047 l 157 1047 l 157 1034 l 351 863 l 461 863 l 656 1034 l 656 1047 l 507 1047 l 406 958 z "},"ş":{"ha":833,"x_min":90,"x_max":747,"o":"m 576 200 q 568 169 576 183 q 545 142 560 154 q 497 122 526 130 q 427 115 467 115 q 367 121 397 115 q 314 141 338 127 q 276 177 291 155 q 258 231 261 199 l 90 231 q 112 142 90 186 q 176 64 134 98 q 281 7 218 28 q 425 -14 343 -14 q 557 2 497 -14 q 659 48 617 19 q 724 119 701 78 q 747 208 747 159 q 725 297 747 260 q 662 361 703 334 q 566 405 622 388 q 443 434 509 422 q 365 451 395 441 q 317 473 334 460 q 291 499 298 484 q 284 530 284 513 q 293 564 284 548 q 317 591 301 579 q 360 611 334 604 q 423 618 387 618 q 492 608 463 618 q 540 581 522 597 q 562 549 554 566 q 569 512 569 532 l 744 512 q 722 605 744 562 q 659 680 700 648 q 557 729 617 711 q 423 747 498 747 q 295 729 352 747 q 197 680 237 711 q 136 609 157 650 q 115 523 115 568 q 136 440 115 476 q 195 378 157 405 q 285 332 232 351 q 402 300 338 313 q 487 280 453 290 q 541 258 520 270 q 569 232 561 246 q 576 200 576 218 m 473 -3 l 344 -3 l 323 -98 q 369 -103 349 -100 q 400 -113 388 -106 q 417 -130 412 -120 q 423 -154 423 -140 q 416 -181 423 -170 q 397 -199 410 -193 q 370 -209 386 -206 q 336 -212 354 -212 l 340 -313 q 436 -303 395 -313 q 507 -273 478 -292 q 553 -224 537 -253 q 568 -158 568 -195 q 559 -108 568 -129 q 536 -73 551 -87 q 504 -52 522 -60 q 466 -41 485 -44 l 473 -3 z "},"ŝ":{"ha":833,"x_min":90,"x_max":747,"o":"m 576 200 q 568 169 576 183 q 545 142 560 154 q 497 122 526 130 q 427 115 467 115 q 367 121 397 115 q 314 141 338 127 q 276 177 291 155 q 258 231 261 199 l 90 231 q 112 142 90 186 q 176 64 134 98 q 281 7 218 28 q 425 -14 343 -14 q 557 2 497 -14 q 659 48 617 19 q 724 119 701 78 q 747 208 747 159 q 725 297 747 260 q 662 361 703 334 q 566 405 622 388 q 443 434 509 422 q 365 451 395 441 q 317 473 334 460 q 291 499 298 484 q 284 530 284 513 q 293 564 284 548 q 317 591 301 579 q 360 611 334 604 q 423 618 387 618 q 492 608 463 618 q 540 581 522 597 q 562 549 554 566 q 569 512 569 532 l 744 512 q 722 605 744 562 q 659 680 700 648 q 557 729 617 711 q 423 747 498 747 q 295 729 352 747 q 197 680 237 711 q 136 609 157 650 q 115 523 115 568 q 136 440 115 476 q 195 378 157 405 q 285 332 232 351 q 402 300 338 313 q 487 280 453 290 q 541 258 520 270 q 569 232 561 246 q 576 200 576 218 m 650 882 l 458 1046 l 355 1046 l 165 884 l 165 863 l 303 863 l 406 954 l 510 863 l 650 863 l 650 882 z "},"ŧ":{"ha":833,"x_min":87,"x_max":742,"o":"m 436 913 l 260 913 l 260 734 l 87 734 l 87 604 l 260 604 l 260 492 l 125 492 l 125 374 l 260 374 l 260 256 q 279 134 260 184 q 332 50 298 83 q 414 1 366 17 q 519 -14 462 -14 q 582 -11 551 -14 q 643 -3 614 -8 q 697 11 672 3 q 742 30 723 19 l 724 151 q 693 144 711 148 q 655 138 675 141 q 611 133 634 135 q 568 130 589 130 q 514 137 538 130 q 472 161 490 144 q 446 203 455 176 q 436 271 436 230 l 436 374 l 587 374 l 587 492 l 436 492 l 436 604 l 711 604 l 711 734 l 436 734 l 436 913 z "},"ť":{"ha":833,"x_min":73,"x_max":811,"o":"m 422 911 l 246 911 l 246 732 l 73 732 l 73 602 l 246 602 l 246 255 q 265 132 246 183 q 318 49 283 81 q 400 0 352 16 q 505 -16 448 -16 q 568 -13 536 -16 q 629 -4 600 -9 q 683 9 658 1 q 728 28 709 18 l 709 150 q 679 143 697 146 q 641 137 661 140 q 597 131 620 134 q 553 129 574 129 q 500 136 524 129 q 458 159 475 142 q 431 202 441 175 q 422 269 422 229 l 422 602 l 696 602 l 696 732 l 422 732 l 422 911 m 811 1052 l 811 1166 l 665 1166 l 665 1051 q 649 937 665 987 q 606 841 633 886 l 688 788 q 737 844 715 812 q 776 910 760 875 q 802 981 793 945 q 811 1052 811 1018 z "},"ú":{"ha":833,"x_min":106,"x_max":739,"o":"m 580 0 l 739 0 l 739 734 l 563 734 l 563 216 q 541 182 554 198 q 512 156 528 167 q 466 136 492 143 q 408 130 440 130 q 350 138 374 130 q 311 166 326 146 q 289 218 296 185 q 281 298 281 250 l 281 734 l 106 734 l 106 299 q 124 157 106 216 q 177 60 143 98 q 258 3 210 21 q 362 -14 305 -14 q 480 17 427 -14 q 570 102 533 48 l 580 0 m 472 1004 l 346 817 l 481 817 l 668 1004 l 472 1004 z "},"ŭ":{"ha":833,"x_min":106,"x_max":739,"o":"m 580 0 l 739 0 l 739 734 l 563 734 l 563 216 q 541 182 554 198 q 512 156 528 167 q 466 136 492 143 q 408 130 440 130 q 350 138 374 130 q 311 166 326 146 q 289 218 296 185 q 281 298 281 250 l 281 734 l 106 734 l 106 299 q 124 157 106 216 q 177 60 143 98 q 258 3 210 21 q 362 -14 305 -14 q 480 17 427 -14 q 570 102 533 48 l 580 0 m 646 1028 l 517 1028 q 512 993 517 1010 q 496 964 507 976 q 466 943 484 951 q 422 935 448 935 q 377 943 395 935 q 347 963 359 951 q 330 993 336 976 q 325 1028 325 1010 l 197 1028 q 212 949 197 985 q 258 888 228 913 q 328 848 286 862 q 422 833 370 833 q 515 848 473 833 q 586 888 557 862 q 631 949 615 913 q 646 1028 646 985 z "},"û":{"ha":833,"x_min":106,"x_max":739,"o":"m 580 0 l 739 0 l 739 734 l 563 734 l 563 216 q 541 182 554 198 q 512 156 528 167 q 466 136 492 143 q 408 130 440 130 q 350 138 374 130 q 311 166 326 146 q 289 218 296 185 q 281 298 281 250 l 281 734 l 106 734 l 106 299 q 124 157 106 216 q 177 60 143 98 q 258 3 210 21 q 362 -14 305 -14 q 480 17 427 -14 q 570 102 533 48 l 580 0 m 665 868 l 472 1032 l 370 1032 l 179 869 l 179 849 l 317 849 l 420 939 l 524 849 l 665 849 l 665 868 z "},"ü":{"ha":833,"x_min":106,"x_max":739,"o":"m 580 0 l 739 0 l 739 734 l 563 734 l 563 216 q 541 182 554 198 q 512 156 528 167 q 466 136 492 143 q 408 130 440 130 q 350 138 374 130 q 311 166 326 146 q 289 218 296 185 q 281 298 281 250 l 281 734 l 106 734 l 106 299 q 124 157 106 216 q 177 60 143 98 q 258 3 210 21 q 362 -14 305 -14 q 480 17 427 -14 q 570 102 533 48 l 580 0 m 170 930 q 195 872 170 896 q 258 849 219 849 q 322 872 298 849 q 347 930 347 896 q 322 989 347 965 q 258 1013 298 1013 q 194 989 218 1013 q 170 930 170 965 m 488 930 q 513 871 488 895 q 576 848 537 848 q 641 871 616 848 q 665 930 665 895 q 641 988 665 964 q 576 1012 617 1012 q 512 988 536 1012 q 488 930 488 964 z "},"ù":{"ha":833,"x_min":106,"x_max":739,"o":"m 580 0 l 739 0 l 739 734 l 563 734 l 563 216 q 541 182 554 198 q 512 156 528 167 q 466 136 492 143 q 408 130 440 130 q 350 138 374 130 q 311 166 326 146 q 289 218 296 185 q 281 298 281 250 l 281 734 l 106 734 l 106 299 q 124 157 106 216 q 177 60 143 98 q 258 3 210 21 q 362 -14 305 -14 q 480 17 427 -14 q 570 102 533 48 l 580 0 m 492 819 l 372 1006 l 177 1006 l 353 819 l 492 819 z "},"ư":{"ha":833,"x_min":89,"x_max":928,"o":"m 928 798 l 798 798 q 792 730 798 760 q 774 680 787 701 q 752 654 766 665 q 722 636 739 643 l 722 734 l 546 734 l 546 216 q 527 186 538 200 q 501 161 515 172 q 454 138 481 146 q 391 130 426 130 q 333 138 357 130 q 294 166 309 146 q 271 218 278 185 q 264 298 264 250 l 264 734 l 89 734 l 89 299 q 107 157 89 216 q 159 60 126 98 q 241 3 193 21 q 345 -14 288 -14 q 463 17 410 -14 q 553 102 515 48 l 563 0 l 722 0 l 722 526 q 877 609 827 543 q 928 798 928 675 z "},"ű":{"ha":833,"x_min":106,"x_max":793,"o":"m 580 0 l 739 0 l 739 734 l 563 734 l 563 216 q 541 182 554 198 q 512 156 528 167 q 466 136 492 143 q 408 130 440 130 q 350 138 374 130 q 311 166 326 146 q 289 218 296 185 q 281 298 281 250 l 281 734 l 106 734 l 106 299 q 124 157 106 216 q 177 60 143 98 q 258 3 210 21 q 362 -14 305 -14 q 480 17 427 -14 q 570 102 533 48 l 580 0 m 614 1034 l 448 853 l 585 853 l 793 1034 l 614 1034 m 372 1034 l 237 853 l 368 853 l 541 1034 l 372 1034 z "},"ū":{"ha":833,"x_min":106,"x_max":739,"o":"m 580 0 l 739 0 l 739 734 l 563 734 l 563 216 q 541 182 554 198 q 512 156 528 167 q 466 136 492 143 q 408 130 440 130 q 350 138 374 130 q 311 166 326 146 q 289 218 296 185 q 281 298 281 250 l 281 734 l 106 734 l 106 299 q 124 157 106 216 q 177 60 143 98 q 258 3 210 21 q 362 -14 305 -14 q 480 17 427 -14 q 570 102 533 48 l 580 0 m 669 867 l 669 975 l 176 975 l 176 867 l 669 867 z "},"ų":{"ha":833,"x_min":106,"x_max":756,"o":"m 729 0 l 739 0 l 739 734 l 563 734 l 563 216 q 543 184 555 199 q 515 159 531 170 q 469 137 496 144 q 408 130 442 130 q 350 138 374 130 q 311 166 326 146 q 289 218 296 185 q 281 298 281 250 l 281 734 l 106 734 l 106 299 q 124 157 106 216 q 177 60 143 98 q 258 3 210 21 q 362 -14 305 -14 q 480 17 427 -14 q 570 102 533 48 l 579 7 q 547 -19 562 -5 q 521 -49 532 -34 q 494 -99 503 -73 q 485 -151 485 -125 q 496 -211 485 -185 q 528 -254 508 -236 q 574 -280 547 -271 q 631 -289 601 -289 q 707 -279 677 -289 q 756 -259 737 -269 l 726 -159 q 702 -169 717 -163 q 667 -174 688 -174 q 631 -160 642 -174 q 621 -127 621 -147 q 626 -90 621 -108 q 644 -57 632 -73 q 678 -27 657 -41 q 729 0 699 -13 z "},"ů":{"ha":833,"x_min":106,"x_max":739,"o":"m 580 0 l 739 0 l 739 734 l 563 734 l 563 216 q 541 182 554 198 q 512 156 528 167 q 466 136 492 143 q 408 130 440 130 q 350 138 374 130 q 311 166 326 146 q 289 218 296 185 q 281 298 281 250 l 281 734 l 106 734 l 106 299 q 124 157 106 216 q 177 60 143 98 q 258 3 210 21 q 362 -14 305 -14 q 480 17 427 -14 q 570 102 533 48 l 580 0 m 277 942 q 289 889 277 913 q 320 848 300 865 q 365 821 339 831 q 421 812 391 812 q 476 821 450 812 q 521 848 502 831 q 551 889 540 865 q 562 942 562 913 q 551 995 562 970 q 521 1038 540 1019 q 476 1065 502 1055 q 421 1076 450 1076 q 365 1065 391 1076 q 319 1038 339 1055 q 289 995 300 1019 q 277 942 277 970 m 353 942 q 358 970 353 958 q 372 991 363 983 q 394 1006 381 1001 q 421 1011 407 1011 q 447 1006 435 1011 q 469 992 459 1002 q 481 970 477 983 q 486 942 486 958 q 481 914 486 926 q 467 892 476 901 q 447 879 458 884 q 421 875 435 875 q 394 880 407 875 q 373 893 382 884 q 358 915 364 902 q 353 942 353 927 z "},"ũ":{"ha":833,"x_min":106,"x_max":739,"o":"m 580 0 l 739 0 l 739 734 l 563 734 l 563 216 q 541 182 554 198 q 512 156 528 167 q 466 136 492 143 q 408 130 440 130 q 350 138 374 130 q 311 166 326 146 q 289 218 296 185 q 281 298 281 250 l 281 734 l 106 734 l 106 299 q 124 157 106 216 q 177 60 143 98 q 258 3 210 21 q 362 -14 305 -14 q 480 17 427 -14 q 570 102 533 48 l 580 0 m 665 1027 l 574 1048 q 570 1021 574 1034 q 557 1000 566 1009 q 537 985 549 991 q 512 980 525 980 q 463 989 486 980 q 418 1010 440 999 q 372 1031 395 1021 q 321 1040 349 1040 q 262 1026 288 1040 q 216 988 235 1011 q 187 936 197 965 q 176 876 176 906 l 267 857 q 274 890 267 876 q 295 911 282 905 q 317 920 305 918 q 341 922 329 923 q 384 911 365 920 q 424 892 404 902 q 466 873 444 881 q 519 865 489 865 q 578 879 552 865 q 625 916 605 892 q 654 967 644 938 q 665 1027 665 997 z "},"ẃ":{"ha":833,"x_min":21,"x_max":803,"o":"m 158 0 l 309 0 l 395 404 l 410 487 l 427 404 l 515 0 l 666 0 l 803 734 l 643 734 l 583 294 l 572 213 l 557 293 l 470 734 l 353 734 l 267 291 l 252 214 l 242 291 l 181 734 l 21 734 l 158 0 m 463 1004 l 336 817 l 472 817 l 659 1004 l 463 1004 z "},"ŵ":{"ha":833,"x_min":21,"x_max":803,"o":"m 158 0 l 309 0 l 395 404 l 410 487 l 427 404 l 515 0 l 666 0 l 803 734 l 643 734 l 583 294 l 572 213 l 557 293 l 470 734 l 353 734 l 267 291 l 252 214 l 242 291 l 181 734 l 21 734 l 158 0 m 656 868 l 463 1032 l 361 1032 l 170 869 l 170 849 l 309 849 l 412 939 l 515 849 l 656 849 l 656 868 z "},"ẅ":{"ha":833,"x_min":21,"x_max":803,"o":"m 158 0 l 309 0 l 395 404 l 410 487 l 427 404 l 515 0 l 666 0 l 803 734 l 643 734 l 583 294 l 572 213 l 557 293 l 470 734 l 353 734 l 267 291 l 252 214 l 242 291 l 181 734 l 21 734 l 158 0 m 161 930 q 185 872 161 896 q 249 849 210 849 q 313 872 288 849 q 337 930 337 896 q 313 989 337 965 q 249 1013 289 1013 q 185 989 209 1013 q 161 930 161 965 m 479 930 q 503 871 479 895 q 567 848 528 848 q 631 871 607 848 q 656 930 656 895 q 632 988 656 964 q 567 1012 608 1012 q 503 988 527 1012 q 479 930 479 964 z "},"ẁ":{"ha":833,"x_min":21,"x_max":803,"o":"m 158 0 l 309 0 l 395 404 l 410 487 l 427 404 l 515 0 l 666 0 l 803 734 l 643 734 l 583 294 l 572 213 l 557 293 l 470 734 l 353 734 l 267 291 l 252 214 l 242 291 l 181 734 l 21 734 l 158 0 m 484 819 l 363 1006 l 168 1006 l 345 819 l 484 819 z "},"ý":{"ha":833,"x_min":37,"x_max":823,"o":"m 204 -296 q 301 -277 260 -296 q 370 -231 342 -258 q 419 -171 399 -203 q 451 -111 439 -138 l 823 734 l 629 734 l 457 293 l 428 217 l 405 295 l 230 734 l 37 734 l 349 32 l 304 -52 q 290 -78 296 -67 q 269 -106 283 -89 q 238 -137 256 -123 q 197 -151 220 -151 q 169 -150 186 -151 q 138 -149 151 -149 l 116 -283 q 158 -293 138 -290 q 204 -296 179 -296 m 488 1004 l 361 817 l 497 817 l 684 1004 l 488 1004 z "},"ŷ":{"ha":833,"x_min":37,"x_max":823,"o":"m 204 -296 q 301 -277 260 -296 q 370 -231 342 -258 q 419 -171 399 -203 q 451 -111 439 -138 l 823 734 l 629 734 l 457 293 l 428 217 l 405 295 l 230 734 l 37 734 l 349 32 l 304 -52 q 290 -78 296 -67 q 269 -106 283 -89 q 238 -137 256 -123 q 197 -151 220 -151 q 169 -150 186 -151 q 138 -149 151 -149 l 116 -283 q 158 -293 138 -290 q 204 -296 179 -296 m 680 868 l 488 1032 l 385 1032 l 195 869 l 195 849 l 333 849 l 436 939 l 540 849 l 680 849 l 680 868 z "},"ÿ":{"ha":833,"x_min":37,"x_max":823,"o":"m 204 -296 q 301 -277 260 -296 q 370 -231 342 -258 q 419 -171 399 -203 q 451 -111 439 -138 l 823 734 l 629 734 l 457 293 l 428 217 l 405 295 l 230 734 l 37 734 l 349 32 l 304 -52 q 290 -78 296 -67 q 269 -106 283 -89 q 238 -137 256 -123 q 197 -151 220 -151 q 169 -150 186 -151 q 138 -149 151 -149 l 116 -283 q 158 -293 138 -290 q 204 -296 179 -296 m 186 930 q 210 872 186 896 q 274 849 235 849 q 338 872 313 849 q 362 930 362 896 q 338 989 362 965 q 274 1013 314 1013 q 210 989 234 1013 q 186 930 186 965 m 504 930 q 528 871 504 895 q 592 848 553 848 q 656 871 632 848 q 681 930 681 895 q 657 988 681 964 q 592 1012 633 1012 q 528 988 552 1012 q 504 930 504 964 z "},"ỳ":{"ha":833,"x_min":37,"x_max":823,"o":"m 204 -296 q 301 -277 260 -296 q 370 -231 342 -258 q 419 -171 399 -203 q 451 -111 439 -138 l 823 734 l 629 734 l 457 293 l 428 217 l 405 295 l 230 734 l 37 734 l 349 32 l 304 -52 q 290 -78 296 -67 q 269 -106 283 -89 q 238 -137 256 -123 q 197 -151 220 -151 q 169 -150 186 -151 q 138 -149 151 -149 l 116 -283 q 158 -293 138 -290 q 204 -296 179 -296 m 509 819 l 389 1006 l 193 1006 l 370 819 l 509 819 z "},"ź":{"ha":833,"x_min":86,"x_max":763,"o":"m 323 141 l 744 626 l 744 734 l 95 734 l 95 591 l 503 591 l 86 111 l 86 0 l 763 0 l 763 141 l 323 141 m 496 1004 l 370 817 l 505 817 l 692 1004 l 496 1004 z "},"ž":{"ha":833,"x_min":86,"x_max":763,"o":"m 323 141 l 744 626 l 744 734 l 95 734 l 95 591 l 503 591 l 86 111 l 86 0 l 763 0 l 763 141 l 323 141 m 444 944 l 345 1033 l 195 1033 l 195 1019 l 389 849 l 499 849 l 694 1020 l 694 1033 l 545 1033 l 444 944 z "},"ż":{"ha":833,"x_min":86,"x_max":763,"o":"m 323 141 l 744 626 l 744 734 l 95 734 l 95 591 l 503 591 l 86 111 l 86 0 l 763 0 l 763 141 l 323 141 m 347 936 q 372 871 347 897 q 444 846 398 846 q 515 871 489 846 q 541 936 541 897 q 515 1001 541 975 q 444 1027 489 1027 q 372 1001 398 1027 q 347 936 347 975 z "},"`":{"ha":833,"x_min":279,"x_max":595,"o":"m 595 815 l 475 1003 l 279 1003 l 456 815 l 595 815 z "},"´":{"ha":833,"x_min":263,"x_max":585,"o":"m 389 1003 l 263 815 l 399 815 l 585 1003 l 389 1003 z "},"ˆ":{"ha":833,"x_min":96,"x_max":582,"o":"m 582 864 l 389 1028 l 287 1028 l 96 865 l 96 845 l 235 845 l 338 935 l 441 845 l 582 845 l 582 864 z "},"˜":{"ha":833,"x_min":88,"x_max":576,"o":"m 576 1022 l 486 1043 q 482 1016 486 1028 q 469 995 477 1004 q 449 980 461 985 q 424 975 437 975 q 375 984 398 975 q 330 1005 352 994 q 284 1025 307 1016 q 233 1035 260 1035 q 174 1020 200 1035 q 128 983 147 1006 q 99 930 109 960 q 88 871 88 901 l 178 851 q 186 885 178 870 q 207 905 194 899 q 229 915 217 912 q 253 916 241 918 q 296 905 277 914 q 336 886 315 897 q 378 867 355 876 q 431 859 401 859 q 490 873 464 859 q 536 910 517 887 q 566 962 555 932 q 576 1022 576 991 z "},"¯":{"ha":833,"x_min":183,"x_max":675,"o":"m 675 879 l 675 987 l 183 987 l 183 879 l 675 879 z "},"˘":{"ha":833,"x_min":202,"x_max":652,"o":"m 652 980 l 523 980 q 517 945 523 962 q 501 916 512 928 q 471 895 489 903 q 427 887 453 887 q 382 895 401 887 q 353 915 364 903 q 336 945 341 928 q 330 980 330 962 l 202 980 q 218 901 202 937 q 263 840 233 865 q 333 800 292 814 q 427 785 375 785 q 520 800 479 785 q 591 840 562 814 q 636 901 621 865 q 652 980 652 937 z "},"˙":{"ha":833,"x_min":323,"x_max":517,"o":"m 323 924 q 349 859 323 885 q 420 833 375 833 q 492 859 466 833 q 517 924 517 885 q 492 989 517 963 q 420 1015 466 1015 q 349 989 375 1015 q 323 924 323 963 z "},"¨":{"ha":833,"x_min":183,"x_max":678,"o":"m 183 926 q 208 868 183 892 q 271 845 232 845 q 335 868 311 845 q 359 926 359 892 q 335 985 359 961 q 271 1008 311 1008 q 207 985 231 1008 q 183 926 183 961 m 501 926 q 526 867 501 891 q 589 844 550 844 q 654 867 629 844 q 678 926 678 891 q 654 984 678 960 q 589 1008 630 1008 q 525 984 549 1008 q 501 926 501 960 z "},"˚":{"ha":833,"x_min":274,"x_max":558,"o":"m 274 846 q 285 793 274 817 q 317 753 296 770 q 362 726 336 735 q 418 716 388 716 q 473 726 447 716 q 517 753 498 735 q 547 793 536 770 q 558 846 558 817 q 547 899 558 875 q 517 942 536 924 q 473 970 498 960 q 418 980 447 980 q 362 970 388 980 q 316 942 336 960 q 285 899 296 924 q 274 846 274 875 m 349 846 q 355 874 349 862 q 369 896 360 887 q 391 910 378 905 q 418 916 404 916 q 444 911 432 916 q 465 897 456 906 q 478 875 473 888 q 483 846 483 862 q 478 818 483 831 q 463 797 473 806 q 443 784 455 788 q 418 779 431 779 q 391 784 404 779 q 370 798 378 789 q 355 819 361 806 q 349 846 349 831 z "},"˝":{"ha":833,"x_min":148,"x_max":704,"o":"m 526 1029 l 359 849 l 496 849 l 704 1029 l 526 1029 m 283 1029 l 148 849 l 279 849 l 452 1029 l 283 1029 z "},"ˇ":{"ha":833,"x_min":177,"x_max":675,"o":"m 426 940 l 326 1029 l 177 1029 l 177 1015 l 371 845 l 481 845 l 675 1016 l 675 1029 l 526 1029 l 426 940 z "},"̣":{"ha":833,"x_min":-509,"x_max":-302,"o":"m -509 -153 q -481 -218 -509 -192 q -405 -244 -454 -244 q -330 -218 -357 -244 q -302 -153 -302 -192 q -329 -89 -302 -115 q -405 -62 -357 -62 q -481 -89 -454 -62 q -509 -153 -509 -115 z "},"¸":{"ha":833,"x_min":301,"x_max":547,"o":"m 452 3 l 322 3 l 301 -92 q 347 -97 328 -94 q 378 -107 366 -100 q 396 -124 390 -114 q 401 -148 401 -134 q 395 -175 401 -164 q 376 -193 388 -186 q 348 -203 364 -200 q 314 -206 332 -206 l 319 -307 q 415 -297 373 -307 q 485 -267 456 -286 q 531 -218 515 -247 q 547 -152 547 -189 q 538 -102 547 -123 q 515 -67 529 -81 q 482 -46 500 -54 q 444 -35 463 -38 l 452 3 z "},"˛":{"ha":833,"x_min":261,"x_max":532,"o":"m 505 0 l 410 40 q 355 7 380 26 q 311 -32 330 -12 q 274 -90 286 -59 q 261 -151 261 -121 q 273 -211 261 -185 q 304 -254 284 -236 q 350 -280 323 -271 q 407 -289 377 -289 q 484 -279 454 -289 q 532 -259 513 -269 l 503 -159 q 478 -169 493 -163 q 444 -174 464 -174 q 407 -160 418 -174 q 397 -127 397 -147 q 403 -89 397 -106 q 423 -54 410 -71 q 456 -26 436 -39 q 505 0 476 -12 z "},"":{"ha":833,"x_min":191,"x_max":368,"o":"m 368 121 l 368 168 l 241 168 l 241 119 q 229 24 241 68 q 191 -63 216 -20 l 267 -114 q 343 -4 318 -69 q 368 121 368 61 z "},"\r":{"ha":833,"x_min":0,"x_max":0,"o":""},"«":{"ha":833,"x_min":130,"x_max":691,"o":"m 274 337 l 440 608 l 323 608 l 130 344 l 130 331 l 323 66 l 440 66 l 274 337 m 525 337 l 691 608 l 574 608 l 381 344 l 381 331 l 574 66 l 691 66 l 525 337 z "},"µ":{"ha":833,"x_min":119,"x_max":750,"o":"m 294 734 l 119 734 l 119 -282 l 294 -282 l 294 22 q 352 -5 320 4 q 423 -14 385 -14 q 483 -7 455 -14 q 534 14 511 0 q 559 32 547 22 q 583 55 572 43 l 587 0 l 750 0 l 750 734 l 574 734 l 574 208 q 556 181 566 193 q 534 159 547 169 q 487 136 514 144 q 425 128 460 128 q 372 136 396 128 q 331 164 348 143 q 304 220 313 184 q 294 313 294 256 l 294 734 z "},"»":{"ha":833,"x_min":156,"x_max":718,"o":"m 273 631 l 156 631 l 322 360 l 156 90 l 273 90 l 467 354 l 467 367 l 273 631 m 524 631 l 407 631 l 573 360 l 407 90 l 524 90 l 718 354 l 718 367 l 524 631 z "},"ı":{"ha":833,"x_min":136,"x_max":755,"o":"m 136 734 l 136 589 l 361 589 l 361 144 l 136 144 l 136 0 l 755 0 l 755 144 l 538 144 l 538 734 l 136 734 z "},"Ĳ":{"ha":833,"x_min":85,"x_max":747,"o":"m 219 0 l 219 987 l 85 987 l 85 0 l 219 0 m 614 987 l 614 218 q 609 167 614 190 q 593 128 604 144 q 563 103 582 112 q 515 94 544 94 q 448 124 473 94 q 423 218 423 153 l 290 218 q 306 115 290 159 q 353 43 323 72 q 425 1 383 15 q 515 -13 466 -13 q 618 3 574 -13 q 691 48 662 18 q 733 121 720 78 q 747 218 747 164 l 747 987 l 614 987 z "}}}
